<svg width="56" height="32" viewBox="0 0 56 32" fill="none" xmlns="http://www.w3.org/2000/svg">
<rect width="56" height="32" rx="2" fill="#FF3232"/>
<path d="M14.832 6.4V12H13.536V9.704H10.992V12H9.696V6.4H10.992V8.608H13.536V6.4H14.832ZM18.1551 12.064C17.7017 12.064 17.2937 11.9707 16.9311 11.784C16.5737 11.592 16.2937 11.328 16.0911 10.992C15.8884 10.656 15.7871 10.2747 15.7871 9.848C15.7871 9.42133 15.8884 9.04 16.0911 8.704C16.2937 8.368 16.5737 8.10667 16.9311 7.92C17.2937 7.728 17.7017 7.632 18.1551 7.632C18.6084 7.632 19.0137 7.728 19.3711 7.92C19.7284 8.10667 20.0084 8.368 20.2111 8.704C20.4137 9.04 20.5151 9.42133 20.5151 9.848C20.5151 10.2747 20.4137 10.656 20.2111 10.992C20.0084 11.328 19.7284 11.592 19.3711 11.784C19.0137 11.9707 18.6084 12.064 18.1551 12.064ZM18.1551 11.04C18.4751 11.04 18.7364 10.9333 18.9391 10.72C19.1471 10.5013 19.2511 10.2107 19.2511 9.848C19.2511 9.48533 19.1471 9.19733 18.9391 8.984C18.7364 8.76533 18.4751 8.656 18.1551 8.656C17.8351 8.656 17.5711 8.76533 17.3631 8.984C17.1551 9.19733 17.0511 9.48533 17.0511 9.848C17.0511 10.2107 17.1551 10.5013 17.3631 10.72C17.5711 10.9333 17.8351 11.04 18.1551 11.04ZM24.6614 9.752C25.1681 9.92267 25.4214 10.264 25.4214 10.776C25.4214 11.1653 25.2748 11.4667 24.9814 11.68C24.6881 11.8933 24.2508 12 23.6694 12H21.3734V7.696H23.5734C24.1121 7.696 24.5334 7.79467 24.8374 7.992C25.1414 8.184 25.2934 8.456 25.2934 8.808C25.2934 9.02133 25.2374 9.21067 25.1254 9.376C25.0188 9.536 24.8641 9.66133 24.6614 9.752ZM22.5174 9.464H23.4614C23.8988 9.464 24.1174 9.30933 24.1174 9C24.1174 8.696 23.8988 8.544 23.4614 8.544H22.5174V9.464ZM23.5654 11.152C24.0241 11.152 24.2534 10.9947 24.2534 10.68C24.2534 10.5147 24.2001 10.3947 24.0934 10.32C23.9868 10.24 23.8188 10.2 23.5894 10.2H22.5174V11.152H23.5654ZM26.35 7.696H27.59V10.256L29.686 7.696H30.83V12H29.59V9.44L27.502 12H26.35V7.696ZM32.0297 7.696H33.2697V9.376H35.1417V7.696H36.3897V12H35.1417V10.392H33.2697V12H32.0297V7.696ZM39.4804 10.368H38.8324V12H37.5844V7.696H38.8324V9.368H39.5044L40.6724 7.696H42.0004L40.4964 9.76L42.1044 12H40.6324L39.4804 10.368ZM44.3111 7.632C44.9777 7.632 45.4897 7.792 45.8471 8.112C46.2044 8.42667 46.3831 8.904 46.3831 9.544V12H45.2151V11.464C44.9804 11.864 44.5431 12.064 43.9031 12.064C43.5724 12.064 43.2844 12.008 43.0391 11.896C42.7991 11.784 42.6151 11.6293 42.4871 11.432C42.3591 11.2347 42.2951 11.0107 42.2951 10.76C42.2951 10.36 42.4444 10.0453 42.7431 9.816C43.0471 9.58667 43.5137 9.472 44.1431 9.472H45.1351C45.1351 9.2 45.0524 8.992 44.8871 8.848C44.7217 8.69867 44.4737 8.624 44.1431 8.624C43.9137 8.624 43.6871 8.66133 43.4631 8.736C43.2444 8.80533 43.0577 8.90133 42.9031 9.024L42.4551 8.152C42.6897 7.98667 42.9697 7.85867 43.2951 7.768C43.6257 7.67733 43.9644 7.632 44.3111 7.632ZM44.2151 11.224C44.4284 11.224 44.6177 11.176 44.7831 11.08C44.9484 10.9787 45.0657 10.832 45.1351 10.64V10.2H44.2791C43.7671 10.2 43.5111 10.368 43.5111 10.704C43.5111 10.864 43.5724 10.992 43.6951 11.088C43.8231 11.1787 43.9964 11.224 44.2151 11.224Z" fill="white"/>
<path d="M24.43 25.9149H20.8846C20.788 25.9149 20.6931 25.8896 20.6093 25.8417L12.6677 21.3011C12.6286 21.2786 12.5943 21.2485 12.5669 21.2126C12.5395 21.1767 12.5195 21.1357 12.5081 21.092C12.4967 21.0483 12.4941 21.0028 12.5005 20.9581C12.5068 20.9134 12.522 20.8704 12.5451 20.8316L13.1222 19.8692C13.1684 19.7927 13.2429 19.7374 13.3296 19.7154C13.4162 19.6933 13.5081 19.7062 13.5853 19.7513L21.1216 24.1634H25.4327C25.4829 24.1634 25.531 24.1833 25.5665 24.2188C25.602 24.2543 25.6219 24.3024 25.6219 24.3526V24.7228C25.6215 25.0388 25.4958 25.3418 25.2724 25.5652C25.0489 25.7887 24.746 25.9144 24.43 25.9149ZM12.8895 20.992L20.7976 25.5136C20.8241 25.5289 20.8542 25.5369 20.8848 25.5369H24.43C24.6456 25.5365 24.8524 25.4507 25.0049 25.2982C25.1573 25.1457 25.2432 24.939 25.2435 24.7234V24.5423H21.0704C21.0368 24.5423 21.0038 24.5334 20.9748 24.5164L13.4271 20.0968L12.8895 20.992Z" fill="white"/>
<path d="M13.5732 20.1522C13.5397 20.1521 13.5069 20.1431 13.478 20.1261C13.4491 20.1091 13.4253 20.0847 13.4089 20.0555C13.3925 20.0263 13.3842 19.9932 13.3848 19.9597C13.3854 19.9262 13.3949 19.8935 13.4122 19.8649L15.6783 16.1757C15.7042 16.1336 15.7455 16.1034 15.7933 16.0913C15.8412 16.0792 15.8918 16.0864 15.9345 16.1112L17.5413 17.044C17.6552 17.1097 17.7449 17.2101 17.7974 17.3307C17.8498 17.4512 17.8621 17.5854 17.8325 17.7134L17.6281 18.9117C17.6239 18.9362 17.615 18.9597 17.6017 18.9807C17.5885 19.0017 17.5712 19.0199 17.551 19.0343C17.5307 19.0487 17.5078 19.0589 17.4835 19.0644C17.4593 19.0699 17.4342 19.0706 17.4097 19.0664C17.3852 19.0622 17.3618 19.0532 17.3408 19.04C17.3197 19.0267 17.3015 19.0095 17.2871 18.9892C17.2581 18.9482 17.2466 18.8974 17.2551 18.848L17.4613 17.6394C17.4746 17.5888 17.4711 17.5352 17.4512 17.4868C17.4313 17.4384 17.3962 17.3978 17.3512 17.3712L15.9039 16.531L13.7346 20.062C13.7177 20.0896 13.694 20.1124 13.6657 20.1282C13.6375 20.144 13.6056 20.1523 13.5732 20.1522Z" fill="white"/>
<path d="M25.4327 24.5418C25.3825 24.5418 25.3344 24.5218 25.2989 24.4863C25.2635 24.4509 25.2435 24.4027 25.2435 24.3526V23.6041C25.2431 23.253 25.1035 22.9164 24.8552 22.6681C24.6069 22.4199 24.2703 22.2802 23.9192 22.2798H22.2967L21.5897 22.4945C21.5527 22.5057 21.5131 22.5053 21.4764 22.4933C21.4396 22.4814 21.4074 22.4584 21.3841 22.4276L19.0949 19.3973C19.0794 19.3769 19.0683 19.3536 19.0621 19.3288C19.056 19.3039 19.0549 19.2781 19.059 19.2529C19.0631 19.2276 19.0723 19.2034 19.086 19.1818C19.0997 19.1602 19.1177 19.1416 19.1388 19.1272L19.999 18.5373V18.1566C19.999 18.1313 19.9926 18.1064 19.9805 18.0842C19.9684 18.062 19.9509 18.0432 19.9296 18.0295C19.9084 18.0158 19.884 18.0077 19.8588 18.0058C19.8335 18.004 19.8083 18.0085 19.7852 18.0189L17.5202 19.0513C17.492 19.0642 17.4609 19.0699 17.4299 19.0679C17.3989 19.0659 17.3688 19.0563 17.3424 19.0399L15.0205 17.6065C14.9984 17.5939 14.979 17.577 14.9636 17.5568C14.9482 17.5366 14.937 17.5135 14.9307 17.4888C14.9244 17.4642 14.9231 17.4385 14.927 17.4134C14.9308 17.3882 14.9397 17.3641 14.9531 17.3425C14.9664 17.3209 14.984 17.3022 15.0048 17.2875C15.0256 17.2728 15.0491 17.2625 15.0739 17.2571C15.0988 17.2517 15.1245 17.2514 15.1495 17.2562C15.1744 17.2609 15.1982 17.2707 15.2193 17.2848L17.4552 18.6659L19.6284 17.6746C19.7091 17.6378 19.7977 17.622 19.8861 17.6284C19.9745 17.6347 20.0599 17.6632 20.1344 17.7112C20.2089 17.7591 20.2703 17.825 20.3128 17.9028C20.3552 17.9806 20.3775 18.0678 20.3776 18.1564V18.637C20.3776 18.6677 20.3701 18.698 20.3557 18.7252C20.3414 18.7524 20.3206 18.7757 20.2953 18.7931L19.5162 19.3273L21.6062 22.0935L22.2138 21.9096C22.2316 21.9042 22.2501 21.9014 22.2687 21.9014H23.9192C24.3706 21.9019 24.8034 22.0815 25.1226 22.4007C25.4418 22.7199 25.6214 23.1527 25.6219 23.6041V24.3526C25.6219 24.4027 25.602 24.4509 25.5665 24.4863C25.531 24.5218 25.4829 24.5418 25.4327 24.5418Z" fill="white"/>
<path d="M16.138 21.6538H16.127C16.1022 21.6524 16.0779 21.6462 16.0555 21.6354C16.0331 21.6246 16.0131 21.6095 15.9965 21.591C15.98 21.5724 15.9672 21.5508 15.9591 21.5274C15.9509 21.5039 15.9474 21.4791 15.9488 21.4543L16.0116 20.3443C16.0266 20.0937 15.9769 19.8434 15.8673 19.6176C15.7576 19.3918 15.5916 19.198 15.3854 19.055L14.4988 18.4346C14.4577 18.4059 14.4296 18.3619 14.4209 18.3125C14.4121 18.2631 14.4233 18.2122 14.4521 18.1711C14.4808 18.1299 14.5248 18.1019 14.5742 18.0931C14.6236 18.0844 14.6745 18.0956 14.7156 18.1243L15.6024 18.7443C15.8616 18.9243 16.0702 19.1679 16.208 19.4519C16.3459 19.7358 16.4082 20.0504 16.3892 20.3655L16.3264 21.4754C16.3236 21.5236 16.3026 21.5689 16.2676 21.602C16.2326 21.6352 16.1862 21.6537 16.138 21.6538Z" fill="white"/>
<path d="M22.2686 22.2799C22.236 22.2799 22.2039 22.2715 22.1755 22.2554C22.1471 22.2394 22.1233 22.2163 22.1065 22.1883L20.0254 18.7349C20.0122 18.7136 20.0034 18.6899 19.9994 18.6651C19.9955 18.6404 19.9965 18.6152 20.0024 18.5908C20.0082 18.5665 20.0189 18.5435 20.0337 18.5233C20.0485 18.5032 20.0672 18.4861 20.0886 18.4732C20.1101 18.4603 20.1339 18.4517 20.1587 18.4481C20.1834 18.4444 20.2087 18.4457 20.2329 18.4519C20.2572 18.4581 20.28 18.469 20.3 18.4841C20.32 18.4991 20.3368 18.518 20.3495 18.5396L22.4306 21.9931C22.4479 22.0217 22.4572 22.0545 22.4577 22.088C22.4582 22.1215 22.4498 22.1545 22.4333 22.1836C22.4169 22.2128 22.393 22.2371 22.3641 22.254C22.3352 22.2709 22.3023 22.2798 22.2688 22.2799H22.2686Z" fill="white"/>
<path d="M16.7275 21.9994C16.6885 21.9995 16.6505 21.9875 16.6186 21.9651C16.5867 21.9427 16.5625 21.911 16.5493 21.8744C16.5361 21.8377 16.5345 21.7979 16.5448 21.7603C16.5551 21.7227 16.5767 21.6892 16.6068 21.6644L18.0509 20.4702C18.0699 20.4537 18.0921 20.4411 18.1161 20.4333C18.14 20.4255 18.1653 20.4225 18.1905 20.4246C18.2156 20.4267 18.2401 20.4338 18.2624 20.4454C18.2848 20.4571 18.3046 20.4732 18.3207 20.4926C18.3367 20.512 18.3487 20.5345 18.356 20.5586C18.3633 20.5828 18.3656 20.6082 18.363 20.6332C18.3603 20.6583 18.3526 20.6826 18.3404 20.7047C18.3282 20.7267 18.3117 20.7462 18.2919 20.7618L16.848 21.9557C16.8141 21.9839 16.7715 21.9993 16.7275 21.9994Z" fill="white"/>
<path d="M17.9256 22.7007C17.8869 22.7007 17.8491 22.6888 17.8173 22.6667C17.7856 22.6446 17.7614 22.6132 17.748 22.5769C17.7346 22.5406 17.7327 22.501 17.7425 22.4636C17.7523 22.4262 17.7733 22.3926 17.8028 22.3675L18.9362 21.4013C18.9744 21.3687 19.024 21.3526 19.074 21.3565C19.1241 21.3605 19.1705 21.3841 19.2032 21.4223C19.2358 21.4605 19.2519 21.5101 19.2479 21.5601C19.244 21.6102 19.2203 21.6567 19.1822 21.6893L18.0483 22.6555C18.0141 22.6847 17.9706 22.7007 17.9256 22.7007Z" fill="white"/>
<path d="M19.2106 23.4532C19.1726 23.4532 19.1355 23.4417 19.1041 23.4203C19.0727 23.3989 19.0485 23.3686 19.0346 23.3332C19.0207 23.2979 19.0178 23.2591 19.0262 23.2221C19.0346 23.185 19.054 23.1514 19.0818 23.1255L19.8907 22.3729C19.9089 22.356 19.9303 22.3428 19.9536 22.3341C19.9769 22.3255 20.0016 22.3215 20.0265 22.3224C20.0513 22.3233 20.0757 22.3291 20.0983 22.3394C20.1209 22.3498 20.1412 22.3644 20.1582 22.3826C20.1751 22.4008 20.1883 22.4222 20.1969 22.4455C20.2056 22.4688 20.2096 22.4935 20.2087 22.5184C20.2078 22.5432 20.202 22.5676 20.1917 22.5902C20.1813 22.6128 20.1666 22.6331 20.1484 22.6501L19.3402 23.4027C19.305 23.4353 19.2587 23.4534 19.2106 23.4532Z" fill="white"/>
<path d="M18.2825 25.915H12.5671C12.5169 25.915 12.4688 25.8951 12.4333 25.8596C12.3979 25.8241 12.3779 25.776 12.3779 25.7258C12.3779 25.6756 12.3979 25.6275 12.4333 25.592C12.4688 25.5566 12.5169 25.5366 12.5671 25.5366H18.2825C18.3327 25.5366 18.3808 25.5566 18.4163 25.592C18.4518 25.6275 18.4717 25.6756 18.4717 25.7258C18.4717 25.776 18.4518 25.8241 18.4163 25.8596C18.3808 25.8951 18.3327 25.915 18.2825 25.915Z" fill="white"/>
<path d="M15.7582 24.5013H12.5671C12.5169 24.5013 12.4688 24.4814 12.4333 24.4459C12.3979 24.4104 12.3779 24.3623 12.3779 24.3121C12.3779 24.2619 12.3979 24.2138 12.4333 24.1783C12.4688 24.1429 12.5169 24.1229 12.5671 24.1229H15.7582C15.8083 24.1229 15.8565 24.1429 15.8919 24.1783C15.9274 24.2138 15.9474 24.2619 15.9474 24.3121C15.9474 24.3623 15.9274 24.4104 15.8919 24.4459C15.8565 24.4814 15.8083 24.5013 15.7582 24.5013Z" fill="white"/>
<path d="M13.9202 23.1379H12.5671C12.5169 23.1379 12.4688 23.118 12.4333 23.0825C12.3979 23.047 12.3779 22.9989 12.3779 22.9487C12.3779 22.8985 12.3979 22.8504 12.4333 22.8149C12.4688 22.7795 12.5169 22.7595 12.5671 22.7595H13.9202C13.9704 22.7595 14.0185 22.7795 14.054 22.8149C14.0895 22.8504 14.1094 22.8985 14.1094 22.9487C14.1094 22.9989 14.0895 23.047 14.054 23.0825C14.0185 23.118 13.9704 23.1379 13.9202 23.1379Z" fill="white"/>
<path d="M42.43 25.9149H38.8846C38.788 25.9149 38.6931 25.8896 38.6093 25.8417L30.6677 21.3011C30.6286 21.2786 30.5943 21.2485 30.5669 21.2126C30.5395 21.1767 30.5195 21.1357 30.5081 21.092C30.4967 21.0483 30.4941 21.0028 30.5005 20.9581C30.5068 20.9134 30.522 20.8704 30.5451 20.8316L31.1222 19.8692C31.1684 19.7927 31.2429 19.7374 31.3296 19.7154C31.4162 19.6933 31.5081 19.7062 31.5853 19.7513L39.1216 24.1634H43.4327C43.4829 24.1634 43.531 24.1833 43.5665 24.2188C43.602 24.2543 43.6219 24.3024 43.6219 24.3526V24.7228C43.6215 25.0388 43.4958 25.3418 43.2724 25.5652C43.0489 25.7887 42.746 25.9144 42.43 25.9149ZM30.8895 20.992L38.7976 25.5136C38.8241 25.5289 38.8542 25.5369 38.8848 25.5369H42.43C42.6456 25.5365 42.8524 25.4507 43.0049 25.2982C43.1573 25.1457 43.2432 24.939 43.2435 24.7234V24.5423H39.0704C39.0368 24.5423 39.0038 24.5334 38.9748 24.5164L31.4271 20.0968L30.8895 20.992Z" fill="white"/>
<path d="M31.5732 20.1522C31.5397 20.1521 31.5069 20.1431 31.478 20.1261C31.4491 20.1091 31.4253 20.0847 31.4089 20.0555C31.3925 20.0263 31.3842 19.9932 31.3848 19.9597C31.3854 19.9262 31.3949 19.8935 31.4122 19.8649L33.6783 16.1757C33.7042 16.1336 33.7455 16.1034 33.7933 16.0913C33.8412 16.0792 33.8918 16.0864 33.9345 16.1112L35.5413 17.044C35.6552 17.1097 35.7449 17.2101 35.7974 17.3307C35.8498 17.4512 35.8621 17.5854 35.8325 17.7134L35.6281 18.9117C35.6239 18.9362 35.615 18.9597 35.6017 18.9807C35.5885 19.0017 35.5712 19.0199 35.551 19.0343C35.5307 19.0487 35.5078 19.0589 35.4835 19.0644C35.4593 19.0699 35.4342 19.0706 35.4097 19.0664C35.3852 19.0622 35.3618 19.0532 35.3408 19.04C35.3197 19.0267 35.3015 19.0095 35.2871 18.9892C35.2581 18.9482 35.2466 18.8974 35.2551 18.848L35.4613 17.6394C35.4746 17.5888 35.4711 17.5352 35.4512 17.4868C35.4313 17.4384 35.3962 17.3978 35.3512 17.3712L33.9039 16.531L31.7346 20.062C31.7177 20.0896 31.694 20.1124 31.6657 20.1282C31.6375 20.144 31.6056 20.1523 31.5732 20.1522Z" fill="white"/>
<path d="M43.4327 24.5418C43.3825 24.5418 43.3344 24.5218 43.2989 24.4863C43.2635 24.4509 43.2435 24.4027 43.2435 24.3526V23.6041C43.2431 23.253 43.1035 22.9164 42.8552 22.6681C42.6069 22.4199 42.2703 22.2802 41.9192 22.2798H40.2967L39.5897 22.4945C39.5527 22.5057 39.5131 22.5053 39.4764 22.4933C39.4396 22.4814 39.4074 22.4584 39.3841 22.4276L37.0949 19.3973C37.0794 19.3769 37.0683 19.3536 37.0621 19.3288C37.056 19.3039 37.0549 19.2781 37.059 19.2529C37.0631 19.2276 37.0723 19.2034 37.086 19.1818C37.0997 19.1602 37.1177 19.1416 37.1388 19.1272L37.999 18.5373V18.1566C37.999 18.1313 37.9926 18.1064 37.9805 18.0842C37.9684 18.062 37.9509 18.0432 37.9296 18.0295C37.9084 18.0158 37.884 18.0077 37.8588 18.0058C37.8335 18.004 37.8083 18.0085 37.7852 18.0189L35.5202 19.0513C35.492 19.0642 35.4609 19.0699 35.4299 19.0679C35.3989 19.0659 35.3688 19.0563 35.3424 19.0399L33.0205 17.6065C32.9984 17.5939 32.979 17.577 32.9636 17.5568C32.9482 17.5366 32.937 17.5135 32.9307 17.4888C32.9244 17.4642 32.9231 17.4385 32.927 17.4134C32.9308 17.3882 32.9397 17.3641 32.9531 17.3425C32.9664 17.3209 32.984 17.3022 33.0048 17.2875C33.0256 17.2728 33.0491 17.2625 33.0739 17.2571C33.0988 17.2517 33.1245 17.2514 33.1495 17.2562C33.1744 17.2609 33.1982 17.2707 33.2193 17.2848L35.4552 18.6659L37.6284 17.6746C37.7091 17.6378 37.7977 17.622 37.8861 17.6284C37.9745 17.6347 38.0599 17.6632 38.1344 17.7112C38.2089 17.7591 38.2703 17.825 38.3128 17.9028C38.3552 17.9806 38.3775 18.0678 38.3776 18.1564V18.637C38.3776 18.6677 38.3701 18.698 38.3557 18.7252C38.3414 18.7524 38.3206 18.7757 38.2953 18.7931L37.5162 19.3273L39.6062 22.0935L40.2138 21.9096C40.2316 21.9042 40.2501 21.9014 40.2687 21.9014H41.9192C42.3706 21.9019 42.8034 22.0815 43.1226 22.4007C43.4418 22.7199 43.6214 23.1527 43.6219 23.6041V24.3526C43.6219 24.4027 43.602 24.4509 43.5665 24.4863C43.531 24.5218 43.4829 24.5418 43.4327 24.5418Z" fill="white"/>
<path d="M34.138 21.6538H34.127C34.1022 21.6524 34.0779 21.6462 34.0555 21.6354C34.0331 21.6246 34.0131 21.6095 33.9965 21.591C33.98 21.5724 33.9672 21.5508 33.9591 21.5274C33.9509 21.5039 33.9474 21.4791 33.9488 21.4543L34.0116 20.3443C34.0266 20.0937 33.9769 19.8434 33.8673 19.6176C33.7576 19.3918 33.5916 19.198 33.3854 19.055L32.4988 18.4346C32.4577 18.4059 32.4296 18.3619 32.4209 18.3125C32.4121 18.2631 32.4233 18.2122 32.4521 18.1711C32.4808 18.1299 32.5248 18.1019 32.5742 18.0931C32.6236 18.0844 32.6745 18.0956 32.7156 18.1243L33.6024 18.7443C33.8616 18.9243 34.0702 19.1679 34.208 19.4519C34.3459 19.7358 34.4082 20.0504 34.3892 20.3655L34.3264 21.4754C34.3236 21.5236 34.3026 21.5689 34.2676 21.602C34.2326 21.6352 34.1862 21.6537 34.138 21.6538Z" fill="white"/>
<path d="M40.2686 22.2799C40.236 22.2799 40.2039 22.2715 40.1755 22.2554C40.1471 22.2394 40.1233 22.2163 40.1065 22.1883L38.0254 18.7349C38.0122 18.7136 38.0034 18.6899 37.9994 18.6651C37.9955 18.6404 37.9965 18.6152 38.0024 18.5908C38.0082 18.5665 38.0189 18.5435 38.0337 18.5233C38.0485 18.5032 38.0672 18.4861 38.0886 18.4732C38.1101 18.4603 38.1339 18.4517 38.1587 18.4481C38.1834 18.4444 38.2087 18.4457 38.2329 18.4519C38.2572 18.4581 38.28 18.469 38.3 18.4841C38.32 18.4991 38.3368 18.518 38.3495 18.5396L40.4306 21.9931C40.4479 22.0217 40.4572 22.0545 40.4577 22.088C40.4582 22.1215 40.4498 22.1545 40.4333 22.1836C40.4169 22.2128 40.393 22.2371 40.3641 22.254C40.3352 22.2709 40.3023 22.2798 40.2688 22.2799H40.2686Z" fill="white"/>
<path d="M34.7275 21.9994C34.6885 21.9995 34.6505 21.9875 34.6186 21.9651C34.5867 21.9427 34.5625 21.911 34.5493 21.8744C34.5361 21.8377 34.5345 21.7979 34.5448 21.7603C34.5551 21.7227 34.5767 21.6892 34.6068 21.6644L36.0509 20.4702C36.0699 20.4537 36.0921 20.4411 36.1161 20.4333C36.14 20.4255 36.1653 20.4225 36.1905 20.4246C36.2156 20.4267 36.2401 20.4338 36.2624 20.4454C36.2848 20.4571 36.3046 20.4732 36.3207 20.4926C36.3367 20.512 36.3487 20.5345 36.356 20.5586C36.3633 20.5828 36.3656 20.6082 36.363 20.6332C36.3603 20.6583 36.3526 20.6826 36.3404 20.7047C36.3282 20.7267 36.3117 20.7462 36.2919 20.7618L34.848 21.9557C34.8141 21.9839 34.7715 21.9993 34.7275 21.9994Z" fill="white"/>
<path d="M35.9256 22.7007C35.8869 22.7007 35.8491 22.6888 35.8173 22.6667C35.7856 22.6446 35.7614 22.6132 35.748 22.5769C35.7346 22.5406 35.7327 22.501 35.7425 22.4636C35.7523 22.4262 35.7733 22.3926 35.8028 22.3675L36.9362 21.4013C36.9744 21.3687 37.024 21.3526 37.074 21.3565C37.1241 21.3605 37.1705 21.3841 37.2032 21.4223C37.2358 21.4605 37.2519 21.5101 37.2479 21.5601C37.244 21.6102 37.2203 21.6567 37.1822 21.6893L36.0483 22.6555C36.0141 22.6847 35.9706 22.7007 35.9256 22.7007Z" fill="white"/>
<path d="M37.2106 23.4532C37.1726 23.4532 37.1355 23.4417 37.1041 23.4203C37.0727 23.3989 37.0485 23.3686 37.0346 23.3332C37.0207 23.2979 37.0178 23.2591 37.0262 23.2221C37.0346 23.185 37.054 23.1514 37.0818 23.1255L37.8907 22.3729C37.9089 22.356 37.9303 22.3428 37.9536 22.3341C37.9769 22.3255 38.0016 22.3215 38.0265 22.3224C38.0513 22.3233 38.0757 22.3291 38.0983 22.3394C38.1209 22.3498 38.1412 22.3644 38.1582 22.3826C38.1751 22.4008 38.1883 22.4222 38.1969 22.4455C38.2056 22.4688 38.2096 22.4935 38.2087 22.5184C38.2078 22.5432 38.202 22.5676 38.1917 22.5902C38.1813 22.6128 38.1666 22.6331 38.1484 22.6501L37.3402 23.4027C37.305 23.4353 37.2587 23.4534 37.2106 23.4532Z" fill="white"/>
<path d="M36.2825 25.915H30.5671C30.5169 25.915 30.4688 25.8951 30.4333 25.8596C30.3979 25.8241 30.3779 25.776 30.3779 25.7258C30.3779 25.6756 30.3979 25.6275 30.4333 25.592C30.4688 25.5566 30.5169 25.5366 30.5671 25.5366H36.2825C36.3327 25.5366 36.3808 25.5566 36.4163 25.592C36.4518 25.6275 36.4717 25.6756 36.4717 25.7258C36.4717 25.776 36.4518 25.8241 36.4163 25.8596C36.3808 25.8951 36.3327 25.915 36.2825 25.915Z" fill="white"/>
<path d="M33.7582 24.5013H30.5671C30.5169 24.5013 30.4688 24.4814 30.4333 24.4459C30.3979 24.4104 30.3779 24.3623 30.3779 24.3121C30.3779 24.2619 30.3979 24.2138 30.4333 24.1783C30.4688 24.1429 30.5169 24.1229 30.5671 24.1229H33.7582C33.8083 24.1229 33.8565 24.1429 33.8919 24.1783C33.9274 24.2138 33.9474 24.2619 33.9474 24.3121C33.9474 24.3623 33.9274 24.4104 33.8919 24.4459C33.8565 24.4814 33.8083 24.5013 33.7582 24.5013Z" fill="white"/>
<path d="M31.9202 23.1379H30.5671C30.5169 23.1379 30.4688 23.118 30.4333 23.0825C30.3979 23.047 30.3779 22.9989 30.3779 22.9487C30.3779 22.8985 30.3979 22.8504 30.4333 22.8149C30.4688 22.7795 30.5169 22.7595 30.5671 22.7595H31.9202C31.9704 22.7595 32.0185 22.7795 32.054 22.8149C32.0895 22.8504 32.1094 22.8985 32.1094 22.9487C32.1094 22.9989 32.0895 23.047 32.054 23.0825C32.0185 23.118 31.9704 23.1379 31.9202 23.1379Z" fill="white"/>
</svg>
