<svg width="56" height="32" viewBox="0 0 56 32" fill="none" xmlns="http://www.w3.org/2000/svg">
<rect x="0.375" y="0.375" width="55.25" height="31.25" rx="1.625" fill="#FF3535" stroke="black" stroke-width="0.75"/>
<path d="M11.72 15.63H16.1V17.82H11.72V15.63ZM21.4739 10.5V21H18.5039V12.795H16.5539V10.5H21.4739ZM27.688 21.21C26.788 21.21 25.988 20.995 25.288 20.565C24.588 20.135 24.038 19.51 23.638 18.69C23.248 17.86 23.053 16.88 23.053 15.75C23.053 14.62 23.248 13.645 23.638 12.825C24.038 11.995 24.588 11.365 25.288 10.935C25.988 10.505 26.788 10.29 27.688 10.29C28.578 10.29 29.373 10.505 30.073 10.935C30.773 11.365 31.318 11.995 31.708 12.825C32.108 13.645 32.308 14.62 32.308 15.75C32.308 16.88 32.108 17.86 31.708 18.69C31.318 19.51 30.773 20.135 30.073 20.565C29.373 20.995 28.578 21.21 27.688 21.21ZM27.688 18.78C28.188 18.78 28.583 18.54 28.873 18.06C29.173 17.57 29.323 16.8 29.323 15.75C29.323 14.7 29.173 13.935 28.873 13.455C28.583 12.965 28.188 12.72 27.688 12.72C27.178 12.72 26.773 12.965 26.473 13.455C26.183 13.935 26.038 14.7 26.038 15.75C26.038 16.8 26.183 17.57 26.473 18.06C26.773 18.54 27.178 18.78 27.688 18.78ZM35.8265 16.185C35.0365 16.185 34.3915 15.925 33.8915 15.405C33.3915 14.885 33.1415 14.175 33.1415 13.275C33.1415 12.685 33.2565 12.17 33.4865 11.73C33.7165 11.29 34.0315 10.955 34.4315 10.725C34.8415 10.485 35.3065 10.365 35.8265 10.365C36.6265 10.365 37.2765 10.63 37.7765 11.16C38.2765 11.68 38.5265 12.385 38.5265 13.275C38.5265 14.175 38.2765 14.885 37.7765 15.405C37.2765 15.925 36.6265 16.185 35.8265 16.185ZM42.0365 10.5H44.1965L37.0265 21H34.8665L42.0365 10.5ZM35.8265 14.76C36.0965 14.76 36.3115 14.64 36.4715 14.4C36.6315 14.16 36.7115 13.785 36.7115 13.275C36.7115 12.765 36.6315 12.39 36.4715 12.15C36.3115 11.91 36.0965 11.79 35.8265 11.79C35.5665 11.79 35.3515 11.915 35.1815 12.165C35.0215 12.405 34.9415 12.775 34.9415 13.275C34.9415 13.775 35.0215 14.15 35.1815 14.4C35.3515 14.64 35.5665 14.76 35.8265 14.76ZM43.2365 21.135C42.4365 21.135 41.7865 20.875 41.2865 20.355C40.7965 19.835 40.5515 19.125 40.5515 18.225C40.5515 17.335 40.8015 16.63 41.3015 16.11C41.8015 15.58 42.4465 15.315 43.2365 15.315C44.0365 15.315 44.6865 15.58 45.1865 16.11C45.6865 16.63 45.9365 17.335 45.9365 18.225C45.9365 19.125 45.6865 19.835 45.1865 20.355C44.6865 20.875 44.0365 21.135 43.2365 21.135ZM43.2365 19.71C43.5065 19.71 43.7215 19.59 43.8815 19.35C44.0415 19.11 44.1215 18.735 44.1215 18.225C44.1215 17.715 44.0415 17.34 43.8815 17.1C43.7215 16.86 43.5065 16.74 43.2365 16.74C42.9665 16.74 42.7515 16.86 42.5915 17.1C42.4315 17.34 42.3515 17.715 42.3515 18.225C42.3515 18.735 42.4315 19.11 42.5915 19.35C42.7515 19.59 42.9665 19.71 43.2365 19.71Z" fill="white"/>
</svg>
