<svg width="33" height="33" viewBox="0 0 33 33" fill="none" xmlns="http://www.w3.org/2000/svg">
<path d="M16.3555 21.2148C15.4875 21.2148 14.7814 21.921 14.7814 22.789C14.7814 23.657 15.4876 24.3632 16.3555 24.3632C17.2235 24.3632 17.9297 23.657 17.9297 22.789C17.9297 21.921 17.2236 21.2148 16.3555 21.2148ZM16.3555 23.1523C16.1552 23.1523 15.9922 22.9894 15.9922 22.789C15.9922 22.5887 16.1552 22.4257 16.3555 22.4257C16.5559 22.4257 16.7188 22.5887 16.7188 22.789C16.7188 22.9894 16.5559 23.1523 16.3555 23.1523Z" fill="#02810E"/>
<path d="M21.2153 19.2087C21.1027 19.0961 20.9465 19.0312 20.7872 19.0312C20.628 19.0312 20.4718 19.096 20.3592 19.2087C20.2459 19.3213 20.1818 19.4775 20.1818 19.6367C20.1818 19.796 20.2459 19.9522 20.3592 20.0648C20.4718 20.1775 20.628 20.2422 20.7872 20.2422C20.9465 20.2422 21.1027 20.1775 21.2153 20.0648C21.3279 19.9522 21.3927 19.796 21.3927 19.6367C21.3927 19.4775 21.3279 19.3213 21.2153 19.2087Z" fill="#02810E"/>
<path d="M28.9719 9.71796H28.3191L19.7787 1.17751C19.5423 0.941075 19.1588 0.941075 18.9224 1.17751L16.7345 3.36549L7.98403 1.02082C7.66101 0.934173 7.32897 1.12592 7.24245 1.44894L5.02691 9.71796H3.54291C2.14076 9.71796 1 10.8587 1 12.2609C1 12.2945 1.00127 12.3278 1.00254 12.3611C1.00115 12.3778 1 12.3945 1 12.4115V28.9728C1 30.6419 2.35807 32 4.02729 32H25.7024C25.7118 32 25.721 31.9994 25.7304 31.9993H28.9718C30.641 31.9993 31.9991 30.6413 31.9991 28.972V12.7452C31.9991 11.0759 30.6411 9.71796 28.9719 9.71796ZM28.431 10.9288H28.9719C29.9735 10.9288 30.7882 11.7437 30.7882 12.7452V17.5976C30.7882 18.3889 30.1444 19.0326 29.3532 19.0326H28.7297V16.6201C28.7297 14.9719 27.4056 13.6281 25.7654 13.5944L28.431 10.9288ZM17.3436 4.4689C17.3437 4.46884 17.3437 4.46872 17.3438 4.46866L19.3506 2.46183L27.2681 10.3793L24.0743 13.5732H22.9666L24.4154 12.1243C24.6518 11.8879 24.6518 11.5045 24.4154 11.2681C23.9252 10.778 23.9252 9.98055 24.4154 9.49042C24.6518 9.25399 24.6518 8.8706 24.4154 8.63411L21.0957 5.31456C20.8593 5.07813 20.4759 5.07813 20.2394 5.31456C19.7493 5.80475 18.9518 5.80475 18.4617 5.31456C18.2253 5.07813 17.8419 5.07813 17.6055 5.31456L9.34688 13.5732H8.23923L17.3436 4.4689ZM15.5618 11.2985C14.1796 11.2985 13.0216 12.2744 12.7391 13.5732H11.0593L18.0867 6.54578C18.8624 7.00812 19.8388 7.00812 20.6144 6.54578L23.1841 9.11545C22.7218 9.89106 22.7218 10.8676 23.1841 11.6432L21.254 13.5732H18.3844C18.102 12.2744 16.944 11.2985 15.5618 11.2985ZM17.123 13.5732H14.0008C14.2465 12.951 14.8534 12.5094 15.5619 12.5094C16.2704 12.5094 16.8773 12.951 17.123 13.5732ZM7.59931 12.5006L9.20271 6.5166C9.64235 6.52368 10.0797 6.41143 10.4714 6.18516C10.8631 5.95902 11.1783 5.63746 11.3927 5.2522L14.1176 5.98233L10.1632 9.93671L7.59931 12.5006ZM8.25546 2.34716L15.7458 4.35417L15.1063 4.99366L11.1932 3.94511C11.038 3.90351 10.8728 3.92531 10.7338 4.0056C10.5947 4.08588 10.4932 4.21812 10.4517 4.37324C10.3647 4.69753 10.1568 4.9686 9.86601 5.13649C9.5752 5.30439 9.23644 5.34895 8.91209 5.26207C8.58919 5.17548 8.25709 5.36718 8.17057 5.69019L6.053 13.5928H5.24216L8.25546 2.34716ZM3.54291 10.9288H4.70232L3.98847 13.5928H3.54285C2.80835 13.5928 2.21088 12.9953 2.21088 12.2609C2.21094 11.5264 2.80854 10.9288 3.54291 10.9288ZM30.7882 28.972C30.7882 29.9736 29.9734 30.7883 28.9719 30.7883H28.1231C28.5038 30.2822 28.7297 29.6534 28.7297 28.9727V26.5402H29.093C29.7253 26.5402 30.3106 26.3366 30.7882 25.9923V28.972V28.972ZM30.7882 23.6341C30.7882 24.5688 30.0277 25.3293 29.093 25.3293H16.3785C14.9763 25.3293 13.8356 24.1886 13.8356 22.7864C13.8356 21.3842 14.9763 20.2435 16.3785 20.2435H18.2134C18.5478 20.2435 18.8189 19.9724 18.8189 19.638C18.8189 19.3037 18.5478 19.0326 18.2134 19.0326H16.3785C14.3086 19.0326 12.6247 20.7165 12.6247 22.7863C12.6247 24.8562 14.3086 26.5401 16.3785 26.5401H27.5188V28.9727C27.5188 29.9648 26.7191 30.7739 25.7305 30.789H5.11707V23.9709C5.11707 23.6365 4.846 23.3654 4.5116 23.3654C4.1772 23.3654 3.90613 23.6365 3.90613 23.9709V30.7846C2.96087 30.722 2.21088 29.9335 2.21088 28.9728V14.4258C2.59856 14.6652 3.05478 14.8037 3.54285 14.8037H25.7024C26.7039 14.8037 27.5187 15.6186 27.5187 16.6201V19.0326H23.141C22.8066 19.0326 22.5355 19.3037 22.5355 19.6381C22.5355 19.9724 22.8066 20.2436 23.141 20.2436H29.3532C29.882 20.2436 30.3746 20.087 30.7882 19.8188V23.6341V23.6341Z" fill="#02810E"/>
<path d="M4.94015 21.1813C4.82753 21.0688 4.67132 21.0039 4.51208 21.0039C4.35285 21.0039 4.19664 21.0687 4.08402 21.1813C3.9714 21.2939 3.90662 21.4501 3.90662 21.6094C3.90662 21.7686 3.9714 21.9248 4.08402 22.0374C4.19664 22.1501 4.35285 22.2148 4.51208 22.2148C4.67132 22.2148 4.82753 22.1501 4.94015 22.0374C5.05277 21.9248 5.11755 21.7686 5.11755 21.6094C5.11749 21.4501 5.05271 21.2939 4.94015 21.1813Z" fill="#02810E"/>
</svg>
