<svg width="33" height="33" viewBox="0 0 33 33" fill="none" xmlns="http://www.w3.org/2000/svg">
<path d="M21.5896 0C15.4395 0 10.436 5.0035 10.436 11.1535C10.436 12.5208 10.679 13.8494 11.1586 15.1112L0.493949 25.7766C0.341518 25.9291 0.255859 26.1358 0.255859 26.3513V32.1872C0.255859 32.6361 0.619762 33 1.06868 33H5.87791C6.09325 33 6.29976 32.9146 6.45219 32.7624L8.07286 31.1442C8.22562 30.9917 8.3114 30.7847 8.3114 30.569V28.5789H10.2989C10.7479 28.5789 11.1118 28.215 11.1118 27.7661V26.9694H11.9085C12.3573 26.9694 12.7213 26.6055 12.7213 26.1566V24.4076H14.4703C14.6858 24.4076 14.8925 24.322 15.045 24.1695L17.6309 21.5836C18.8929 22.0637 20.2217 22.307 21.5895 22.307C27.7395 22.307 32.743 17.3035 32.743 11.1534C32.7431 5.0035 27.7396 0 21.5896 0ZM21.5896 20.6813C20.2591 20.6813 18.9724 20.4126 17.765 19.8826C17.4528 19.7455 17.1012 19.8209 16.871 20.0453C16.8685 20.0477 16.866 20.0496 16.8636 20.0521L14.1337 22.782H11.9086C11.4597 22.782 11.0958 23.1459 11.0958 23.5948V25.3438H10.2991C9.85022 25.3438 9.48625 25.7077 9.48625 26.1566V26.9533H7.49865C7.0498 26.9533 6.68583 27.3172 6.68583 27.7661V30.2319L5.5416 31.3743H1.88162V30.2257L11.8165 20.2909C12.1022 20.0052 12.1022 19.542 11.8165 19.2563C11.5308 18.9707 11.0677 18.9706 10.7818 19.2563L1.88162 28.1566V26.6881L12.6902 15.8788C12.6926 15.8764 12.6945 15.8741 12.6967 15.8717C12.9212 15.6417 12.9968 15.2901 12.8598 14.9776C12.3302 13.7703 12.0619 12.4836 12.0619 11.1536C12.0619 5.89991 16.3361 1.6257 21.5898 1.6257C26.8435 1.6257 31.1176 5.89985 31.1176 11.1536C31.1174 16.4072 26.8432 20.6813 21.5896 20.6813Z" fill="#02810E"/>
<path d="M24.984 4.71484C23.3052 4.71484 21.9395 6.08061 21.9395 7.75942C21.9395 9.43823 23.3052 10.804 24.984 10.804C26.6628 10.804 28.0286 9.43823 28.0286 7.75942C28.0286 6.08061 26.6629 4.71484 24.984 4.71484ZM24.984 9.17835C24.2016 9.17835 23.5651 8.54181 23.5651 7.75942C23.5651 6.97702 24.2016 6.34048 24.984 6.34048C25.7664 6.34048 26.403 6.97702 26.403 7.75942C26.403 8.54181 25.7664 9.17835 24.984 9.17835Z" fill="#02810E"/>
</svg>
