<svg width="170" height="89" viewBox="0 0 170 89" fill="none" xmlns="http://www.w3.org/2000/svg">
<path d="M0 88.0244H3.80983V80.8373C3.80983 79.5556 3.80984 77.9782 4.49986 77.0531C5.18643 76.0474 6.41948 75.7205 7.10777 75.7205C10.3175 75.7205 10.3175 79.3157 10.3175 80.5645V88.0244H14.1256V79.858C14.1256 78.6848 14.1256 76.1559 12.666 74.4964C11.3499 72.9682 9.25566 72.3931 7.88253 72.3931C5.4735 72.3931 4.15571 73.6517 3.52621 74.2236V72.9124H0V88.0244Z" fill="#373540"/>
<path fill-rule="evenodd" clip-rule="evenodd" d="M31.4523 82.0897C31.5958 81.4911 31.6724 80.8797 31.6806 80.2658C31.6806 76.4586 28.4985 72.313 23.4556 72.313C18.5546 72.313 15.0889 76.2384 15.0889 80.5106C15.0889 84.9192 18.7569 88.5161 23.485 88.5161C27.2101 88.5161 30.2469 85.9857 31.1635 83.263H27.1513C26.4354 84.5151 25.1764 85.1937 23.485 85.1937C20.763 85.1937 19.2723 83.0707 19.0993 82.0881L31.4523 82.0897ZM18.9852 79.1765C19.7012 76.3716 22.0808 75.637 23.485 75.637C25.377 75.637 27.3519 76.7528 27.7826 79.1765H18.9852Z" fill="#373540"/>
<path d="M36.5712 88.0244H38.9162L41.9253 78.2245H41.9824L44.9656 88.0244H47.3141L53.13 72.9121H49.0625L46.1364 82.1435H46.081L43.4991 72.9121H40.4657L37.8578 82.1435H37.8008L34.9075 72.9121H30.8383L36.5712 88.0244Z" fill="#373540"/>
<path fill-rule="evenodd" clip-rule="evenodd" d="M60.5059 88.0248H63.9993V86.2011C64.9418 87.2099 66.2942 88.5161 69.3604 88.5161C75.1746 88.5161 77.2671 83.4259 77.2671 80.3994C77.2671 76.4035 74.1162 72.3962 69.2739 72.3962C67.4961 72.3962 65.6318 73.0255 64.314 74.2791V67.8794H60.5059V88.0248ZM64.084 80.2681C64.084 78.0631 65.8895 75.7217 68.8121 75.7217C71.2212 75.7217 73.4573 77.488 73.4573 80.4323C73.4573 83.3685 71.3647 85.1955 68.8709 85.1955C66.6366 85.1955 64.084 83.6165 64.084 80.2664V80.2681ZM95.0573 72.9137H91.5588V74.8246H91.5017C91.3858 74.6044 89.4645 72.3945 86.2305 72.3945C81.8188 72.3945 78.2632 75.7447 78.2632 80.3765C78.2632 85.4108 81.9036 88.5161 86.0022 88.5161C88.0049 88.5161 90.3568 87.5057 91.5588 86.1518V88.0248H95.0573V72.9137ZM91.4481 80.4323C91.4481 83.2354 89.4385 85.1939 86.8012 85.1939C84.0809 85.1939 82.0731 83.0974 82.0731 80.5391C82.0731 78.2799 83.6779 75.7217 86.8012 75.7217C89.0667 75.7217 91.4481 77.299 91.4481 80.4323Z" fill="#373540"/>
<path d="M100.892 67.8784H97.0822V88.0244H100.892V67.8784Z" fill="#373540"/>
<path fill-rule="evenodd" clip-rule="evenodd" d="M118.827 72.9124H115.334V74.8234H115.274C115.158 74.6032 113.236 72.3931 110.002 72.3931C105.586 72.3931 102.035 75.7436 102.035 80.3758C102.035 85.4105 105.676 88.5161 109.772 88.5161C111.779 88.5161 114.125 87.5056 115.332 86.1516V88.0248H118.827V72.9124ZM115.217 80.4316C115.217 83.2349 113.212 85.1936 110.575 85.1936C107.851 85.1936 105.847 83.0969 105.847 80.5384C105.847 78.279 107.452 75.7206 110.575 75.7206C112.84 75.7206 115.217 77.2981 115.217 80.4316Z" fill="#373540"/>
<path d="M120.856 88.0248H124.664V80.8375C124.664 79.5558 124.664 77.9783 125.356 77.0532C126.041 76.0475 127.277 75.7206 127.962 75.7206C131.17 75.7206 131.17 79.3159 131.17 80.5647V88.0248H134.984V79.8581C134.984 78.6849 134.984 76.156 133.519 74.4964C132.201 72.9682 130.112 72.3931 128.735 72.3931C126.326 72.3931 125.012 73.6518 124.379 74.2236V72.9124H120.856V88.0248ZM148.523 83.0969C147.52 84.6218 146.261 85.1936 145 85.1936C142.131 85.1936 140.213 83.0427 140.213 80.4563C140.213 77.3523 142.506 75.719 144.825 75.719C147.177 75.719 148.066 77.1617 148.523 77.9225H152.824C151.19 73.2657 146.83 72.3931 144.825 72.3931C140.441 72.3931 136.403 75.7748 136.403 80.3987C136.403 85.4105 140.782 88.5161 144.857 88.5161C148.582 88.5161 151.532 86.472 152.824 83.0969H148.523Z" fill="#373540"/>
<path fill-rule="evenodd" clip-rule="evenodd" d="M169.773 82.0896C169.886 81.6016 170 80.9723 170 80.2657C170 76.4585 166.821 72.3128 161.778 72.3128C156.877 72.3128 153.41 76.2383 153.41 80.5106C153.41 84.9192 157.078 88.5161 161.806 88.5161C165.529 88.5161 168.57 85.9857 169.485 83.263H165.474C164.756 84.5151 163.499 85.1937 161.808 85.1937C159.082 85.1937 157.593 83.0707 157.426 82.088L169.773 82.0896ZM157.308 79.1764C158.026 76.3715 160.404 75.6369 161.806 75.6369C163.7 75.6369 165.675 76.7527 166.104 79.1764H157.308ZM64.8569 37.9344L59.7639 46.2916L31.575 44.7847L34.3956 40.1297L64.8569 37.9344ZM85.236 11.305L87.7903 20.5282L47.7897 18.0306L50.6103 13.3772L85.236 11.305ZM58.7176 0L82.1334 0.016449L83.8992 6.32297L55.9005 4.65351L58.7176 0ZM56.6597 51.4889L52.5956 58.1306L23.4659 58.1601L26.2865 53.5099L56.6597 51.4889ZM107.799 33.5701L100.749 45.1823H107.464C110.577 45.1823 116.15 43.7068 117.866 39.497C119.457 35.5863 116.534 33.5651 114.495 33.5651L107.799 33.5701ZM114.523 22.4622L120.38 22.4294C124.278 22.408 128.344 20.7139 129.832 17.2764C131.203 14.0886 129.359 11.3708 126.916 11.3807L121.25 11.3741L114.523 22.4622ZM88.0116 20.5282L93.9261 10.7793L113.942 9.55836L114.641 8.37533L96.1242 7.14455L100.455 0H134.793C145.353 0 153.164 3.58549 150.128 14.1347C149.214 17.3306 144.922 25.3755 132.334 28.7457C135.006 29.048 141.66 31.8513 140.514 39.1141C138.477 51.9917 120.927 58.1224 111.166 58.1256L70.6244 58.1437L68.627 50.6919L89.8603 49.2689L90.5815 48.0892L67.5513 46.7582L65.0696 37.9229L97.8414 36.1055L98.5522 34.9356L39.6789 31.406L42.4995 26.7558L105.871 22.8451L106.589 21.6735L88.0099 20.5282" fill="#373540"/>
</svg>
