<svg width="20" height="20" viewBox="0 0 20 20" fill="none" xmlns="http://www.w3.org/2000/svg">
<g clip-path="url(#clip0)">
<path d="M19.2089 4.41271L10.1281 0.028877C10.0476 -0.00995117 9.95383 -0.00995117 9.87336 0.028877L0.792539 4.41271C0.691289 4.46157 0.626953 4.56411 0.626953 4.67653V15.323C0.626953 15.4354 0.691289 15.5379 0.792539 15.5868L9.87332 19.9706C9.91355 19.99 9.95715 19.9998 10.0007 19.9998C10.0443 19.9998 10.0878 19.99 10.1281 19.9706L19.2089 15.5868C19.3101 15.5379 19.3745 15.4354 19.3745 15.323V4.67657C19.3745 4.56407 19.3101 4.46161 19.2089 4.41271ZM10.0007 0.618057L18.4076 4.67653L15.9706 5.85302C15.9552 5.84126 15.9389 5.8304 15.921 5.82177L7.57121 1.79091L10.0007 0.618057ZM6.90957 2.12216L15.3043 6.17474L13.5849 7.00478L5.19371 2.95384L6.90957 2.12216ZM15.5007 6.73052V9.79872L13.8947 10.574V7.50583L15.5007 6.73052ZM18.7885 15.1392L10.2937 19.24V9.24423L12.32 8.26603C12.4657 8.19567 12.5268 8.02056 12.4564 7.87482C12.3861 7.72915 12.2109 7.66798 12.0652 7.73837L10.0007 8.73505L9.18836 8.34286C9.04262 8.27243 8.8675 8.3336 8.79715 8.47931C8.7268 8.62501 8.78789 8.80017 8.93359 8.87052L9.70773 9.24423V19.24L1.21289 15.1391V5.14329L7.68164 8.26614C7.72269 8.28599 7.76609 8.29536 7.80879 8.29536C7.91769 8.29536 8.0223 8.23435 8.07281 8.1297C8.14316 7.984 8.08207 7.80884 7.93637 7.73849L1.59379 4.67653L4.50414 3.27153L13.3047 7.52009C13.306 7.52189 13.3074 7.52349 13.3087 7.52524V11.0408C13.3087 11.1417 13.3606 11.2354 13.446 11.289C13.4934 11.3188 13.5475 11.3338 13.6018 11.3338C13.6452 11.3338 13.6887 11.3242 13.7291 11.3047L15.921 10.2465C16.0223 10.1976 16.0866 10.0951 16.0866 9.98267V6.44771L18.7885 5.14333V15.1392Z" fill="#02810E"/>
<path d="M3.62999 14.0026L2.29737 13.3593C2.15159 13.2889 1.97651 13.3501 1.90616 13.4958C1.83581 13.6415 1.8969 13.8166 2.04261 13.887L3.37522 14.5303C3.41628 14.5501 3.45968 14.5595 3.50237 14.5595C3.61128 14.5595 3.71589 14.4985 3.7664 14.3938C3.83679 14.2481 3.77569 14.073 3.62999 14.0026Z" fill="#02810E"/>
<path d="M4.85653 13.2044L2.2993 11.9699C2.15356 11.8995 1.97844 11.9606 1.90809 12.1064C1.83778 12.2521 1.89887 12.4272 2.04457 12.4976L4.6018 13.7321C4.64286 13.7519 4.68626 13.7613 4.72895 13.7613C4.83786 13.7613 4.94247 13.7003 4.99297 13.5957C5.06333 13.4499 5.00223 13.2747 4.85653 13.2044Z" fill="#02810E"/>
</g>
<defs>
<clipPath id="clip0">
<rect width="20" height="20" fill="white"/>
</clipPath>
</defs>
</svg>
