<svg width="20" height="20" viewBox="0 0 20 20" fill="none" xmlns="http://www.w3.org/2000/svg">
<path d="M15.8054 12.3892C15.396 11.9629 14.9021 11.7349 14.3787 11.7349C13.8595 11.7349 13.3614 11.9586 12.9351 12.385L11.6012 13.7146C11.4914 13.6555 11.3817 13.6007 11.2762 13.5458C11.1242 13.4698 10.9807 13.398 10.8583 13.3221C9.6088 12.5285 8.47332 11.4943 7.38426 10.1562C6.85662 9.48926 6.50205 8.92785 6.24456 8.358C6.59069 8.04141 6.9115 7.71216 7.22386 7.39558C7.34205 7.27739 7.46024 7.15497 7.57844 7.03678C8.46487 6.15034 8.46487 5.00219 7.57844 4.11576L6.42606 2.96339C6.29521 2.83253 6.16013 2.69745 6.0335 2.56238C5.78023 2.30067 5.5143 2.03051 5.23992 1.77725C4.83047 1.37202 4.34082 1.15674 3.82584 1.15674C3.31087 1.15674 2.81277 1.37202 2.39066 1.77725C2.38644 1.78147 2.38644 1.78147 2.38222 1.78569L0.947028 3.23354C0.406722 3.77384 0.0985794 4.43234 0.0310412 5.19637C-0.0702661 6.42894 0.292752 7.57709 0.571347 8.32845C1.25517 10.1731 2.27669 11.8826 3.80052 13.7146C5.64938 15.9223 7.87391 17.6656 10.415 18.894C11.3859 19.3541 12.6818 19.8986 14.1296 19.9915C14.2183 19.9957 14.3111 19.9999 14.3956 19.9999C15.3707 19.9999 16.1896 19.6495 16.8312 18.9531C16.8354 18.9446 16.8438 18.9404 16.8481 18.9319C17.0676 18.666 17.3208 18.4254 17.5868 18.1679C17.7683 17.9949 17.954 17.8133 18.1355 17.6234C18.5534 17.1886 18.7729 16.6821 18.7729 16.1629C18.7729 15.6395 18.5492 15.1371 18.1228 14.715L15.8054 12.3892ZM17.3166 16.834C17.3124 16.834 17.3124 16.8383 17.3166 16.834C17.152 17.0113 16.9831 17.1717 16.8016 17.349C16.5272 17.6107 16.2487 17.8851 15.9869 18.1933C15.5606 18.6491 15.0583 18.8644 14.3998 18.8644C14.3365 18.8644 14.2689 18.8644 14.2056 18.8602C12.9519 18.78 11.7869 18.2903 10.9131 17.8724C8.52397 16.7159 6.42606 15.0738 4.68273 12.9928C3.24333 11.2579 2.28091 9.65389 1.64352 7.93166C1.25095 6.8806 1.10743 6.0617 1.17075 5.28923C1.21296 4.79536 1.40291 4.38591 1.75327 4.03555L3.19267 2.59615C3.39951 2.40197 3.61901 2.29645 3.83429 2.29645C4.10022 2.29645 4.3155 2.45685 4.45057 2.59193C4.45479 2.59615 4.45901 2.60037 4.46324 2.60459C4.72073 2.84519 4.96555 3.09424 5.22304 3.36017C5.3539 3.49525 5.48897 3.63033 5.62405 3.76962L6.77642 4.92199C7.22386 5.36943 7.22386 5.78311 6.77642 6.23055C6.65401 6.35296 6.53581 6.47537 6.4134 6.59356C6.05883 6.95658 5.72114 7.29427 5.3539 7.62352C5.34545 7.63196 5.33701 7.63618 5.33279 7.64463C4.96977 8.00764 5.03731 8.36222 5.11329 8.60282C5.11751 8.61549 5.12173 8.62815 5.12595 8.64081C5.42566 9.36685 5.84777 10.0507 6.48938 10.8654L6.4936 10.8696C7.65864 12.3048 8.88699 13.4234 10.242 14.2803C10.415 14.39 10.5923 14.4786 10.7612 14.5631C10.9131 14.6391 11.0567 14.7108 11.1791 14.7868C11.1959 14.7952 11.2128 14.8079 11.2297 14.8163C11.3732 14.8881 11.5083 14.9219 11.6476 14.9219C11.998 14.9219 12.2175 14.7024 12.2892 14.6306L13.7329 13.187C13.8764 13.0435 14.1043 12.8704 14.3702 12.8704C14.632 12.8704 14.8472 13.035 14.9781 13.1785C14.9823 13.1828 14.9823 13.1828 14.9865 13.187L17.3124 15.5128C17.7472 15.9434 17.7472 16.3866 17.3166 16.834Z" fill="#02810E"/>
<path d="M10.807 4.75741C11.9129 4.94314 12.9175 5.46656 13.7195 6.26857C14.5216 7.07059 15.0408 8.07522 15.2307 9.18116C15.2771 9.45975 15.5177 9.65392 15.7921 9.65392C15.8259 9.65392 15.8554 9.6497 15.8892 9.64548C16.2016 9.59483 16.4084 9.29935 16.3577 8.98699C16.1298 7.64888 15.4966 6.42898 14.53 5.46234C13.5634 4.49569 12.3434 3.86252 11.0053 3.63458C10.693 3.58393 10.4017 3.79076 10.3468 4.09891C10.292 4.40705 10.4946 4.70675 10.807 4.75741Z" fill="#02810E"/>
<path d="M19.9756 8.82242C19.6 6.61899 18.5616 4.61395 16.966 3.01836C15.3704 1.42277 13.3653 0.384369 11.1619 0.00868773C10.8538 -0.0461871 10.5625 0.16487 10.5076 0.473013C10.457 0.785377 10.6638 1.07664 10.9762 1.13151C12.9432 1.46498 14.7372 2.39785 16.164 3.82038C17.5907 5.24712 18.5193 7.0411 18.8528 9.00815C18.8992 9.28675 19.1399 9.48092 19.4142 9.48092C19.448 9.48092 19.4775 9.4767 19.5113 9.47248C19.8195 9.42605 20.0305 9.13057 19.9756 8.82242Z" fill="#02810E"/>
</svg>
