<svg width="169" height="59" viewBox="0 0 169 59" fill="none" xmlns="http://www.w3.org/2000/svg">
<path d="M18.7604 58.2268C14.2189 58.2425 9.79216 56.8687 6.13238 54.3079C5.56863 53.8247 4.10288 52.4289 3.5955 51.8384C2.38072 50.4079 1.42779 48.7926 0.77675 47.0605C-0.856919 40.4507 0.10559 33.5001 3.48275 27.5195C7.64471 19.6296 13.0434 12.3888 19.4933 6.0458C20.6772 4.75738 24.2852 0.945801 24.3415 0.945801L23.8905 1.69738C21.762 5.05982 20.0948 8.66815 18.9295 12.4342C17.2886 17.0465 17.4893 22.0728 19.4933 26.5532C20.8871 29.1226 23.0966 31.2079 25.8073 32.5121C32.0841 34.7566 38.9673 34.9455 45.3694 33.0489L107.72 17.3195L169 1.75106L50.2177 50.6037C43.7909 53.2342 42.0997 53.8784 38.9427 54.8984C32.4828 57.164 25.6441 58.2918 18.7604 58.2268Z" fill="#373540"/>
</svg>
