<svg width="56" height="32" viewBox="0 0 56 32" fill="none" xmlns="http://www.w3.org/2000/svg">
<rect width="56" height="32" rx="2" fill="#151A1D"/>
<path d="M29.35 10.8V15H28.552L26.458 12.45V15H25.498V10.8H26.302L28.39 13.35V10.8H29.35ZM30.2777 11.772H31.2137V15H30.2777V11.772ZM30.7457 11.322C30.5737 11.322 30.4337 11.272 30.3257 11.172C30.2177 11.072 30.1637 10.948 30.1637 10.8C30.1637 10.652 30.2177 10.528 30.3257 10.428C30.4337 10.328 30.5737 10.278 30.7457 10.278C30.9177 10.278 31.0577 10.326 31.1657 10.422C31.2737 10.518 31.3277 10.638 31.3277 10.782C31.3277 10.938 31.2737 11.068 31.1657 11.172C31.0577 11.272 30.9177 11.322 30.7457 11.322ZM33.4684 13.734L33.0184 14.178V15H32.0824V10.548H33.0184V13.068L34.3864 11.772H35.5024L34.1584 13.14L35.6224 15H34.4884L33.4684 13.734ZM39.0647 13.398C39.0647 13.41 39.0587 13.494 39.0467 13.65H36.6047C36.6487 13.85 36.7527 14.008 36.9167 14.124C37.0807 14.24 37.2847 14.298 37.5287 14.298C37.6967 14.298 37.8447 14.274 37.9727 14.226C38.1047 14.174 38.2267 14.094 38.3387 13.986L38.8367 14.526C38.5327 14.874 38.0887 15.048 37.5047 15.048C37.1407 15.048 36.8187 14.978 36.5387 14.838C36.2587 14.694 36.0427 14.496 35.8907 14.244C35.7387 13.992 35.6627 13.706 35.6627 13.386C35.6627 13.07 35.7367 12.786 35.8847 12.534C36.0367 12.278 36.2427 12.08 36.5027 11.94C36.7667 11.796 37.0607 11.724 37.3847 11.724C37.7007 11.724 37.9867 11.792 38.2427 11.928C38.4987 12.064 38.6987 12.26 38.8427 12.516C38.9907 12.768 39.0647 13.062 39.0647 13.398ZM37.3907 12.432C37.1787 12.432 37.0007 12.492 36.8567 12.612C36.7127 12.732 36.6247 12.896 36.5927 13.104H38.1827C38.1507 12.9 38.0627 12.738 37.9187 12.618C37.7747 12.494 37.5987 12.432 37.3907 12.432ZM27.532 22.072C27.096 22.072 26.702 21.978 26.35 21.79C26.002 21.602 25.728 21.344 25.528 21.016C25.332 20.684 25.234 20.312 25.234 19.9C25.234 19.488 25.332 19.118 25.528 18.79C25.728 18.458 26.002 18.198 26.35 18.01C26.702 17.822 27.096 17.728 27.532 17.728C27.968 17.728 28.36 17.822 28.708 18.01C29.056 18.198 29.33 18.458 29.53 18.79C29.73 19.118 29.83 19.488 29.83 19.9C29.83 20.312 29.73 20.684 29.53 21.016C29.33 21.344 29.056 21.602 28.708 21.79C28.36 21.978 27.968 22.072 27.532 22.072ZM27.532 21.244C27.78 21.244 28.004 21.188 28.204 21.076C28.404 20.96 28.56 20.8 28.672 20.596C28.788 20.392 28.846 20.16 28.846 19.9C28.846 19.64 28.788 19.408 28.672 19.204C28.56 19 28.404 18.842 28.204 18.73C28.004 18.614 27.78 18.556 27.532 18.556C27.284 18.556 27.06 18.614 26.86 18.73C26.66 18.842 26.502 19 26.386 19.204C26.274 19.408 26.218 19.64 26.218 19.9C26.218 20.16 26.274 20.392 26.386 20.596C26.502 20.8 26.66 20.96 26.86 21.076C27.06 21.188 27.284 21.244 27.532 21.244ZM31.3885 19.198C31.5005 19.042 31.6505 18.924 31.8385 18.844C32.0305 18.764 32.2505 18.724 32.4985 18.724V19.588C32.3945 19.58 32.3245 19.576 32.2885 19.576C32.0205 19.576 31.8105 19.652 31.6585 19.804C31.5065 19.952 31.4305 20.176 31.4305 20.476V22H30.4945V18.772H31.3885V19.198ZM33.055 18.772H33.991V22H33.055V18.772ZM33.523 18.322C33.351 18.322 33.211 18.272 33.103 18.172C32.995 18.072 32.941 17.948 32.941 17.8C32.941 17.652 32.995 17.528 33.103 17.428C33.211 17.328 33.351 17.278 33.523 17.278C33.695 17.278 33.835 17.326 33.943 17.422C34.051 17.518 34.105 17.638 34.105 17.782C34.105 17.938 34.051 18.068 33.943 18.172C33.835 18.272 33.695 18.322 33.523 18.322ZM38.1897 18.772V21.46C38.1897 22.052 38.0357 22.492 37.7277 22.78C37.4197 23.068 36.9697 23.212 36.3777 23.212C36.0657 23.212 35.7697 23.174 35.4897 23.098C35.2097 23.022 34.9777 22.912 34.7937 22.768L35.1657 22.096C35.3017 22.208 35.4737 22.296 35.6817 22.36C35.8897 22.428 36.0977 22.462 36.3057 22.462C36.6297 22.462 36.8677 22.388 37.0197 22.24C37.1757 22.096 37.2537 21.876 37.2537 21.58V21.442C37.0097 21.71 36.6697 21.844 36.2337 21.844C35.9377 21.844 35.6657 21.78 35.4177 21.652C35.1737 21.52 34.9797 21.336 34.8357 21.1C34.6917 20.864 34.6197 20.592 34.6197 20.284C34.6197 19.976 34.6917 19.704 34.8357 19.468C34.9797 19.232 35.1737 19.05 35.4177 18.922C35.6657 18.79 35.9377 18.724 36.2337 18.724C36.7017 18.724 37.0577 18.878 37.3017 19.186V18.772H38.1897ZM36.4197 21.076C36.6677 21.076 36.8697 21.004 37.0257 20.86C37.1857 20.712 37.2657 20.52 37.2657 20.284C37.2657 20.048 37.1857 19.858 37.0257 19.714C36.8697 19.566 36.6677 19.492 36.4197 19.492C36.1717 19.492 35.9677 19.566 35.8077 19.714C35.6477 19.858 35.5677 20.048 35.5677 20.284C35.5677 20.52 35.6477 20.712 35.8077 20.86C35.9677 21.004 36.1717 21.076 36.4197 21.076ZM39.0609 18.772H39.9969V22H39.0609V18.772ZM39.5289 18.322C39.3569 18.322 39.2169 18.272 39.1089 18.172C39.0009 18.072 38.9469 17.948 38.9469 17.8C38.9469 17.652 39.0009 17.528 39.1089 17.428C39.2169 17.328 39.3569 17.278 39.5289 17.278C39.7009 17.278 39.8409 17.326 39.9489 17.422C40.0569 17.518 40.1109 17.638 40.1109 17.782C40.1109 17.938 40.0569 18.068 39.9489 18.172C39.8409 18.272 39.7009 18.322 39.5289 18.322ZM42.8276 18.724C43.2276 18.724 43.5496 18.844 43.7936 19.084C44.0416 19.324 44.1656 19.68 44.1656 20.152V22H43.2296V20.296C43.2296 20.04 43.1736 19.85 43.0616 19.726C42.9496 19.598 42.7876 19.534 42.5756 19.534C42.3396 19.534 42.1516 19.608 42.0116 19.756C41.8716 19.9 41.8016 20.116 41.8016 20.404V22H40.8656V18.772H41.7596V19.15C41.8836 19.014 42.0376 18.91 42.2216 18.838C42.4056 18.762 42.6076 18.724 42.8276 18.724ZM46.316 18.724C46.816 18.724 47.2 18.844 47.468 19.084C47.736 19.32 47.87 19.678 47.87 20.158V22H46.994V21.598C46.818 21.898 46.49 22.048 46.01 22.048C45.762 22.048 45.546 22.006 45.362 21.922C45.182 21.838 45.044 21.722 44.948 21.574C44.852 21.426 44.804 21.258 44.804 21.07C44.804 20.77 44.916 20.534 45.14 20.362C45.368 20.19 45.718 20.104 46.19 20.104H46.934C46.934 19.9 46.872 19.744 46.748 19.636C46.624 19.524 46.438 19.468 46.19 19.468C46.018 19.468 45.848 19.496 45.68 19.552C45.516 19.604 45.376 19.676 45.26 19.768L44.924 19.114C45.1 18.99 45.31 18.894 45.554 18.826C45.802 18.758 46.056 18.724 46.316 18.724ZM46.244 21.418C46.404 21.418 46.546 21.382 46.67 21.31C46.794 21.234 46.882 21.124 46.934 20.98V20.65H46.292C45.908 20.65 45.716 20.776 45.716 21.028C45.716 21.148 45.762 21.244 45.854 21.316C45.95 21.384 46.08 21.418 46.244 21.418ZM48.7172 17.548H49.6532V22H48.7172V17.548Z" fill="white"/>
<path d="M7.55412 18.9998C7.1779 19.0011 6.81118 18.8812 6.50801 18.6577C6.46131 18.6155 6.33988 18.4937 6.29785 18.4422C6.19722 18.3173 6.11828 18.1763 6.06435 18.0251C5.92901 17.4482 6.00875 16.8415 6.28851 16.3195C6.63329 15.6308 7.08051 14.9988 7.61483 14.4452C7.7129 14.3327 8.01179 14 8.01646 14L7.9791 14.0656C7.80277 14.3591 7.66465 14.674 7.56813 15.0028C7.43219 15.4054 7.44882 15.8441 7.61483 16.2351C7.73029 16.4594 7.91333 16.6414 8.13788 16.7553C8.65785 16.9512 9.22806 16.9677 9.75841 16.8021L14.9236 15.4292L20 14.0703L10.16 18.3344C9.62765 18.564 9.48755 18.6202 9.22602 18.7092C8.69088 18.907 8.12436 19.0054 7.55412 18.9998Z" fill="white"/>
</svg>
