<svg width="56" height="32" viewBox="0 0 56 32" fill="none" xmlns="http://www.w3.org/2000/svg">
<rect width="56" height="32" rx="2" fill="#0070BB"/>
<path d="M28.264 14.1H26.314L25.942 15H24.946L26.818 10.8H27.778L29.656 15H28.636L28.264 14.1ZM27.958 13.362L27.292 11.754L26.626 13.362H27.958ZM33.2845 10.548V15H32.3905V14.628C32.1585 14.908 31.8225 15.048 31.3825 15.048C31.0785 15.048 30.8025 14.98 30.5545 14.844C30.3105 14.708 30.1185 14.514 29.9785 14.262C29.8385 14.01 29.7685 13.718 29.7685 13.386C29.7685 13.054 29.8385 12.762 29.9785 12.51C30.1185 12.258 30.3105 12.064 30.5545 11.928C30.8025 11.792 31.0785 11.724 31.3825 11.724C31.7945 11.724 32.1165 11.854 32.3485 12.114V10.548H33.2845ZM31.5445 14.28C31.7805 14.28 31.9765 14.2 32.1325 14.04C32.2885 13.876 32.3665 13.658 32.3665 13.386C32.3665 13.114 32.2885 12.898 32.1325 12.738C31.9765 12.574 31.7805 12.492 31.5445 12.492C31.3045 12.492 31.1065 12.574 30.9505 12.738C30.7945 12.898 30.7165 13.114 30.7165 13.386C30.7165 13.658 30.7945 13.876 30.9505 14.04C31.1065 14.2 31.3045 14.28 31.5445 14.28ZM34.1508 11.772H35.0868V15H34.1508V11.772ZM34.6188 11.322C34.4468 11.322 34.3068 11.272 34.1988 11.172C34.0908 11.072 34.0368 10.948 34.0368 10.8C34.0368 10.652 34.0908 10.528 34.1988 10.428C34.3068 10.328 34.4468 10.278 34.6188 10.278C34.7908 10.278 34.9308 10.326 35.0388 10.422C35.1468 10.518 35.2008 10.638 35.2008 10.782C35.2008 10.938 35.1468 11.068 35.0388 11.172C34.9308 11.272 34.7908 11.322 34.6188 11.322ZM39.2434 10.548V15H38.3494V14.628C38.1174 14.908 37.7814 15.048 37.3414 15.048C37.0374 15.048 36.7614 14.98 36.5134 14.844C36.2694 14.708 36.0774 14.514 35.9374 14.262C35.7974 14.01 35.7274 13.718 35.7274 13.386C35.7274 13.054 35.7974 12.762 35.9374 12.51C36.0774 12.258 36.2694 12.064 36.5134 11.928C36.7614 11.792 37.0374 11.724 37.3414 11.724C37.7534 11.724 38.0754 11.854 38.3074 12.114V10.548H39.2434ZM37.5034 14.28C37.7394 14.28 37.9354 14.2 38.0914 14.04C38.2474 13.876 38.3254 13.658 38.3254 13.386C38.3254 13.114 38.2474 12.898 38.0914 12.738C37.9354 12.574 37.7394 12.492 37.5034 12.492C37.2634 12.492 37.0654 12.574 36.9094 12.738C36.7534 12.898 36.6754 13.114 36.6754 13.386C36.6754 13.658 36.7534 13.876 36.9094 14.04C37.0654 14.2 37.2634 14.28 37.5034 14.28ZM41.4117 11.724C41.9117 11.724 42.2957 11.844 42.5637 12.084C42.8317 12.32 42.9657 12.678 42.9657 13.158V15H42.0897V14.598C41.9137 14.898 41.5857 15.048 41.1057 15.048C40.8577 15.048 40.6417 15.006 40.4577 14.922C40.2777 14.838 40.1397 14.722 40.0437 14.574C39.9477 14.426 39.8997 14.258 39.8997 14.07C39.8997 13.77 40.0117 13.534 40.2357 13.362C40.4637 13.19 40.8137 13.104 41.2857 13.104H42.0297C42.0297 12.9 41.9677 12.744 41.8437 12.636C41.7197 12.524 41.5337 12.468 41.2857 12.468C41.1137 12.468 40.9437 12.496 40.7757 12.552C40.6117 12.604 40.4717 12.676 40.3557 12.768L40.0197 12.114C40.1957 11.99 40.4057 11.894 40.6497 11.826C40.8977 11.758 41.1517 11.724 41.4117 11.724ZM41.3397 14.418C41.4997 14.418 41.6417 14.382 41.7657 14.31C41.8897 14.234 41.9777 14.124 42.0297 13.98V13.65H41.3877C41.0037 13.65 40.8117 13.776 40.8117 14.028C40.8117 14.148 40.8577 14.244 40.9497 14.316C41.0457 14.384 41.1757 14.418 41.3397 14.418ZM44.8989 15.048C44.6309 15.048 44.3689 15.016 44.1129 14.952C43.8569 14.884 43.6529 14.8 43.5009 14.7L43.8129 14.028C43.9569 14.12 44.1309 14.196 44.3349 14.256C44.5389 14.312 44.7389 14.34 44.9349 14.34C45.3309 14.34 45.5289 14.242 45.5289 14.046C45.5289 13.954 45.4749 13.888 45.3669 13.848C45.2589 13.808 45.0929 13.774 44.8689 13.746C44.6049 13.706 44.3869 13.66 44.2149 13.608C44.0429 13.556 43.8929 13.464 43.7649 13.332C43.6409 13.2 43.5789 13.012 43.5789 12.768C43.5789 12.564 43.6369 12.384 43.7529 12.228C43.8729 12.068 44.0449 11.944 44.2689 11.856C44.4969 11.768 44.7649 11.724 45.0729 11.724C45.3009 11.724 45.5269 11.75 45.7509 11.802C45.9789 11.85 46.1669 11.918 46.3149 12.006L46.0029 12.672C45.7189 12.512 45.4089 12.432 45.0729 12.432C44.8729 12.432 44.7229 12.46 44.6229 12.516C44.5229 12.572 44.4729 12.644 44.4729 12.732C44.4729 12.832 44.5269 12.902 44.6349 12.942C44.7429 12.982 44.9149 13.02 45.1509 13.056C45.4149 13.1 45.6309 13.148 45.7989 13.2C45.9669 13.248 46.1129 13.338 46.2369 13.47C46.3609 13.602 46.4229 13.786 46.4229 14.022C46.4229 14.222 46.3629 14.4 46.2429 14.556C46.1229 14.712 45.9469 14.834 45.7149 14.922C45.4869 15.006 45.2149 15.048 44.8989 15.048ZM27.532 22.072C27.096 22.072 26.702 21.978 26.35 21.79C26.002 21.602 25.728 21.344 25.528 21.016C25.332 20.684 25.234 20.312 25.234 19.9C25.234 19.488 25.332 19.118 25.528 18.79C25.728 18.458 26.002 18.198 26.35 18.01C26.702 17.822 27.096 17.728 27.532 17.728C27.968 17.728 28.36 17.822 28.708 18.01C29.056 18.198 29.33 18.458 29.53 18.79C29.73 19.118 29.83 19.488 29.83 19.9C29.83 20.312 29.73 20.684 29.53 21.016C29.33 21.344 29.056 21.602 28.708 21.79C28.36 21.978 27.968 22.072 27.532 22.072ZM27.532 21.244C27.78 21.244 28.004 21.188 28.204 21.076C28.404 20.96 28.56 20.8 28.672 20.596C28.788 20.392 28.846 20.16 28.846 19.9C28.846 19.64 28.788 19.408 28.672 19.204C28.56 19 28.404 18.842 28.204 18.73C28.004 18.614 27.78 18.556 27.532 18.556C27.284 18.556 27.06 18.614 26.86 18.73C26.66 18.842 26.502 19 26.386 19.204C26.274 19.408 26.218 19.64 26.218 19.9C26.218 20.16 26.274 20.392 26.386 20.596C26.502 20.8 26.66 20.96 26.86 21.076C27.06 21.188 27.284 21.244 27.532 21.244ZM31.3885 19.198C31.5005 19.042 31.6505 18.924 31.8385 18.844C32.0305 18.764 32.2505 18.724 32.4985 18.724V19.588C32.3945 19.58 32.3245 19.576 32.2885 19.576C32.0205 19.576 31.8105 19.652 31.6585 19.804C31.5065 19.952 31.4305 20.176 31.4305 20.476V22H30.4945V18.772H31.3885V19.198ZM33.055 18.772H33.991V22H33.055V18.772ZM33.523 18.322C33.351 18.322 33.211 18.272 33.103 18.172C32.995 18.072 32.941 17.948 32.941 17.8C32.941 17.652 32.995 17.528 33.103 17.428C33.211 17.328 33.351 17.278 33.523 17.278C33.695 17.278 33.835 17.326 33.943 17.422C34.051 17.518 34.105 17.638 34.105 17.782C34.105 17.938 34.051 18.068 33.943 18.172C33.835 18.272 33.695 18.322 33.523 18.322ZM38.1897 18.772V21.46C38.1897 22.052 38.0357 22.492 37.7277 22.78C37.4197 23.068 36.9697 23.212 36.3777 23.212C36.0657 23.212 35.7697 23.174 35.4897 23.098C35.2097 23.022 34.9777 22.912 34.7937 22.768L35.1657 22.096C35.3017 22.208 35.4737 22.296 35.6817 22.36C35.8897 22.428 36.0977 22.462 36.3057 22.462C36.6297 22.462 36.8677 22.388 37.0197 22.24C37.1757 22.096 37.2537 21.876 37.2537 21.58V21.442C37.0097 21.71 36.6697 21.844 36.2337 21.844C35.9377 21.844 35.6657 21.78 35.4177 21.652C35.1737 21.52 34.9797 21.336 34.8357 21.1C34.6917 20.864 34.6197 20.592 34.6197 20.284C34.6197 19.976 34.6917 19.704 34.8357 19.468C34.9797 19.232 35.1737 19.05 35.4177 18.922C35.6657 18.79 35.9377 18.724 36.2337 18.724C36.7017 18.724 37.0577 18.878 37.3017 19.186V18.772H38.1897ZM36.4197 21.076C36.6677 21.076 36.8697 21.004 37.0257 20.86C37.1857 20.712 37.2657 20.52 37.2657 20.284C37.2657 20.048 37.1857 19.858 37.0257 19.714C36.8697 19.566 36.6677 19.492 36.4197 19.492C36.1717 19.492 35.9677 19.566 35.8077 19.714C35.6477 19.858 35.5677 20.048 35.5677 20.284C35.5677 20.52 35.6477 20.712 35.8077 20.86C35.9677 21.004 36.1717 21.076 36.4197 21.076ZM39.0609 18.772H39.9969V22H39.0609V18.772ZM39.5289 18.322C39.3569 18.322 39.2169 18.272 39.1089 18.172C39.0009 18.072 38.9469 17.948 38.9469 17.8C38.9469 17.652 39.0009 17.528 39.1089 17.428C39.2169 17.328 39.3569 17.278 39.5289 17.278C39.7009 17.278 39.8409 17.326 39.9489 17.422C40.0569 17.518 40.1109 17.638 40.1109 17.782C40.1109 17.938 40.0569 18.068 39.9489 18.172C39.8409 18.272 39.7009 18.322 39.5289 18.322ZM42.8276 18.724C43.2276 18.724 43.5496 18.844 43.7936 19.084C44.0416 19.324 44.1656 19.68 44.1656 20.152V22H43.2296V20.296C43.2296 20.04 43.1736 19.85 43.0616 19.726C42.9496 19.598 42.7876 19.534 42.5756 19.534C42.3396 19.534 42.1516 19.608 42.0116 19.756C41.8716 19.9 41.8016 20.116 41.8016 20.404V22H40.8656V18.772H41.7596V19.15C41.8836 19.014 42.0376 18.91 42.2216 18.838C42.4056 18.762 42.6076 18.724 42.8276 18.724ZM46.316 18.724C46.816 18.724 47.2 18.844 47.468 19.084C47.736 19.32 47.87 19.678 47.87 20.158V22H46.994V21.598C46.818 21.898 46.49 22.048 46.01 22.048C45.762 22.048 45.546 22.006 45.362 21.922C45.182 21.838 45.044 21.722 44.948 21.574C44.852 21.426 44.804 21.258 44.804 21.07C44.804 20.77 44.916 20.534 45.14 20.362C45.368 20.19 45.718 20.104 46.19 20.104H46.934C46.934 19.9 46.872 19.744 46.748 19.636C46.624 19.524 46.438 19.468 46.19 19.468C46.018 19.468 45.848 19.496 45.68 19.552C45.516 19.604 45.376 19.676 45.26 19.768L44.924 19.114C45.1 18.99 45.31 18.894 45.554 18.826C45.802 18.758 46.056 18.724 46.316 18.724ZM46.244 21.418C46.404 21.418 46.546 21.382 46.67 21.31C46.794 21.234 46.882 21.124 46.934 20.98V20.65H46.292C45.908 20.65 45.716 20.776 45.716 21.028C45.716 21.148 45.762 21.244 45.854 21.316C45.95 21.384 46.08 21.418 46.244 21.418ZM48.7172 17.548H49.6532V22H48.7172V17.548Z" fill="white"/>
<path d="M12.9475 10.8287C11.8494 12.0822 11.2752 14.1581 11.3463 16.21H14.54C14.6384 14.1165 14.0631 12.0494 12.9475 10.8287ZM6 13.4887C6.10828 14.5398 6.32703 15.3897 6.6825 16.21H10.5675C9.54266 14.67 7.99828 13.8442 6 13.4887ZM20 13.4975C17.9689 13.8059 16.4016 14.6744 15.31 16.21H19.265C19.6369 15.4006 19.8731 14.5245 20 13.4975ZM6.98 16.9975C7.08609 17.2283 7.26 17.517 7.40875 17.7237L18.5125 17.715C18.6744 17.4886 18.8198 17.2556 18.9325 16.9975H6.98ZM7.925 18.4587C8.15469 18.7628 8.34719 18.8864 8.63375 19.115H17.235C17.4756 18.9269 17.7283 18.7048 17.9525 18.4587H7.925ZM9.5525 19.7187C10.2864 20.1726 11.1472 20.4701 12.125 20.6725L12.0113 19.7187H9.5525ZM12.2475 19.7187C12.4367 20.1125 12.6806 20.4428 12.9563 20.76C13.2275 20.4373 13.4036 20.107 13.595 19.7187H12.2475ZM13.8837 19.7187L13.735 20.62C14.7172 20.4395 15.5823 20.154 16.3337 19.7187H13.8837Z" fill="white"/>
</svg>
