<svg width="56" height="32" viewBox="0 0 56 32" fill="none" xmlns="http://www.w3.org/2000/svg">
<rect width="56" height="32" rx="2" fill="#DC0019"/>
<path d="M43 7.37313C43 7.37313 42.1057 6.80781 39.2096 5.93919C36.6684 5.17542 34.7274 5 34.7274 5L34.737 9.52924C34.737 11.4436 32.088 13.4764 27.5639 13.4764H27.4344C22.9109 13.4764 20.2628 11.4436 20.2628 9.52924L20.2716 5C20.2716 5 18.3323 5.17532 15.7901 5.93919C12.8942 6.80781 12 7.37313 12 7.37313C12.2147 11.0056 19.1246 13.9984 27.4982 14H27.5002C35.8743 13.9984 42.786 11.0056 43 7.37313Z" fill="white"/>
<path d="M42.8168 19.0395C42.8168 19.0395 41.9279 19.7234 39.049 20.778C36.5211 21.7046 34.5933 21.9164 34.5933 21.9164L34.6029 16.4229C34.6029 14.1012 31.9695 11.6361 27.4724 11.6361L27.4091 11.6342H27.4071L27.3447 11.6361C22.8471 11.6361 20.2147 14.1012 20.2147 16.4229L20.2245 21.9164C20.2245 21.9164 18.2957 21.7046 15.7687 20.778C12.8907 19.7234 12 19.0395 12 19.0395C12.2134 14.6334 19.0842 11.0028 27.4092 11C35.7335 11.0028 42.6045 14.6334 42.8168 19.0395ZM13.4968 26.9882C12.7951 26.9882 12.7824 26.4558 12.7824 26.2501V25.281C12.7824 25.2206 12.7786 25.143 12.9034 25.143H13.2649C13.3838 25.143 13.3771 25.2247 13.3771 25.281V26.2501C13.3771 26.32 13.3888 26.5047 13.6441 26.5047H14.2522C14.5027 26.5047 14.5173 26.32 14.5173 26.2501V25.281C14.5173 25.2246 14.5093 25.143 14.6275 25.143H14.9939C15.1256 25.143 15.1137 25.2247 15.1137 25.281V26.2501C15.1137 26.4562 15.1001 26.9882 14.3974 26.9882H13.4968ZM16.8582 26.8697C16.6107 26.5376 16.2569 26.12 15.8963 25.6768V26.8579C15.8963 26.9103 15.909 26.9882 15.7852 26.9882H15.447C15.3252 26.9882 15.3389 26.9104 15.3389 26.8579V25.2785C15.3389 25.2242 15.334 25.1424 15.447 25.1424H16.1067C16.2929 25.1424 16.559 25.5154 16.7325 25.764C16.868 25.9505 17.1155 26.234 17.2822 26.4478V25.2784C17.2822 25.2241 17.2753 25.1423 17.3982 25.1423H17.7655C17.8825 25.1423 17.8759 25.2241 17.8759 25.2784V26.9876H17.1986C17.0531 26.9882 16.9907 26.9979 16.8582 26.8697ZM18.0999 26.9882V25.1448H19.7342C19.8337 25.1448 20.5052 25.1314 20.5052 25.8343C20.5052 26.5511 20.5822 26.9882 19.7479 26.9882H18.8669L18.6769 26.6036V26.9882H18.0999ZM19.6474 26.5026C19.9447 26.5026 19.9222 26.2191 19.9222 26.0888C19.9222 25.6537 19.7993 25.6359 19.6035 25.6359H18.6708V26.5023L19.6474 26.5026ZM21.1445 25.1565H22.6512C22.778 25.1565 22.7614 25.2396 22.7614 25.3934C22.7614 25.537 22.7809 25.6186 22.6512 25.6186H21.4603C21.4291 25.6186 21.32 25.6033 21.32 25.7139C21.32 25.8266 21.2995 25.8714 21.4185 25.8714H22.471L22.6407 26.2072C22.6649 26.2538 22.6621 26.2948 22.5695 26.2948H21.4797L21.3111 25.9664V26.4502C21.3111 26.5628 21.4115 26.5414 21.4407 26.5414H22.6775C22.8003 26.5414 22.7896 26.6269 22.7896 26.7667C22.7896 26.9163 22.8003 27 22.6775 27H21.1122C20.9816 27 20.7272 26.9594 20.7272 26.553V25.5372C20.7272 25.4303 20.7828 25.1565 21.1445 25.1565ZM23.1677 25.1446H24.8158C25.0369 25.1446 25.3586 25.1426 25.3586 25.7373C25.3586 26.1259 25.2758 26.1452 25.0983 26.2657C25.3955 26.3163 25.3556 26.6949 25.3556 26.891C25.3556 26.9902 25.3196 26.988 25.2903 26.988H24.8069C24.7055 26.988 24.7299 26.8289 24.7299 26.7454C24.7299 26.5201 24.6031 26.5296 24.5534 26.5296H23.842C23.7738 26.411 23.6413 26.1469 23.6413 26.1469V26.9122L23.5506 26.9879H23.0642L23.0155 26.9275V25.3038C23.0157 25.1894 23.0965 25.1446 23.1677 25.1446ZM24.4804 25.6323H23.7466C23.6237 25.6323 23.6297 25.6728 23.6297 25.7101V26.04H24.385C24.7514 26.04 24.7514 25.9487 24.7514 25.8536C24.7513 25.6633 24.7358 25.6323 24.4804 25.6323ZM28.1965 25.1565C28.3174 25.1565 28.4353 25.2108 28.5624 25.4575C28.6481 25.6342 29.2466 26.7124 29.3732 26.9377V26.9997H28.7496L28.57 26.6753H27.8115L27.6474 26.3042C27.6008 26.3799 27.3503 26.8539 27.2645 26.9995H26.6389V26.9589C26.7665 26.7199 27.6378 25.1561 27.6378 25.1561L28.1965 25.1565ZM28.0017 25.6674L27.6957 26.2209L27.724 26.2483H28.2912L28.3195 26.2209L28.0302 25.6655L28.0017 25.6674ZM29.7689 25.1446H31.418C31.6383 25.1446 31.9599 25.1426 31.9599 25.7373C31.9599 26.1259 31.8779 26.1452 31.7005 26.2657C31.9991 26.3163 31.9579 26.6949 31.9579 26.891C31.9579 26.9902 31.9208 26.988 31.8915 26.988H31.4081C31.3069 26.988 31.3321 26.8289 31.3321 26.7454C31.3321 26.5201 31.2055 26.5296 31.1568 26.5296H30.4436C30.3753 26.411 30.2425 26.1469 30.2425 26.1469V26.9122L30.1532 26.9879H29.6658L29.6171 26.9275V25.3038C29.617 25.1894 29.6988 25.1446 29.7689 25.1446ZM31.0828 25.6323H30.348C30.2252 25.6323 30.2312 25.6728 30.2312 25.7101V26.04H30.9875C31.3519 26.04 31.3519 25.9487 31.3519 25.8536C31.3517 25.6633 31.3383 25.6323 31.0828 25.6323ZM33.4004 26.9882C33.2778 26.759 32.9367 26.1257 32.7066 25.7101V26.8601C32.7066 26.9086 32.7145 26.9882 32.5956 26.9882H32.2623C32.1375 26.9882 32.1472 26.9086 32.1472 26.8601V25.2806C32.1472 25.2242 32.1394 25.1445 32.2623 25.1445H32.8394C32.9252 25.1445 33.0477 25.1252 33.1843 25.399C33.2878 25.6185 33.5058 26.0752 33.6581 26.316C33.81 26.0752 34.0343 25.6185 34.1375 25.399C34.272 25.1252 34.3908 25.1445 34.4885 25.1445H35.0635C35.1802 25.1445 35.1667 25.2242 35.1667 25.2806V26.8601C35.1667 26.9086 35.1844 26.9882 35.0635 26.9882H34.7262C34.6035 26.9882 34.6131 26.9086 34.6131 26.8601V25.7101C34.3792 26.1257 34.0419 26.7587 33.9135 26.9882H33.4004ZM35.907 26.992C35.3612 26.992 35.3847 26.4095 35.3847 26.0288C35.3847 25.6828 35.3456 25.141 36.0297 25.1352H37.2461C37.9323 25.1352 37.8873 25.6851 37.8873 26.0288C37.8873 26.4095 37.9148 26.992 37.3591 26.992H35.907ZM37.0063 26.518C37.2833 26.518 37.2733 26.2325 37.2733 26.0423C37.2733 25.8693 37.3143 25.6011 36.9535 25.6011H36.3417C35.9832 25.6011 36.0259 25.8693 36.0259 26.0423C36.0259 26.2327 36.0083 26.518 36.2852 26.518H37.0063ZM38.8015 26.9882C38.1018 26.9882 38.0882 26.4558 38.0882 26.2501V25.281C38.0882 25.2206 38.0845 25.143 38.2092 25.143H38.572C38.6908 25.143 38.6828 25.2247 38.6828 25.281V26.2501C38.6828 26.32 38.6946 26.5047 38.9498 26.5047H39.5579C39.8094 26.5047 39.8231 26.32 39.8231 26.2501V25.281C39.8231 25.2246 39.8173 25.143 39.9341 25.143H40.2985C40.431 25.143 40.4195 25.2247 40.4195 25.281V26.2501C40.4195 26.4562 40.4076 26.9882 39.7022 26.9882H38.8015ZM40.8091 25.1446H42.4584C42.6786 25.1446 43 25.1426 43 25.7373C43 26.1259 42.9163 26.1452 42.7389 26.2657C43.0373 26.3163 42.9983 26.6949 42.9983 26.891C42.9983 26.9902 42.9612 26.988 42.9319 26.988H42.4485C42.3491 26.988 42.3726 26.8289 42.3726 26.7454C42.3726 26.5201 42.2439 26.5296 42.1952 26.5296H41.4837C41.4156 26.411 41.2828 26.1469 41.2828 26.1469V26.9122L41.1912 26.9879H40.7058L40.6571 26.9275V25.3038C40.6571 25.1894 40.739 25.1446 40.8091 25.1446ZM42.1209 25.6323H41.388C41.2651 25.6323 41.2709 25.6728 41.2709 25.7101V26.04H42.0273C42.3917 26.04 42.3917 25.9487 42.3917 25.8536C42.392 25.6633 42.3763 25.6323 42.1209 25.6323Z" fill="white"/>
</svg>
