<svg width="56" height="32" viewBox="0 0 56 32" fill="none" xmlns="http://www.w3.org/2000/svg">
<rect width="56" height="32" rx="2" fill="#FFB800"/>
<path d="M15.0956 13.3699C12.5967 11.8496 13.7685 9.70372 13.8188 9.61452C13.8918 9.48759 13.8916 9.33143 13.8182 9.20472C13.7449 9.07801 13.6096 9 13.4632 9C12.1769 9 11.1696 9.36548 10.4694 10.0863C9.27282 11.318 9.32833 13.235 9.35201 14.0536C9.35463 14.1443 9.3569 14.2227 9.3569 14.2808C9.3569 14.8886 9.45441 15.4498 9.54046 15.9448C9.59591 16.2638 9.64379 16.5394 9.6523 16.756C9.6614 16.9878 9.61907 17.041 9.61727 17.0431C9.61123 17.0503 9.56091 17.0771 9.42488 17.0771C9.26973 17.0771 9.15535 17.0264 9.05402 16.9128C8.65819 16.4689 8.63082 15.257 8.7065 14.5976C8.72004 14.4814 8.68326 14.3649 8.60541 14.2775C8.52759 14.1901 8.41614 14.1401 8.29911 14.1401C7.23421 14.1401 6.43848 15.8816 6.43848 17.4387C6.43848 18.1706 6.5857 18.8877 6.87606 19.5698C7.15677 20.2293 7.55705 20.8245 8.06584 21.3389C9.12547 22.4101 10.5225 23 11.9998 23C13.4829 23 14.8796 22.4184 15.9326 21.3624C16.9829 20.3091 17.5613 18.9156 17.5613 17.4386C17.5613 15.554 16.0867 13.9729 15.0956 13.3699ZM11.9998 22.1797C9.42991 22.1797 7.25882 20.0086 7.25882 17.4386C7.25882 16.8136 7.40795 16.1576 7.66796 15.6387C7.72869 15.5175 7.79101 15.4135 7.8525 15.3259C7.85937 16.0026 7.96655 16.925 8.44111 17.4579C8.6971 17.7454 9.03728 17.8974 9.42491 17.8974C9.78702 17.8974 10.063 17.7876 10.245 17.5711C10.5854 17.1665 10.4809 16.5654 10.3487 15.8043C10.2683 15.3419 10.1772 14.8178 10.1772 14.2808C10.1772 14.2107 10.1748 14.1269 10.172 14.0298C10.1496 13.2544 10.1028 11.6409 11.0578 10.6579C11.4864 10.2166 12.0849 9.94804 12.8421 9.85613C12.7566 10.14 12.6829 10.5003 12.6801 10.9037C12.6738 11.7926 13.0138 13.0636 14.6693 14.0707C15.4703 14.558 16.741 15.9033 16.741 17.4386C16.741 20.0529 14.6141 22.1797 11.9998 22.1797Z" fill="black"/>
<path d="M26.522 11.742H24.62V15H23.45V10.8H26.528L26.522 11.742ZM27.7868 15.054C27.4388 15.054 27.1248 14.982 26.8448 14.838C26.5648 14.694 26.3448 14.494 26.1848 14.238C26.0288 13.982 25.9508 13.692 25.9508 13.368C25.9508 13.048 26.0288 12.76 26.1848 12.504C26.3448 12.248 26.5628 12.05 26.8388 11.91C27.1188 11.766 27.4348 11.694 27.7868 11.694C28.1388 11.694 28.4548 11.766 28.7348 11.91C29.0148 12.05 29.2328 12.248 29.3888 12.504C29.5448 12.756 29.6228 13.044 29.6228 13.368C29.6228 13.692 29.5448 13.982 29.3888 14.238C29.2328 14.494 29.0148 14.694 28.7348 14.838C28.4548 14.982 28.1388 15.054 27.7868 15.054ZM27.7868 14.148C27.9868 14.148 28.1508 14.08 28.2788 13.944C28.4068 13.804 28.4708 13.612 28.4708 13.368C28.4708 13.128 28.4068 12.94 28.2788 12.804C28.1508 12.668 27.9868 12.6 27.7868 12.6C27.5868 12.6 27.4228 12.668 27.2948 12.804C27.1668 12.94 27.1028 13.128 27.1028 13.368C27.1028 13.612 27.1668 13.804 27.2948 13.944C27.4228 14.08 27.5868 14.148 27.7868 14.148ZM32.2034 11.694C32.4994 11.694 32.7674 11.764 33.0074 11.904C33.2514 12.04 33.4434 12.236 33.5834 12.492C33.7274 12.744 33.7994 13.038 33.7994 13.374C33.7994 13.71 33.7274 14.006 33.5834 14.262C33.4434 14.514 33.2514 14.71 33.0074 14.85C32.7674 14.986 32.4994 15.054 32.2034 15.054C31.8234 15.054 31.5214 14.94 31.2974 14.712V16.164H30.1574V11.748H31.2434V12.072C31.4554 11.82 31.7754 11.694 32.2034 11.694ZM31.9634 14.148C32.1634 14.148 32.3274 14.08 32.4554 13.944C32.5834 13.804 32.6474 13.614 32.6474 13.374C32.6474 13.134 32.5834 12.946 32.4554 12.81C32.3274 12.67 32.1634 12.6 31.9634 12.6C31.7634 12.6 31.5994 12.67 31.4714 12.81C31.3434 12.946 31.2794 13.134 31.2794 13.374C31.2794 13.614 31.3434 13.804 31.4714 13.944C31.5994 14.08 31.7634 14.148 31.9634 14.148ZM37.3131 11.748V15H36.2991V14.118H35.7831L35.2071 15H34.0011L34.7211 13.962C34.5051 13.866 34.3391 13.736 34.2231 13.572C34.1111 13.404 34.0551 13.204 34.0551 12.972C34.0551 12.584 34.1991 12.284 34.4871 12.072C34.7751 11.856 35.1711 11.748 35.6751 11.748H37.3131ZM35.6991 12.648C35.3791 12.648 35.2191 12.77 35.2191 13.014C35.2191 13.142 35.2571 13.236 35.3331 13.296C35.4131 13.356 35.5331 13.386 35.6931 13.386H36.2991V12.648H35.6991ZM41.1933 11.748V15H40.0593V13.842C39.8193 13.966 39.5433 14.028 39.2313 14.028C38.7753 14.028 38.4333 13.926 38.2053 13.722C37.9773 13.518 37.8633 13.196 37.8633 12.756V11.748H39.0033V12.678C39.0033 12.858 39.0433 12.988 39.1233 13.068C39.2073 13.144 39.3313 13.182 39.4953 13.182C39.7033 13.182 39.8913 13.138 40.0593 13.05V11.748H41.1933ZM41.9641 11.748H43.0981V13.452L44.4601 11.748H45.5101V15H44.3701V13.29L43.0201 15H41.9641V11.748ZM46.2766 11.748H47.4106V13.452L48.7726 11.748H49.8226V15H48.6826V13.29L47.3326 15H46.2766V11.748ZM47.9746 11.436C47.5906 11.436 47.3066 11.356 47.1226 11.196C46.9426 11.032 46.8506 10.782 46.8466 10.446H47.5846C47.5886 10.586 47.6206 10.692 47.6806 10.764C47.7406 10.832 47.8366 10.866 47.9686 10.866C48.1006 10.866 48.1986 10.83 48.2626 10.758C48.3306 10.686 48.3646 10.582 48.3646 10.446H49.1146C49.1146 10.782 49.0206 11.032 48.8326 11.196C48.6486 11.356 48.3626 11.436 47.9746 11.436ZM26.288 19.654H25.244V22H24.11V19.654H23.06V18.748H26.288V19.654ZM28.2028 22.054C27.8548 22.054 27.5408 21.982 27.2608 21.838C26.9808 21.694 26.7608 21.494 26.6008 21.238C26.4448 20.982 26.3668 20.692 26.3668 20.368C26.3668 20.048 26.4448 19.76 26.6008 19.504C26.7608 19.248 26.9788 19.05 27.2548 18.91C27.5348 18.766 27.8508 18.694 28.2028 18.694C28.5548 18.694 28.8708 18.766 29.1508 18.91C29.4308 19.05 29.6488 19.248 29.8048 19.504C29.9608 19.756 30.0388 20.044 30.0388 20.368C30.0388 20.692 29.9608 20.982 29.8048 21.238C29.6488 21.494 29.4308 21.694 29.1508 21.838C28.8708 21.982 28.5548 22.054 28.2028 22.054ZM28.2028 21.148C28.4028 21.148 28.5668 21.08 28.6948 20.944C28.8228 20.804 28.8868 20.612 28.8868 20.368C28.8868 20.128 28.8228 19.94 28.6948 19.804C28.5668 19.668 28.4028 19.6 28.2028 19.6C28.0028 19.6 27.8388 19.668 27.7108 19.804C27.5828 19.94 27.5188 20.128 27.5188 20.368C27.5188 20.612 27.5828 20.804 27.7108 20.944C27.8388 21.08 28.0028 21.148 28.2028 21.148ZM33.1955 20.296C33.5675 20.42 33.7535 20.676 33.7535 21.064C33.7535 21.356 33.6395 21.586 33.4115 21.754C33.1835 21.918 32.8475 22 32.4035 22H30.5735V18.748H32.3195C32.7435 18.748 33.0715 18.822 33.3035 18.97C33.5395 19.118 33.6575 19.326 33.6575 19.594C33.6575 19.75 33.6175 19.888 33.5375 20.008C33.4575 20.128 33.3435 20.224 33.1955 20.296ZM31.5935 20.056H32.2175C32.4815 20.056 32.6135 19.958 32.6135 19.762C32.6135 19.574 32.4815 19.48 32.2175 19.48H31.5935V20.056ZM32.3015 21.262C32.5775 21.262 32.7155 21.162 32.7155 20.962C32.7155 20.762 32.5815 20.662 32.3135 20.662H31.5935V21.262H32.3015ZM35.6553 18.694C36.1953 18.694 36.6073 18.818 36.8913 19.066C37.1753 19.31 37.3173 19.686 37.3173 20.194V22H36.2553V21.58C36.0913 21.896 35.7713 22.054 35.2953 22.054C35.0433 22.054 34.8253 22.01 34.6413 21.922C34.4573 21.834 34.3173 21.716 34.2213 21.568C34.1293 21.416 34.0833 21.244 34.0833 21.052C34.0833 20.744 34.2013 20.506 34.4373 20.338C34.6733 20.166 35.0373 20.08 35.5293 20.08H36.1773C36.1573 19.736 35.9273 19.564 35.4873 19.564C35.3313 19.564 35.1733 19.59 35.0133 19.642C34.8533 19.69 34.7173 19.758 34.6053 19.846L34.2213 19.072C34.4013 18.952 34.6193 18.86 34.8753 18.796C35.1353 18.728 35.3953 18.694 35.6553 18.694ZM35.6133 21.334C35.7453 21.334 35.8613 21.302 35.9613 21.238C36.0613 21.174 36.1333 21.08 36.1773 20.956V20.674H35.6853C35.3533 20.674 35.1873 20.784 35.1873 21.004C35.1873 21.104 35.2253 21.184 35.3013 21.244C35.3773 21.304 35.4813 21.334 35.6133 21.334ZM40.0491 18.694C40.3451 18.694 40.6131 18.764 40.8531 18.904C41.0971 19.04 41.2891 19.236 41.4291 19.492C41.5731 19.744 41.6451 20.038 41.6451 20.374C41.6451 20.71 41.5731 21.006 41.4291 21.262C41.2891 21.514 41.0971 21.71 40.8531 21.85C40.6131 21.986 40.3451 22.054 40.0491 22.054C39.6691 22.054 39.3671 21.94 39.1431 21.712V23.164H38.0031V18.748H39.0891V19.072C39.3011 18.82 39.6211 18.694 40.0491 18.694ZM39.8091 21.148C40.0091 21.148 40.1731 21.08 40.3011 20.944C40.4291 20.804 40.4931 20.614 40.4931 20.374C40.4931 20.134 40.4291 19.946 40.3011 19.81C40.1731 19.67 40.0091 19.6 39.8091 19.6C39.6091 19.6 39.4451 19.67 39.3171 19.81C39.1891 19.946 39.1251 20.134 39.1251 20.374C39.1251 20.614 39.1891 20.804 39.3171 20.944C39.4451 21.08 39.6091 21.148 39.8091 21.148ZM42.0366 17.8H43.3926L43.1646 20.47H42.2586L42.0366 17.8ZM42.7146 22.054C42.5146 22.054 42.3506 21.994 42.2226 21.874C42.0946 21.75 42.0306 21.6 42.0306 21.424C42.0306 21.244 42.0946 21.096 42.2226 20.98C42.3506 20.864 42.5146 20.806 42.7146 20.806C42.9146 20.806 43.0766 20.864 43.2006 20.98C43.3286 21.096 43.3926 21.244 43.3926 21.424C43.3926 21.6 43.3286 21.75 43.2006 21.874C43.0726 21.994 42.9106 22.054 42.7146 22.054Z" fill="black"/>
</svg>
