<svg width="56" height="32" viewBox="0 0 56 32" fill="none" xmlns="http://www.w3.org/2000/svg">
<rect width="56" height="32" rx="2" fill="#64A1E8"/>
<path d="M24.496 15.084C24.056 15.084 23.66 14.992 23.308 14.808C22.96 14.62 22.686 14.36 22.486 14.028C22.286 13.696 22.186 13.32 22.186 12.9C22.186 12.48 22.286 12.104 22.486 11.772C22.686 11.44 22.96 11.182 23.308 10.998C23.66 10.81 24.056 10.716 24.496 10.716C24.88 10.716 25.226 10.784 25.534 10.92C25.842 11.056 26.098 11.252 26.302 11.508L25.546 12.192C25.274 11.864 24.944 11.7 24.556 11.7C24.328 11.7 24.124 11.75 23.944 11.85C23.768 11.95 23.63 12.092 23.53 12.276C23.434 12.456 23.386 12.664 23.386 12.9C23.386 13.136 23.434 13.346 23.53 13.53C23.63 13.71 23.768 13.85 23.944 13.95C24.124 14.05 24.328 14.1 24.556 14.1C24.944 14.1 25.274 13.936 25.546 13.608L26.302 14.292C26.098 14.548 25.842 14.744 25.534 14.88C25.226 15.016 24.88 15.084 24.496 15.084ZM28.2967 13.842H27.9127V15H26.7727V11.748H27.9127V12.948H28.3207L29.1187 11.748H30.3247L29.2327 13.308L30.3967 15H29.0527L28.2967 13.842ZM32.2829 15.054C31.9349 15.054 31.6209 14.982 31.3409 14.838C31.0609 14.694 30.8409 14.494 30.6809 14.238C30.5249 13.982 30.4469 13.692 30.4469 13.368C30.4469 13.048 30.5249 12.76 30.6809 12.504C30.8409 12.248 31.0589 12.05 31.3349 11.91C31.6149 11.766 31.9309 11.694 32.2829 11.694C32.6349 11.694 32.9509 11.766 33.2309 11.91C33.5109 12.05 33.7289 12.248 33.8849 12.504C34.0409 12.756 34.1189 13.044 34.1189 13.368C34.1189 13.692 34.0409 13.982 33.8849 14.238C33.7289 14.494 33.5109 14.694 33.2309 14.838C32.9509 14.982 32.6349 15.054 32.2829 15.054ZM32.2829 14.148C32.4829 14.148 32.6469 14.08 32.7749 13.944C32.9029 13.804 32.9669 13.612 32.9669 13.368C32.9669 13.128 32.9029 12.94 32.7749 12.804C32.6469 12.668 32.4829 12.6 32.2829 12.6C32.0829 12.6 31.9189 12.668 31.7909 12.804C31.6629 12.94 31.5989 13.128 31.5989 13.368C31.5989 13.612 31.6629 13.804 31.7909 13.944C31.9189 14.08 32.0829 14.148 32.2829 14.148ZM36.6995 11.694C36.9955 11.694 37.2635 11.764 37.5035 11.904C37.7475 12.04 37.9395 12.236 38.0795 12.492C38.2235 12.744 38.2955 13.038 38.2955 13.374C38.2955 13.71 38.2235 14.006 38.0795 14.262C37.9395 14.514 37.7475 14.71 37.5035 14.85C37.2635 14.986 36.9955 15.054 36.6995 15.054C36.3195 15.054 36.0175 14.94 35.7935 14.712V16.164H34.6535V11.748H35.7395V12.072C35.9515 11.82 36.2715 11.694 36.6995 11.694ZM36.4595 14.148C36.6595 14.148 36.8235 14.08 36.9515 13.944C37.0795 13.804 37.1435 13.614 37.1435 13.374C37.1435 13.134 37.0795 12.946 36.9515 12.81C36.8235 12.67 36.6595 12.6 36.4595 12.6C36.2595 12.6 36.0955 12.67 35.9675 12.81C35.8395 12.946 35.7755 13.134 35.7755 13.374C35.7755 13.614 35.8395 13.804 35.9675 13.944C36.0955 14.08 36.2595 14.148 36.4595 14.148ZM40.445 15.054C40.097 15.054 39.783 14.982 39.503 14.838C39.223 14.694 39.003 14.494 38.843 14.238C38.687 13.982 38.609 13.692 38.609 13.368C38.609 13.048 38.687 12.76 38.843 12.504C39.003 12.248 39.221 12.05 39.497 11.91C39.777 11.766 40.093 11.694 40.445 11.694C40.797 11.694 41.113 11.766 41.393 11.91C41.673 12.05 41.891 12.248 42.047 12.504C42.203 12.756 42.281 13.044 42.281 13.368C42.281 13.692 42.203 13.982 42.047 14.238C41.891 14.494 41.673 14.694 41.393 14.838C41.113 14.982 40.797 15.054 40.445 15.054ZM40.445 14.148C40.645 14.148 40.809 14.08 40.937 13.944C41.065 13.804 41.129 13.612 41.129 13.368C41.129 13.128 41.065 12.94 40.937 12.804C40.809 12.668 40.645 12.6 40.445 12.6C40.245 12.6 40.081 12.668 39.953 12.804C39.825 12.94 39.761 13.128 39.761 13.368C39.761 13.612 39.825 13.804 39.953 13.944C40.081 14.08 40.245 14.148 40.445 14.148ZM22.384 18.748H23.518V19.954H24.688V18.748H25.828V22H24.688V20.86H23.518V22H22.384V18.748ZM29.8909 20.38C29.8909 20.388 29.8849 20.482 29.8729 20.662H27.5089C27.5569 20.83 27.6489 20.96 27.7849 21.052C27.9249 21.14 28.0989 21.184 28.3069 21.184C28.4629 21.184 28.5969 21.162 28.7089 21.118C28.8249 21.074 28.9409 21.002 29.0569 20.902L29.6569 21.526C29.3409 21.878 28.8789 22.054 28.2709 22.054C27.8909 22.054 27.5569 21.982 27.2689 21.838C26.9809 21.694 26.7569 21.494 26.5969 21.238C26.4409 20.982 26.3629 20.692 26.3629 20.368C26.3629 20.048 26.4389 19.762 26.5909 19.51C26.7469 19.254 26.9609 19.054 27.2329 18.91C27.5049 18.766 27.8109 18.694 28.1509 18.694C28.4749 18.694 28.7689 18.762 29.0329 18.898C29.2969 19.03 29.5049 19.224 29.6569 19.48C29.8129 19.732 29.8909 20.032 29.8909 20.38ZM28.1569 19.504C27.9809 19.504 27.8329 19.554 27.7129 19.654C27.5969 19.754 27.5229 19.89 27.4909 20.062H28.8229C28.7909 19.89 28.7149 19.754 28.5949 19.654C28.4789 19.554 28.3329 19.504 28.1569 19.504ZM34.2495 19.036C34.5655 19.036 34.8395 19.098 35.0715 19.222C35.3035 19.342 35.4795 19.516 35.5995 19.744C35.7235 19.968 35.7855 20.23 35.7855 20.53C35.7855 20.838 35.7055 21.11 35.5455 21.346C35.3895 21.578 35.1715 21.76 34.8915 21.892C34.6155 22.02 34.3035 22.084 33.9555 22.084C33.3835 22.084 32.9275 21.906 32.5875 21.55C32.2475 21.194 32.0775 20.66 32.0775 19.948C32.0775 18.612 32.6695 17.832 33.8535 17.608L35.4315 17.308L35.5875 18.262L34.2195 18.52C33.8715 18.584 33.6155 18.688 33.4515 18.832C33.2915 18.972 33.1955 19.176 33.1635 19.444C33.4555 19.172 33.8175 19.036 34.2495 19.036ZM33.9615 21.22C34.1655 21.22 34.3255 21.154 34.4415 21.022C34.5615 20.89 34.6215 20.726 34.6215 20.53C34.6215 20.322 34.5615 20.16 34.4415 20.044C34.3215 19.924 34.1615 19.864 33.9615 19.864C33.7575 19.864 33.5935 19.924 33.4695 20.044C33.3495 20.164 33.2895 20.328 33.2895 20.536C33.2895 20.736 33.3515 20.9 33.4755 21.028C33.5995 21.156 33.7615 21.22 33.9615 21.22ZM39.6918 18.748L38.2878 22.132C38.1238 22.532 37.9238 22.812 37.6878 22.972C37.4518 23.136 37.1638 23.218 36.8238 23.218C36.6518 23.218 36.4778 23.19 36.3018 23.134C36.1298 23.082 35.9898 23.012 35.8818 22.924L36.2778 22.126C36.3418 22.186 36.4178 22.232 36.5058 22.264C36.5978 22.3 36.6898 22.318 36.7818 22.318C36.8898 22.318 36.9778 22.296 37.0458 22.252C37.1178 22.208 37.1778 22.138 37.2258 22.042L35.8338 18.748H37.0038L37.8018 20.734L38.6058 18.748H39.6918ZM43.6441 21.088V22.672H42.5881V22H40.5421V22.672H39.4801V21.088H39.6001C39.7961 21.084 39.9321 20.978 40.0081 20.77C40.0841 20.558 40.1301 20.262 40.1461 19.882L40.1881 18.748H43.1941V21.088H43.6441ZM41.1721 19.966C41.1601 20.258 41.1381 20.492 41.1061 20.668C41.0741 20.844 41.0141 20.984 40.9261 21.088H42.0541V19.654H41.1841L41.1721 19.966ZM47.428 20.38C47.428 20.388 47.422 20.482 47.41 20.662H45.046C45.094 20.83 45.186 20.96 45.322 21.052C45.462 21.14 45.636 21.184 45.844 21.184C46 21.184 46.134 21.162 46.246 21.118C46.362 21.074 46.478 21.002 46.594 20.902L47.194 21.526C46.878 21.878 46.416 22.054 45.808 22.054C45.428 22.054 45.094 21.982 44.806 21.838C44.518 21.694 44.294 21.494 44.134 21.238C43.978 20.982 43.9 20.692 43.9 20.368C43.9 20.048 43.976 19.762 44.128 19.51C44.284 19.254 44.498 19.054 44.77 18.91C45.042 18.766 45.348 18.694 45.688 18.694C46.012 18.694 46.306 18.762 46.57 18.898C46.834 19.03 47.042 19.224 47.194 19.48C47.35 19.732 47.428 20.032 47.428 20.38ZM45.694 19.504C45.518 19.504 45.37 19.554 45.25 19.654C45.134 19.754 45.06 19.89 45.028 20.062H46.36C46.328 19.89 46.252 19.754 46.132 19.654C46.016 19.554 45.87 19.504 45.694 19.504ZM50.8349 19.654H49.7909V22H48.6569V19.654H47.6069V18.748H50.8349V19.654Z" fill="black"/>
<circle cx="11" cy="16" r="5.75" fill="#64A1E8" stroke="black" stroke-width="0.5"/>
<path d="M13.5395 13.6924L8.69336 18.5385" stroke="black" stroke-width="0.5"/>
<path d="M8.69291 13.6924L13.5391 18.5385" stroke="black" stroke-width="0.5"/>
</svg>
