<svg width="30" height="30" viewBox="0 0 30 30" fill="none" xmlns="http://www.w3.org/2000/svg">
<g clip-path="url(#clip0)">
<path d="M14.8913 16.1648C14.9223 16.1648 14.9534 16.1648 14.9907 16.1648C15.0031 16.1648 15.0155 16.1648 15.028 16.1648C15.0466 16.1648 15.0714 16.1648 15.0901 16.1648C16.9103 16.1338 18.3827 15.4939 19.4699 14.27C21.8617 11.5738 21.4641 6.95175 21.4206 6.51066C21.2653 3.19942 19.6997 1.61524 18.4075 0.875958C17.4446 0.323048 16.3202 0.0248499 15.0652 0H15.0217C15.0155 0 15.0031 0 14.9969 0H14.9596C14.27 0 12.9157 0.111824 11.6173 0.851108C10.3127 1.59039 8.7223 3.17457 8.56699 6.51066C8.52351 6.95175 8.12591 11.5738 10.5177 14.27C11.5987 15.4939 13.071 16.1338 14.8913 16.1648ZM10.2257 6.66598C10.2257 6.64734 10.2319 6.6287 10.2319 6.61628C10.4369 2.16194 13.5991 1.68358 14.9534 1.68358H14.9783C14.9907 1.68358 15.0093 1.68358 15.028 1.68358C16.7053 1.72085 19.5569 2.40422 19.7494 6.61628C19.7494 6.63491 19.7494 6.65355 19.7557 6.66598C19.7619 6.70946 20.1967 10.9339 18.2212 13.158C17.4384 14.0402 16.3947 14.475 15.0217 14.4875C15.0093 14.4875 15.0031 14.4875 14.9907 14.4875C14.9783 14.4875 14.972 14.4875 14.9596 14.4875C13.5929 14.475 12.543 14.0402 11.7664 13.158C9.79706 10.9464 10.2195 6.70325 10.2257 6.66598Z" fill="#02810E"/>
<path d="M27.7573 23.8904C27.7573 23.8842 27.7573 23.8779 27.7573 23.8717C27.7573 23.822 27.7511 23.7723 27.7511 23.7164C27.7138 22.4863 27.6331 19.61 24.9368 18.6905C24.9182 18.6843 24.8934 18.6781 24.8747 18.6719C22.0729 17.9575 19.7432 16.3422 19.7184 16.3236C19.3394 16.0564 18.8176 16.1496 18.5504 16.5286C18.2833 16.9076 18.3765 17.4294 18.7554 17.6965C18.861 17.7711 21.3336 19.4919 24.4274 20.2871C25.8749 20.8028 26.0364 22.3497 26.0799 23.7661C26.0799 23.822 26.0799 23.8717 26.0861 23.9214C26.0924 24.4805 26.0551 25.3441 25.9557 25.8411C24.9493 26.4126 21.0043 28.3882 15.0031 28.3882C9.02671 28.3882 5.05694 26.4064 4.04431 25.8349C3.94491 25.3379 3.90142 24.4743 3.91385 23.9152C3.91385 23.8655 3.92006 23.8158 3.92006 23.7599C3.96355 22.3435 4.12507 20.7966 5.57258 20.2809C8.66639 19.4857 11.1389 17.7587 11.2446 17.6903C11.6235 17.4232 11.7167 16.9013 11.4496 16.5224C11.1824 16.1434 10.6606 16.0502 10.2816 16.3174C10.2568 16.336 7.93953 17.9512 5.12528 18.6657C5.10043 18.6719 5.08179 18.6781 5.06316 18.6843C2.36695 19.61 2.28618 22.4863 2.24891 23.7102C2.24891 23.7661 2.24891 23.8158 2.2427 23.8655C2.2427 23.8717 2.2427 23.8779 2.2427 23.8842C2.23648 24.2072 2.23027 25.8659 2.55953 26.6984C2.62166 26.8599 2.73348 26.9966 2.88258 27.0898C3.06895 27.214 7.53572 30.0593 15.0093 30.0593C22.4829 30.0593 26.9497 27.2078 27.1361 27.0898C27.2789 26.9966 27.397 26.8599 27.4591 26.6984C27.7697 25.8721 27.7635 24.2134 27.7573 23.8904Z" fill="#02810E"/>
</g>
<defs>
<clipPath id="clip0">
<rect width="30" height="30" fill="white"/>
</clipPath>
</defs>
</svg>
