<svg width="30" height="30" viewBox="0 0 30 30" fill="none" xmlns="http://www.w3.org/2000/svg">
<path d="M27 25.9325L25.2822 6.58896C25.2454 6.15951 24.8834 5.83436 24.4601 5.83436H20.9263C20.8773 2.60736 18.2392 0 15 0C11.7607 0 9.12267 2.60736 9.07359 5.83436H5.53985C5.1104 5.83436 4.75457 6.15951 4.71776 6.58896L2.99997 25.9325C2.99997 25.9571 2.99384 25.9816 2.99384 26.0061C2.99384 28.2086 5.01224 30 7.4969 30H22.503C24.9877 30 27.0061 28.2086 27.0061 26.0061C27.0061 25.9816 27.0061 25.9571 27 25.9325ZM15 1.65644C17.3251 1.65644 19.2208 3.52147 19.2699 5.83436H10.73C10.7791 3.52147 12.6748 1.65644 15 1.65644ZM22.503 28.3436H7.4969C5.93862 28.3436 4.67482 27.3129 4.65028 26.0429L6.29445 7.49693H9.06745V10.0123C9.06745 10.4724 9.43555 10.8405 9.89567 10.8405C10.3558 10.8405 10.7239 10.4724 10.7239 10.0123V7.49693H19.2699V10.0123C19.2699 10.4724 19.638 10.8405 20.0981 10.8405C20.5583 10.8405 20.9263 10.4724 20.9263 10.0123V7.49693H23.6994L25.3497 26.0429C25.3251 27.3129 24.0552 28.3436 22.503 28.3436Z" fill="#02810E"/>
</svg>
