<svg width="20" height="20" viewBox="0 0 20 20" fill="none" xmlns="http://www.w3.org/2000/svg">
<path d="M18.5999 9.03764L18.082 6.96596C18.2236 6.93588 18.3298 6.81026 18.3298 6.65975V6.32572C18.3298 5.60049 17.7398 5.01049 17.0146 5.01049H14.6555V4.3215C14.6555 3.96463 14.3652 3.67432 14.0084 3.67432H1.98328C1.62641 3.67432 1.33609 3.96463 1.33609 4.3215V10C1.33609 10.173 1.47629 10.3132 1.64926 10.3132C1.82219 10.3132 1.96242 10.173 1.96242 10V4.3215C1.96242 4.30998 1.97176 4.30064 1.98328 4.30064H14.0083C14.0198 4.30064 14.0292 4.30998 14.0292 4.3215V10.0001C14.0292 10.173 14.1694 10.3133 14.3423 10.3133C14.5153 10.3133 14.6555 10.1731 14.6555 10.0001V9.6451H18.3496C18.3499 9.6451 18.3502 9.64518 18.3504 9.64518C18.3507 9.64518 18.351 9.64514 18.3513 9.64514C18.8059 9.64545 19.1918 9.94381 19.3244 10.3549H18.3507C18.1777 10.3549 18.0375 10.4951 18.0375 10.6681V11.3362C18.0375 11.8772 18.4777 12.3174 19.0187 12.3174H19.3736V13.6952H18.5548C18.2858 12.9185 17.5475 12.3591 16.6805 12.3591C15.8135 12.3591 15.0752 12.9185 14.8062 13.6952H14.6554V11.3361C14.6554 11.1632 14.5152 11.023 14.3423 11.023C14.1693 11.023 14.0291 11.1631 14.0291 11.3361V13.6951H7.53191C7.26293 12.9185 6.52461 12.359 5.65762 12.359C4.79063 12.359 4.05227 12.9185 3.78332 13.6951H1.98328C1.97176 13.6951 1.96242 13.6858 1.96242 13.6743V12.9853H3.31941C3.49234 12.9853 3.63258 12.8451 3.63258 12.6722C3.63258 12.4992 3.49238 12.359 3.31941 12.359H0.313164C0.140234 12.359 0 12.4992 0 12.6722C0 12.8451 0.140195 12.9853 0.313164 12.9853H1.33613V13.6743C1.33613 14.0312 1.62645 14.3215 1.98332 14.3215H3.67488C3.6748 14.3284 3.67434 14.3353 3.67434 14.3423C3.67434 15.4359 4.56406 16.3256 5.65762 16.3256C6.75117 16.3256 7.6409 15.4359 7.6409 14.3423C7.6409 14.3353 7.64043 14.3284 7.64035 14.3215H14.6978C14.6977 14.3284 14.6972 14.3353 14.6972 14.3423C14.6972 15.4359 15.587 16.3256 16.6805 16.3256C17.7741 16.3256 18.6638 15.4359 18.6638 14.3423C18.6638 14.3353 18.6633 14.3284 18.6632 14.3215H19.6868C19.8597 14.3215 20 14.1813 20 14.0083V10.668C20 9.84334 19.3915 9.15815 18.5999 9.03764ZM14.6555 5.63678H17.0146C17.3945 5.63678 17.7036 5.94584 17.7036 6.32572V6.34658H14.6555V5.63678ZM14.6555 9.01881V6.97287H17.4382L17.9496 9.01881H14.6555ZM5.65762 15.6994C4.90938 15.6994 4.30062 15.0907 4.30062 14.3424C4.30062 13.5941 4.90938 12.9854 5.65762 12.9854C6.40586 12.9854 7.01461 13.5941 7.01461 14.3424C7.01461 15.0907 6.40586 15.6994 5.65762 15.6994ZM16.6806 15.6994C15.9323 15.6994 15.3236 15.0907 15.3236 14.3424C15.3236 13.5941 15.9323 12.9854 16.6806 12.9854C17.4288 12.9854 18.0376 13.5941 18.0376 14.3424C18.0376 15.0907 17.4288 15.6994 16.6806 15.6994ZM19.3737 11.691H19.0188C18.8231 11.691 18.6639 11.5318 18.6639 11.3361V10.9812H19.3737V11.691H19.3737Z" fill="#02810E"/>
<path d="M5.65891 13.6953C5.30203 13.6953 5.01172 13.9856 5.01172 14.3425C5.01172 14.6994 5.30203 14.9897 5.65891 14.9897C6.01578 14.9897 6.30609 14.6994 6.30609 14.3425C6.30609 13.9856 6.01578 13.6953 5.65891 13.6953Z" fill="#02810E"/>
<path d="M16.6804 13.6953C16.3235 13.6953 16.0332 13.9856 16.0332 14.3425C16.0332 14.6994 16.3235 14.9897 16.6804 14.9897C17.0373 14.9897 17.3276 14.6994 17.3276 14.3425C17.3276 13.9856 17.0373 13.6953 16.6804 13.6953Z" fill="#02810E"/>
<path d="M13.0071 12.3591H8.33074C8.15781 12.3591 8.01758 12.4993 8.01758 12.6723C8.01758 12.8453 8.15777 12.9855 8.33074 12.9855H13.0071C13.1801 12.9855 13.3203 12.8453 13.3203 12.6723C13.3203 12.4993 13.1801 12.3591 13.0071 12.3591Z" fill="#02810E"/>
<path d="M4.98949 11.0229H0.981133C0.808203 11.0229 0.667969 11.1631 0.667969 11.3361C0.667969 11.5091 0.808164 11.6493 0.981133 11.6493H4.98949C5.16242 11.6493 5.30265 11.5091 5.30265 11.3361C5.30265 11.1631 5.16242 11.0229 4.98949 11.0229Z" fill="#02810E"/>
<path d="M10.8887 6.77236C10.7665 6.65009 10.5681 6.65009 10.4459 6.7724L7.66103 9.5572L6.21231 8.10849C6.09001 7.98619 5.89173 7.98619 5.76946 8.10849C5.64716 8.2308 5.64716 8.42904 5.76946 8.55134L7.43962 10.2215C7.50075 10.2827 7.58091 10.3132 7.66103 10.3132C7.74114 10.3132 7.82134 10.2827 7.88243 10.2215L10.8887 7.21525C11.011 7.09291 11.011 6.89466 10.8887 6.77236Z" fill="#02810E"/>
</svg>
