<svg width="250" height="250" viewBox="0 0 250 250" fill="none" xmlns="http://www.w3.org/2000/svg">
<circle cx="125" cy="125" r="125" fill="black"/>
<path d="M44.752 93.688H37.136V89.2H57.876V93.688H50.26V113H44.752V93.688ZM76.0036 113L71.4136 106.37H71.1416H66.3476V113H60.8396V89.2H71.1416C73.2496 89.2 75.0742 89.5513 76.6156 90.254C78.1796 90.9567 79.3809 91.954 80.2196 93.246C81.0582 94.538 81.4776 96.068 81.4776 97.836C81.4776 99.604 81.0469 101.134 80.1856 102.426C79.3469 103.695 78.1456 104.67 76.5816 105.35L81.9196 113H76.0036ZM75.9016 97.836C75.9016 96.4987 75.4709 95.4787 74.6096 94.776C73.7482 94.0507 72.4902 93.688 70.8356 93.688H66.3476V101.984H70.8356C72.4902 101.984 73.7482 101.621 74.6096 100.896C75.4709 100.171 75.9016 99.1507 75.9016 97.836ZM101.516 107.9H90.4655L88.3575 113H82.7135L93.3215 89.2H98.7615L109.404 113H103.624L101.516 107.9ZM99.7815 103.718L96.0075 94.606L92.2335 103.718H99.7815ZM111.873 89.2H117.381V113H111.873V89.2ZM144.857 89.2V113H140.335L128.469 98.55V113H123.029V89.2H127.585L139.417 103.65V89.2H144.857ZM158.308 113.408C156.427 113.408 154.602 113.159 152.834 112.66C151.089 112.139 149.683 111.47 148.618 110.654L150.488 106.506C151.508 107.254 152.721 107.855 154.126 108.308C155.531 108.761 156.937 108.988 158.342 108.988C159.906 108.988 161.062 108.761 161.81 108.308C162.558 107.832 162.932 107.209 162.932 106.438C162.932 105.871 162.705 105.407 162.252 105.044C161.821 104.659 161.255 104.353 160.552 104.126C159.872 103.899 158.943 103.65 157.764 103.378C155.951 102.947 154.466 102.517 153.31 102.086C152.154 101.655 151.157 100.964 150.318 100.012C149.502 99.06 149.094 97.7907 149.094 96.204C149.094 94.8213 149.468 93.5747 150.216 92.464C150.964 91.3307 152.086 90.4353 153.582 89.778C155.101 89.1207 156.948 88.792 159.124 88.792C160.643 88.792 162.127 88.9733 163.578 89.336C165.029 89.6987 166.298 90.22 167.386 90.9L165.686 95.082C163.487 93.8353 161.289 93.212 159.09 93.212C157.549 93.212 156.404 93.4613 155.656 93.96C154.931 94.4587 154.568 95.116 154.568 95.932C154.568 96.748 154.987 97.36 155.826 97.768C156.687 98.1533 157.991 98.5387 159.736 98.924C161.549 99.3547 163.034 99.7853 164.19 100.216C165.346 100.647 166.332 101.327 167.148 102.256C167.987 103.185 168.406 104.443 168.406 106.03C168.406 107.39 168.021 108.637 167.25 109.77C166.502 110.881 165.369 111.765 163.85 112.422C162.331 113.079 160.484 113.408 158.308 113.408ZM179.99 113.408C178.108 113.408 176.284 113.159 174.516 112.66C172.77 112.139 171.365 111.47 170.3 110.654L172.17 106.506C173.19 107.254 174.402 107.855 175.808 108.308C177.213 108.761 178.618 108.988 180.024 108.988C181.588 108.988 182.744 108.761 183.492 108.308C184.24 107.832 184.614 107.209 184.614 106.438C184.614 105.871 184.387 105.407 183.934 105.044C183.503 104.659 182.936 104.353 182.234 104.126C181.554 103.899 180.624 103.65 179.446 103.378C177.632 102.947 176.148 102.517 174.992 102.086C173.836 101.655 172.838 100.964 172 100.012C171.184 99.06 170.776 97.7907 170.776 96.204C170.776 94.8213 171.15 93.5747 171.898 92.464C172.646 91.3307 173.768 90.4353 175.264 89.778C176.782 89.1207 178.63 88.792 180.806 88.792C182.324 88.792 183.809 88.9733 185.26 89.336C186.71 89.6987 187.98 90.22 189.068 90.9L187.368 95.082C185.169 93.8353 182.97 93.212 180.772 93.212C179.23 93.212 178.086 93.4613 177.338 93.96C176.612 94.4587 176.25 95.116 176.25 95.932C176.25 96.748 176.669 97.36 177.508 97.768C178.369 98.1533 179.672 98.5387 181.418 98.924C183.231 99.3547 184.716 99.7853 185.872 100.216C187.028 100.647 188.014 101.327 188.83 102.256C189.668 103.185 190.088 104.443 190.088 106.03C190.088 107.39 189.702 108.637 188.932 109.77C188.184 110.881 187.05 111.765 185.532 112.422C184.013 113.079 182.166 113.408 179.99 113.408ZM204.777 104.568V113H199.269V104.5L190.055 89.2H195.903L202.261 99.774L208.619 89.2H214.025L204.777 104.568Z" fill="white"/>
<line x1="149" y1="82" x2="167" y2="82" stroke="white" stroke-width="2"/>
<path d="M62.4196 129.9V139H61.1456V131.031H55.8676V139H54.5806V129.9H62.4196ZM71.2763 135.594C71.2763 135.689 71.2677 135.815 71.2503 135.971H65.6603C65.7383 136.578 66.0027 137.067 66.4533 137.44C66.9127 137.804 67.4803 137.986 68.1563 137.986C68.9797 137.986 69.6427 137.709 70.1453 137.154L70.8343 137.96C70.5223 138.324 70.1323 138.601 69.6643 138.792C69.205 138.983 68.6893 139.078 68.1173 139.078C67.3893 139.078 66.7437 138.931 66.1803 138.636C65.617 138.333 65.1793 137.912 64.8673 137.375C64.564 136.838 64.4123 136.231 64.4123 135.555C64.4123 134.888 64.5597 134.285 64.8543 133.748C65.1577 133.211 65.5693 132.795 66.0893 132.5C66.618 132.197 67.2117 132.045 67.8703 132.045C68.529 132.045 69.114 132.197 69.6253 132.5C70.1453 132.795 70.5483 133.211 70.8343 133.748C71.129 134.285 71.2763 134.901 71.2763 135.594ZM67.8703 133.098C67.2723 133.098 66.7697 133.28 66.3623 133.644C65.9637 134.008 65.7297 134.485 65.6603 135.074H70.0803C70.011 134.493 69.7727 134.021 69.3653 133.657C68.9667 133.284 68.4683 133.098 67.8703 133.098ZM76.8654 132.045C77.5328 132.045 78.1308 132.192 78.6594 132.487C79.1881 132.782 79.5998 133.193 79.8944 133.722C80.1978 134.251 80.3494 134.862 80.3494 135.555C80.3494 136.248 80.1978 136.864 79.8944 137.401C79.5998 137.93 79.1881 138.341 78.6594 138.636C78.1308 138.931 77.5328 139.078 76.8654 139.078C76.3714 139.078 75.9164 138.983 75.5004 138.792C75.0931 138.601 74.7464 138.324 74.4604 137.96V141.522H73.2124V132.11H74.4084V133.202C74.6858 132.821 75.0368 132.535 75.4614 132.344C75.8861 132.145 76.3541 132.045 76.8654 132.045ZM76.7614 137.986C77.2034 137.986 77.5978 137.886 77.9444 137.687C78.2998 137.479 78.5771 137.193 78.7764 136.829C78.9844 136.456 79.0884 136.032 79.0884 135.555C79.0884 135.078 78.9844 134.658 78.7764 134.294C78.5771 133.921 78.2998 133.635 77.9444 133.436C77.5978 133.237 77.2034 133.137 76.7614 133.137C76.3281 133.137 75.9338 133.241 75.5784 133.449C75.2318 133.648 74.9544 133.93 74.7464 134.294C74.5471 134.658 74.4474 135.078 74.4474 135.555C74.4474 136.032 74.5471 136.456 74.7464 136.829C74.9458 137.193 75.2231 137.479 75.5784 137.687C75.9338 137.886 76.3281 137.986 76.7614 137.986ZM88.3896 135.594C88.3896 135.689 88.3809 135.815 88.3636 135.971H82.7736C82.8516 136.578 83.1159 137.067 83.5666 137.44C84.0259 137.804 84.5936 137.986 85.2696 137.986C86.0929 137.986 86.7559 137.709 87.2586 137.154L87.9476 137.96C87.6356 138.324 87.2456 138.601 86.7776 138.792C86.3183 138.983 85.8026 139.078 85.2306 139.078C84.5026 139.078 83.8569 138.931 83.2936 138.636C82.7303 138.333 82.2926 137.912 81.9806 137.375C81.6773 136.838 81.5256 136.231 81.5256 135.555C81.5256 134.888 81.6729 134.285 81.9676 133.748C82.2709 133.211 82.6826 132.795 83.2026 132.5C83.7313 132.197 84.3249 132.045 84.9836 132.045C85.6423 132.045 86.2273 132.197 86.7386 132.5C87.2586 132.795 87.6616 133.211 87.9476 133.748C88.2423 134.285 88.3896 134.901 88.3896 135.594ZM84.9836 133.098C84.3856 133.098 83.8829 133.28 83.4756 133.644C83.0769 134.008 82.8429 134.485 82.7736 135.074H87.1936C87.1243 134.493 86.8859 134.021 86.4786 133.657C86.0799 133.284 85.5816 133.098 84.9836 133.098ZM90.3257 132.11H91.5737V137.128L95.7987 132.11H96.9297V139H95.6817V133.982L91.4697 139H90.3257V132.11ZM93.5497 131.213C92.9084 131.213 92.41 131.061 92.0547 130.758C91.6994 130.446 91.5174 130 91.5087 129.419H92.3537C92.3624 129.74 92.4707 130 92.6787 130.199C92.8954 130.39 93.1814 130.485 93.5367 130.485C93.892 130.485 94.178 130.39 94.3947 130.199C94.6114 130 94.724 129.74 94.7327 129.419H95.6037C95.595 130 95.4087 130.446 95.0447 130.758C94.6807 131.061 94.1824 131.213 93.5497 131.213ZM104.487 133.202H101.965V139H100.717V133.202H98.1951V132.11H104.487V133.202ZM105.763 132.11H107.011V137.128L111.236 132.11H112.367V139H111.119V133.982L106.907 139H105.763V132.11ZM122.974 135.425C123.866 135.65 124.313 136.209 124.313 137.102C124.313 137.709 124.083 138.177 123.624 138.506C123.173 138.835 122.497 139 121.596 139H118.281V132.11H121.479C122.293 132.11 122.93 132.266 123.39 132.578C123.849 132.881 124.079 133.315 124.079 133.878C124.079 134.242 123.979 134.558 123.78 134.827C123.589 135.087 123.32 135.286 122.974 135.425ZM119.503 135.074H121.375C121.851 135.074 122.211 134.987 122.454 134.814C122.705 134.641 122.831 134.389 122.831 134.06C122.831 133.401 122.345 133.072 121.375 133.072H119.503V135.074ZM121.505 138.038C122.025 138.038 122.415 137.956 122.675 137.791C122.935 137.626 123.065 137.371 123.065 137.024C123.065 136.669 122.943 136.404 122.701 136.231C122.467 136.058 122.094 135.971 121.583 135.971H119.503V138.038H121.505ZM129.913 129.9H131.213V139H129.913V129.9ZM137.435 132.045C138.31 132.045 139.003 132.301 139.515 132.812C140.035 133.315 140.295 134.056 140.295 135.035V139H139.047V135.178C139.047 134.511 138.886 134.008 138.566 133.67C138.245 133.332 137.786 133.163 137.188 133.163C136.512 133.163 135.979 133.362 135.589 133.761C135.199 134.151 135.004 134.714 135.004 135.451V139H133.756V132.11H134.952V133.15C135.203 132.795 135.541 132.522 135.966 132.331C136.399 132.14 136.889 132.045 137.435 132.045ZM144.58 139.078C144.017 139.078 143.475 139.004 142.955 138.857C142.435 138.701 142.028 138.506 141.733 138.272L142.253 137.284C142.557 137.501 142.925 137.674 143.358 137.804C143.792 137.934 144.229 137.999 144.671 137.999C145.763 137.999 146.309 137.687 146.309 137.063C146.309 136.855 146.236 136.69 146.088 136.569C145.941 136.448 145.755 136.361 145.529 136.309C145.313 136.248 145.001 136.183 144.593 136.114C144.039 136.027 143.584 135.928 143.228 135.815C142.882 135.702 142.583 135.512 142.331 135.243C142.08 134.974 141.954 134.597 141.954 134.112C141.954 133.488 142.214 132.99 142.734 132.617C143.254 132.236 143.952 132.045 144.827 132.045C145.287 132.045 145.746 132.101 146.205 132.214C146.665 132.327 147.042 132.478 147.336 132.669L146.803 133.657C146.24 133.293 145.577 133.111 144.814 133.111C144.286 133.111 143.883 133.198 143.605 133.371C143.328 133.544 143.189 133.774 143.189 134.06C143.189 134.285 143.267 134.463 143.423 134.593C143.579 134.723 143.77 134.818 143.995 134.879C144.229 134.94 144.554 135.009 144.97 135.087C145.525 135.182 145.971 135.286 146.309 135.399C146.656 135.503 146.951 135.685 147.193 135.945C147.436 136.205 147.557 136.569 147.557 137.037C147.557 137.661 147.289 138.159 146.751 138.532C146.223 138.896 145.499 139.078 144.58 139.078ZM152.991 138.597C152.809 138.753 152.584 138.874 152.315 138.961C152.046 139.039 151.769 139.078 151.483 139.078C150.79 139.078 150.252 138.892 149.871 138.519C149.49 138.146 149.299 137.613 149.299 136.92V133.137H148.129V132.11H149.299V130.602H150.547V132.11H152.523V133.137H150.547V136.868C150.547 137.241 150.638 137.527 150.82 137.726C151.011 137.925 151.279 138.025 151.626 138.025C152.007 138.025 152.332 137.917 152.601 137.7L152.991 138.597ZM157.009 132.045C157.962 132.045 158.69 132.279 159.193 132.747C159.704 133.215 159.96 133.913 159.96 134.84V139H158.777V138.09C158.569 138.411 158.27 138.658 157.88 138.831C157.499 138.996 157.044 139.078 156.515 139.078C155.744 139.078 155.124 138.892 154.656 138.519C154.197 138.146 153.967 137.657 153.967 137.05C153.967 136.443 154.188 135.958 154.63 135.594C155.072 135.221 155.774 135.035 156.736 135.035H158.712V134.788C158.712 134.251 158.556 133.839 158.244 133.553C157.932 133.267 157.473 133.124 156.866 133.124C156.459 133.124 156.06 133.193 155.67 133.332C155.28 133.462 154.951 133.64 154.682 133.865L154.162 132.929C154.517 132.643 154.942 132.426 155.436 132.279C155.93 132.123 156.454 132.045 157.009 132.045ZM156.723 138.116C157.2 138.116 157.611 138.012 157.958 137.804C158.305 137.587 158.556 137.284 158.712 136.894V135.932H156.788C155.731 135.932 155.202 136.287 155.202 136.998C155.202 137.345 155.336 137.618 155.605 137.817C155.874 138.016 156.246 138.116 156.723 138.116ZM168.899 132.11V138.064C168.899 139.269 168.6 140.157 168.002 140.729C167.404 141.31 166.511 141.6 165.324 141.6C164.674 141.6 164.054 141.509 163.465 141.327C162.875 141.154 162.399 140.902 162.035 140.573L162.633 139.611C162.953 139.888 163.348 140.105 163.816 140.261C164.292 140.426 164.782 140.508 165.285 140.508C166.091 140.508 166.684 140.317 167.066 139.936C167.456 139.555 167.651 138.974 167.651 138.194V137.648C167.356 138.003 166.992 138.272 166.559 138.454C166.134 138.627 165.67 138.714 165.168 138.714C164.509 138.714 163.911 138.575 163.374 138.298C162.845 138.012 162.429 137.618 162.126 137.115C161.822 136.604 161.671 136.023 161.671 135.373C161.671 134.723 161.822 134.147 162.126 133.644C162.429 133.133 162.845 132.738 163.374 132.461C163.911 132.184 164.509 132.045 165.168 132.045C165.688 132.045 166.169 132.14 166.611 132.331C167.061 132.522 167.43 132.803 167.716 133.176V132.11H168.899ZM165.311 137.622C165.761 137.622 166.164 137.527 166.52 137.336C166.884 137.145 167.165 136.881 167.365 136.543C167.573 136.196 167.677 135.806 167.677 135.373C167.677 134.706 167.456 134.168 167.014 133.761C166.572 133.345 166.004 133.137 165.311 133.137C164.609 133.137 164.037 133.345 163.595 133.761C163.153 134.168 162.932 134.706 162.932 135.373C162.932 135.806 163.031 136.196 163.231 136.543C163.439 136.881 163.72 137.145 164.076 137.336C164.44 137.527 164.851 137.622 165.311 137.622ZM172.479 133.267C172.696 132.868 173.016 132.565 173.441 132.357C173.866 132.149 174.381 132.045 174.988 132.045V133.254C174.919 133.245 174.823 133.241 174.702 133.241C174.026 133.241 173.493 133.445 173.103 133.852C172.722 134.251 172.531 134.823 172.531 135.568V139H171.283V132.11H172.479V133.267ZM179.023 132.045C179.976 132.045 180.704 132.279 181.207 132.747C181.718 133.215 181.974 133.913 181.974 134.84V139H180.791V138.09C180.583 138.411 180.284 138.658 179.894 138.831C179.512 138.996 179.057 139.078 178.529 139.078C177.757 139.078 177.138 138.892 176.67 138.519C176.21 138.146 175.981 137.657 175.981 137.05C175.981 136.443 176.202 135.958 176.644 135.594C177.086 135.221 177.788 135.035 178.75 135.035H180.726V134.788C180.726 134.251 180.57 133.839 180.258 133.553C179.946 133.267 179.486 133.124 178.88 133.124C178.472 133.124 178.074 133.193 177.684 133.332C177.294 133.462 176.964 133.64 176.696 133.865L176.176 132.929C176.531 132.643 176.956 132.426 177.45 132.279C177.944 132.123 178.468 132.045 179.023 132.045ZM178.737 138.116C179.213 138.116 179.625 138.012 179.972 137.804C180.318 137.587 180.57 137.284 180.726 136.894V135.932H178.802C177.744 135.932 177.216 136.287 177.216 136.998C177.216 137.345 177.35 137.618 177.619 137.817C177.887 138.016 178.26 138.116 178.737 138.116ZM192.902 132.045C193.769 132.045 194.453 132.296 194.956 132.799C195.467 133.302 195.723 134.047 195.723 135.035V139H194.475V135.178C194.475 134.511 194.319 134.008 194.007 133.67C193.704 133.332 193.266 133.163 192.694 133.163C192.061 133.163 191.559 133.362 191.186 133.761C190.813 134.151 190.627 134.714 190.627 135.451V139H189.379V135.178C189.379 134.511 189.223 134.008 188.911 133.67C188.608 133.332 188.17 133.163 187.598 133.163C186.965 133.163 186.463 133.362 186.09 133.761C185.717 134.151 185.531 134.714 185.531 135.451V139H184.283V132.11H185.479V133.137C185.73 132.782 186.06 132.513 186.467 132.331C186.874 132.14 187.338 132.045 187.858 132.045C188.395 132.045 188.872 132.153 189.288 132.37C189.704 132.587 190.025 132.903 190.25 133.319C190.51 132.92 190.87 132.608 191.329 132.383C191.797 132.158 192.321 132.045 192.902 132.045ZM101.893 148.11V155H100.762V149.969L98.1882 154.22H97.6422L95.0942 149.956V155H93.9502V148.11H95.2372L97.9412 152.764L100.723 148.11H101.893ZM106.779 148.045C107.733 148.045 108.461 148.279 108.963 148.747C109.475 149.215 109.73 149.913 109.73 150.84V155H108.547V154.09C108.339 154.411 108.04 154.658 107.65 154.831C107.269 154.996 106.814 155.078 106.285 155.078C105.514 155.078 104.894 154.892 104.426 154.519C103.967 154.146 103.737 153.657 103.737 153.05C103.737 152.443 103.958 151.958 104.4 151.594C104.842 151.221 105.544 151.035 106.506 151.035H108.482V150.788C108.482 150.251 108.326 149.839 108.014 149.553C107.702 149.267 107.243 149.124 106.636 149.124C106.229 149.124 105.83 149.193 105.44 149.332C105.05 149.462 104.721 149.64 104.452 149.865L103.932 148.929C104.288 148.643 104.712 148.426 105.206 148.279C105.7 148.123 106.225 148.045 106.779 148.045ZM106.493 154.116C106.97 154.116 107.382 154.012 107.728 153.804C108.075 153.587 108.326 153.284 108.482 152.894V151.932H106.558C105.501 151.932 104.972 152.287 104.972 152.998C104.972 153.345 105.107 153.618 105.375 153.817C105.644 154.016 106.017 154.116 106.493 154.116ZM117.048 149.202H113.226V155H111.978V148.11H117.048V149.202ZM120.782 148.045C121.736 148.045 122.464 148.279 122.966 148.747C123.478 149.215 123.733 149.913 123.733 150.84V155H122.55V154.09C122.342 154.411 122.043 154.658 121.653 154.831C121.272 154.996 120.817 155.078 120.288 155.078C119.517 155.078 118.897 154.892 118.429 154.519C117.97 154.146 117.74 153.657 117.74 153.05C117.74 152.443 117.961 151.958 118.403 151.594C118.845 151.221 119.547 151.035 120.509 151.035H122.485V150.788C122.485 150.251 122.329 149.839 122.017 149.553C121.705 149.267 121.246 149.124 120.639 149.124C120.232 149.124 119.833 149.193 119.443 149.332C119.053 149.462 118.724 149.64 118.455 149.865L117.935 148.929C118.291 148.643 118.715 148.426 119.209 148.279C119.703 148.123 120.228 148.045 120.782 148.045ZM120.496 154.116C120.973 154.116 121.385 154.012 121.731 153.804C122.078 153.587 122.329 153.284 122.485 152.894V151.932H120.561C119.504 151.932 118.975 152.287 118.975 152.998C118.975 153.345 119.11 153.618 119.378 153.817C119.647 154.016 120.02 154.116 120.496 154.116ZM129.597 151.412C130.057 151.533 130.412 151.728 130.663 151.997C130.915 152.266 131.04 152.599 131.04 152.998C131.04 153.405 130.902 153.769 130.624 154.09C130.347 154.402 129.961 154.649 129.467 154.831C128.982 155.004 128.436 155.091 127.829 155.091C127.318 155.091 126.815 155.026 126.321 154.896C125.836 154.757 125.403 154.562 125.021 154.311L125.398 153.362C125.728 153.57 126.105 153.735 126.529 153.856C126.954 153.969 127.383 154.025 127.816 154.025C128.406 154.025 128.874 153.925 129.22 153.726C129.576 153.518 129.753 153.241 129.753 152.894C129.753 152.573 129.61 152.326 129.324 152.153C129.047 151.98 128.653 151.893 128.141 151.893H126.88V150.996H128.05C128.518 150.996 128.887 150.914 129.155 150.749C129.424 150.584 129.558 150.359 129.558 150.073C129.558 149.761 129.398 149.518 129.077 149.345C128.765 149.172 128.341 149.085 127.803 149.085C127.119 149.085 126.395 149.263 125.632 149.618L125.294 148.656C126.135 148.231 127.015 148.019 127.933 148.019C128.488 148.019 128.986 148.097 129.428 148.253C129.87 148.409 130.217 148.63 130.468 148.916C130.72 149.202 130.845 149.527 130.845 149.891C130.845 150.229 130.733 150.532 130.507 150.801C130.282 151.07 129.979 151.273 129.597 151.412ZM132.938 148.11H134.186V153.128L138.411 148.11H139.542V155H138.294V149.982L134.082 155H132.938V148.11ZM141.964 148.11H143.212V151.035H147.138V148.11H148.386V155H147.138V152.114H143.212V155H141.964V148.11ZM153.27 148.045C154.223 148.045 154.951 148.279 155.454 148.747C155.965 149.215 156.221 149.913 156.221 150.84V155H155.038V154.09C154.83 154.411 154.531 154.658 154.141 154.831C153.759 154.996 153.304 155.078 152.776 155.078C152.004 155.078 151.385 154.892 150.917 154.519C150.457 154.146 150.228 153.657 150.228 153.05C150.228 152.443 150.449 151.958 150.891 151.594C151.333 151.221 152.035 151.035 152.997 151.035H154.973V150.788C154.973 150.251 154.817 149.839 154.505 149.553C154.193 149.267 153.733 149.124 153.127 149.124C152.719 149.124 152.321 149.193 151.931 149.332C151.541 149.462 151.211 149.64 150.943 149.865L150.423 148.929C150.778 148.643 151.203 148.426 151.697 148.279C152.191 148.123 152.715 148.045 153.27 148.045ZM152.984 154.116C153.46 154.116 153.872 154.012 154.219 153.804C154.565 153.587 154.817 153.284 154.973 152.894V151.932H153.049C151.991 151.932 151.463 152.287 151.463 152.998C151.463 153.345 151.597 153.618 151.866 153.817C152.134 154.016 152.507 154.116 152.984 154.116Z" fill="white"/>
<line x1="65" y1="168.5" x2="185" y2="168.5" stroke="white"/>
<circle cx="125" cy="125" r="118.5" stroke="white" stroke-width="3"/>
</svg>
