<svg width="130" height="130" viewBox="0 0 130 130" fill="none" xmlns="http://www.w3.org/2000/svg">
<g clip-path="url(#clip0)">
<path d="M18.3289 86.8378L45.0928 86.8378L45.0928 105.193C45.0928 114 47.7188 120.392 52.9178 124.185C61.0875 130.18 72.2016 126.811 72.6791 126.652C74.5623 126.069 75.8621 124.291 75.8621 122.302L75.8621 100.154C75.8621 83.7609 95.1459 78.058 95.9682 77.8458C96.0212 77.8193 96.0743 77.8193 96.1008 77.7928L98.3024 77.1031C100.796 79.4638 104.138 80.8962 107.798 80.8962L116.154 80.8962C123.793 80.9227 130 74.7158 130 67.0766L130 19.4373C130 11.7981 123.793 5.59119 116.154 5.59119L107.798 5.59118C104.271 5.59118 101.034 6.91744 98.5942 9.11903C95.0929 4.95457 89.8409 2.27553 83.9788 2.27553L29.7613 2.27553C17.1884 2.27553 8.83292 9.17208 7.37403 20.7105L0.636618 63.0182L0.265264 65.2994C0.106115 66.3604 2.05295e-05 67.4479 2.04345e-05 68.5355C0.0265393 78.615 8.24936 86.8378 18.3289 86.8378ZM103.05 19.4108C103.05 16.7848 105.172 14.6628 107.798 14.6628L116.154 14.6628C118.78 14.6628 120.902 16.7848 120.902 19.4108L120.902 67.0766C120.902 69.7026 118.78 71.8246 116.154 71.8246L107.798 71.8246C105.172 71.8246 103.05 69.7026 103.05 67.0766L103.05 19.4108ZM9.25731 66.7052L16.3661 22.0368C16.3661 21.9837 16.3926 21.9307 16.3926 21.8776C16.7109 19.2782 17.6658 11.3471 29.7613 11.3471L83.9788 11.3471C89.4695 11.3471 93.9523 15.8299 93.9523 21.3206L93.9523 67.0766C93.9523 67.6867 94.0053 68.2967 94.0849 68.9068L93.4218 69.119C91.4854 69.6761 66.7639 77.2623 66.7639 100.18L66.7639 118.562C64.1379 118.827 60.6897 118.642 58.2759 116.838C55.5703 114.822 54.191 110.923 54.191 105.193L54.191 82.2755C54.191 79.7556 52.1486 77.7132 49.6287 77.7132L18.3289 77.7132C13.2361 77.7132 9.12468 73.5752 9.12468 68.5089C9.12468 67.9254 9.17773 67.3153 9.25731 66.7052Z" fill="#FF3232"/>
</g>
<defs>
<clipPath id="clip0">
<rect width="130" height="130" fill="white" transform="translate(130 130) rotate(-180)"/>
</clipPath>
</defs>
</svg>
