<svg width="130" height="130" viewBox="0 0 130 130" fill="none" xmlns="http://www.w3.org/2000/svg">
<rect x="75" y="121" width="24" height="115" transform="rotate(-180 75 121)" fill="#FF3232"/>
<rect x="124" y="74" width="56" height="61" transform="rotate(-180 124 74)" fill="#FF3232"/>
<rect x="91" y="77" width="56" height="67" transform="rotate(-180 91 77)" fill="#FF3232"/>
<rect x="81" y="81" width="18" height="11" transform="rotate(-180 81 81)" fill="#FF3232"/>
<rect x="57" y="81" width="38" height="75" transform="rotate(-180 57 81)" fill="#FF3232"/>
<rect x="51" y="82" width="42" height="67" transform="rotate(-180 51 82)" fill="#FF3232"/>
<mask id="path-7-inside-1" fill="white">
<path d="M18.3289 86.8378L45.0928 86.8378L45.0928 105.193C45.0928 114 47.7188 120.392 52.9178 124.185C61.0875 130.18 72.2016 126.811 72.679 126.652C74.5623 126.069 75.8621 124.291 75.8621 122.302L75.8621 100.153C75.8621 83.7609 95.1459 78.058 95.9682 77.8458C96.0212 77.8193 96.0743 77.8193 96.1008 77.7928L98.3024 77.1031C100.796 79.4638 104.138 80.8962 107.798 80.8962L116.154 80.8962C123.793 80.9227 130 74.7158 130 67.0766L130 19.4373C130 11.7981 123.793 5.59117 116.154 5.59117L107.798 5.59117C104.271 5.59117 101.034 6.91742 98.5942 9.11902C95.0928 4.95456 89.8409 2.27552 83.9788 2.27552L29.7613 2.27551C17.1883 2.27551 8.8329 9.17206 7.37402 20.7105L0.636605 63.0182L0.265254 65.2994C0.106102 66.3604 1.3272e-06 67.4479 1.23212e-06 68.5355C0.0265256 78.615 8.24934 86.8378 18.3289 86.8378ZM103.05 19.4108C103.05 16.7848 105.172 14.6628 107.798 14.6628L116.154 14.6628C118.78 14.6628 120.902 16.7848 120.902 19.4108L120.902 67.0766C120.902 69.7026 118.78 71.8246 116.154 71.8246L107.798 71.8246C105.172 71.8246 103.05 69.7026 103.05 67.0766L103.05 19.4108ZM9.25729 66.7052L16.3661 22.0368C16.3661 21.9837 16.3926 21.9307 16.3926 21.8776C16.7109 19.2782 17.6658 11.3471 29.7613 11.3471L83.9788 11.3471C89.4695 11.3471 93.9523 15.8299 93.9523 21.3206L93.9523 67.0766C93.9523 67.6867 94.0053 68.2967 94.0849 68.9068L93.4218 69.119C91.4854 69.676 66.7639 77.2623 66.7639 100.18L66.7639 118.562C64.1379 118.827 60.6897 118.642 58.2759 116.838C55.5703 114.822 54.191 110.923 54.191 105.193L54.191 82.2755C54.191 79.7556 52.1485 77.7132 49.6287 77.7132L18.3289 77.7132C13.2361 77.7132 9.12467 73.5752 9.12467 68.5089C9.12467 67.9254 9.17772 67.3153 9.25729 66.7052Z"/>
</mask>
<path d="M18.3289 86.8378L45.0928 86.8378L45.0928 105.193C45.0928 114 47.7188 120.392 52.9178 124.185C61.0875 130.18 72.2016 126.811 72.679 126.652C74.5623 126.069 75.8621 124.291 75.8621 122.302L75.8621 100.153C75.8621 83.7609 95.1459 78.058 95.9682 77.8458C96.0212 77.8193 96.0743 77.8193 96.1008 77.7928L98.3024 77.1031C100.796 79.4638 104.138 80.8962 107.798 80.8962L116.154 80.8962C123.793 80.9227 130 74.7158 130 67.0766L130 19.4373C130 11.7981 123.793 5.59117 116.154 5.59117L107.798 5.59117C104.271 5.59117 101.034 6.91742 98.5942 9.11902C95.0928 4.95456 89.8409 2.27552 83.9788 2.27552L29.7613 2.27551C17.1883 2.27551 8.8329 9.17206 7.37402 20.7105L0.636605 63.0182L0.265254 65.2994C0.106102 66.3604 1.3272e-06 67.4479 1.23212e-06 68.5355C0.0265256 78.615 8.24934 86.8378 18.3289 86.8378ZM103.05 19.4108C103.05 16.7848 105.172 14.6628 107.798 14.6628L116.154 14.6628C118.78 14.6628 120.902 16.7848 120.902 19.4108L120.902 67.0766C120.902 69.7026 118.78 71.8246 116.154 71.8246L107.798 71.8246C105.172 71.8246 103.05 69.7026 103.05 67.0766L103.05 19.4108ZM9.25729 66.7052L16.3661 22.0368C16.3661 21.9837 16.3926 21.9307 16.3926 21.8776C16.7109 19.2782 17.6658 11.3471 29.7613 11.3471L83.9788 11.3471C89.4695 11.3471 93.9523 15.8299 93.9523 21.3206L93.9523 67.0766C93.9523 67.6867 94.0053 68.2967 94.0849 68.9068L93.4218 69.119C91.4854 69.676 66.7639 77.2623 66.7639 100.18L66.7639 118.562C64.1379 118.827 60.6897 118.642 58.2759 116.838C55.5703 114.822 54.191 110.923 54.191 105.193L54.191 82.2755C54.191 79.7556 52.1485 77.7132 49.6287 77.7132L18.3289 77.7132C13.2361 77.7132 9.12467 73.5752 9.12467 68.5089C9.12467 67.9254 9.17772 67.3153 9.25729 66.7052Z" fill="#FF3232"/>
<path d="M45.0928 86.8378L59.0928 86.8378L59.0928 72.8378L45.0928 72.8378L45.0928 86.8378ZM52.9178 124.185L61.2 112.898L61.1847 112.887L61.1693 112.876L52.9178 124.185ZM72.679 126.652L68.5354 113.279L68.3931 113.324L68.2519 113.371L72.679 126.652ZM95.9682 77.8458L99.4665 91.4017L100.903 91.0311L102.229 90.3678L95.9682 77.8458ZM96.1008 77.7928L91.9158 64.4329L88.6335 65.4611L86.2013 67.8933L96.1008 77.7928ZM98.3024 77.1031L107.928 66.9369L101.96 61.2865L94.1174 63.7432L98.3024 77.1031ZM116.154 80.8962L116.202 66.8963L116.178 66.8962L116.154 66.8962L116.154 80.8962ZM98.5942 9.11902L87.8783 18.1285L97.2079 29.2251L107.972 19.5139L98.5942 9.11902ZM7.37402 20.7105L21.1998 22.9123L21.2352 22.69L21.2634 22.4667L7.37402 20.7105ZM0.636605 63.0182L14.4547 65.2677L14.4586 65.2438L14.4624 65.2199L0.636605 63.0182ZM0.265254 65.2994L-13.5528 63.0499L-13.5669 63.1362L-13.5799 63.2226L0.265254 65.2994ZM1.23212e-06 68.5355L-14 68.5355L-14 68.5539L-14 68.5723L1.23212e-06 68.5355ZM9.25729 66.7052L-4.56871 64.5049L-4.59965 64.6993L-4.62511 64.8945L9.25729 66.7052ZM16.3661 22.0368L30.1921 24.2371L30.3661 23.1438L30.3661 22.0368L16.3661 22.0368ZM16.3926 21.8776L2.49637 20.1761L2.39258 21.0237L2.39258 21.8776L16.3926 21.8776ZM94.0849 68.9068L98.3518 82.2407L109.478 78.6803L107.967 67.0961L94.0849 68.9068ZM93.4218 69.119L97.2922 82.5734L97.4913 82.5161L97.6886 82.4529L93.4218 69.119ZM66.7639 118.562L68.1709 132.491L80.7639 131.219L80.7639 118.562L66.7639 118.562ZM58.2759 116.838L66.6561 105.623L66.6484 105.617L66.6406 105.611L58.2759 116.838ZM9.12467 68.5089L23.1247 68.5089L9.12467 68.5089ZM18.3289 100.838L45.0928 100.838L45.0928 72.8378L18.3289 72.8378L18.3289 100.838ZM31.0928 86.8378L31.0928 105.193L59.0928 105.193L59.0928 86.8378L31.0928 86.8378ZM31.0928 105.193C31.0928 116.674 34.614 128.161 44.6662 135.495L61.1693 112.876C60.8237 112.623 59.0928 111.326 59.0928 105.193L31.0928 105.193ZM44.6355 135.473C52.2044 141.026 60.5788 141.882 66.0918 141.72C71.6654 141.558 75.9468 140.32 77.1062 139.934L68.2519 113.371C68.738 113.209 68.529 113.303 67.8233 113.443C67.1694 113.572 66.2671 113.703 65.2743 113.732C63.0684 113.797 61.8009 113.339 61.2 112.898L44.6355 135.473ZM76.8227 140.025C84.6451 137.601 89.8621 130.345 89.8621 122.302L61.8621 122.302C61.8621 118.238 64.4796 114.536 68.5354 113.279L76.8227 140.025ZM89.8621 122.302L89.8621 100.154L61.8621 100.153L61.8621 122.302L89.8621 122.302ZM89.8621 100.154C89.8621 98.268 90.7513 96.4525 93.7201 94.3414C95.1502 93.3244 96.696 92.5378 97.9735 91.9928C99.3048 91.4248 99.9977 91.2646 99.4665 91.4017L92.4699 64.2899C91.0432 64.6581 84.2648 66.7074 77.4934 71.5226C70.6147 76.4141 61.8621 85.6464 61.8621 100.153L89.8621 100.154ZM102.229 90.3678C101.413 90.7757 100.719 91.0205 100.306 91.154C100.019 91.2466 99.576 91.3705 99.8904 91.2806C99.9496 91.2637 100.733 91.0499 101.658 90.6475C102.644 90.2191 104.341 89.3511 106 87.6923L86.2013 67.8933C87.8469 66.2477 89.528 65.3896 90.4943 64.9695C91.4008 64.5754 92.1625 64.3682 92.1984 64.3579C92.4897 64.2747 92.0222 64.4053 91.7096 64.5061C91.2699 64.6479 90.5496 64.9026 89.7072 65.3238L102.229 90.3678ZM100.286 91.1526L102.487 90.4629L94.1174 63.7432L91.9158 64.4329L100.286 91.1526ZM88.677 87.2693C93.6599 91.9872 100.408 94.8962 107.798 94.8962L107.798 66.8962C107.798 66.8962 107.801 66.8962 107.808 66.8968C107.814 66.8975 107.823 66.8986 107.833 66.9006C107.853 66.9047 107.873 66.9108 107.891 66.9179C107.925 66.9319 107.934 66.9432 107.928 66.9369L88.677 87.2693ZM107.798 94.8962L116.154 94.8962L116.154 66.8962L107.798 66.8962L107.798 94.8962ZM116.105 94.8961C131.524 94.9497 144 82.4384 144 67.0766L116 67.0766C116 67.0812 116 67.072 116.004 67.0535C116.007 67.0359 116.013 67.0182 116.019 67.0025C116.032 66.9732 116.044 66.9601 116.049 66.955C116.054 66.9499 116.07 66.9352 116.106 66.92C116.125 66.912 116.146 66.9053 116.168 66.9009C116.191 66.8964 116.204 66.8963 116.202 66.8963L116.105 94.8961ZM144 67.0766L144 19.4373L116 19.4373L116 67.0766L144 67.0766ZM144 19.4373C144 4.06609 131.525 -8.40883 116.154 -8.40883L116.154 19.5912C116.158 19.5912 116.149 19.5914 116.131 19.5877C116.114 19.5841 116.096 19.5786 116.081 19.5723C116.054 19.5605 116.043 19.5503 116.042 19.549C116.041 19.5478 116.031 19.5377 116.019 19.5098C116.013 19.4949 116.007 19.4777 116.004 19.4602C116 19.4419 116 19.4327 116 19.4373L144 19.4373ZM116.154 -8.40883L107.798 -8.40883L107.798 19.5912L116.154 19.5912L116.154 -8.40883ZM107.798 -8.40883C100.707 -8.40883 94.1538 -5.73047 89.2162 -1.27586L107.972 19.5139C107.946 19.5371 107.915 19.557 107.877 19.5718C107.858 19.5794 107.839 19.5847 107.822 19.588C107.804 19.5913 107.795 19.5912 107.798 19.5912L107.798 -8.40883ZM109.31 0.109527C103.298 -7.04159 94.2004 -11.7245 83.9788 -11.7245L83.9788 16.2755C85.4813 16.2755 86.8881 16.9507 87.8783 18.1285L109.31 0.109527ZM83.9788 -11.7245L29.7613 -11.7245L29.7613 16.2755L83.9788 16.2755L83.9788 -11.7245ZM29.7613 -11.7245C20.9282 -11.7245 12.3398 -9.27687 5.49704 -3.63851C-1.4388 2.07653 -5.3963 10.1033 -6.5154 18.9544L21.2634 22.4667C21.6032 19.7793 22.5529 18.5886 23.3027 17.9707C24.1456 17.2762 26.0214 16.2755 29.7613 16.2755L29.7613 -11.7245ZM-6.45177 18.5088L-13.1892 60.8165L14.4624 65.2199L21.1998 22.9123L-6.45177 18.5088ZM-13.1815 60.7688L-13.5528 63.0499L14.0834 67.5488L14.4547 65.2677L-13.1815 60.7688ZM-13.5799 63.2226C-13.8086 64.7474 -14 66.5583 -14 68.5355L14 68.5355C14 68.3375 14.0208 67.9733 14.1104 67.3761L-13.5799 63.2226ZM-14 68.5723C-13.9532 86.3479 0.510231 100.838 18.3289 100.838L18.3289 72.8378C15.9884 72.8378 14.0062 70.8821 14 68.4986L-14 68.5723ZM117.05 19.4108C117.05 24.5168 112.904 28.6628 107.798 28.6628L107.798 0.66279C97.4404 0.662789 89.0504 9.05281 89.0504 19.4108L117.05 19.4108ZM107.798 28.6628L116.154 28.6628L116.154 0.662791L107.798 0.66279L107.798 28.6628ZM116.154 28.6628C111.048 28.6628 106.902 24.5168 106.902 19.4108L134.902 19.4108C134.902 9.05281 126.512 0.662792 116.154 0.662791L116.154 28.6628ZM106.902 19.4108L106.902 67.0766L134.902 67.0766L134.902 19.4108L106.902 19.4108ZM106.902 67.0766C106.902 61.9706 111.048 57.8246 116.154 57.8246L116.154 85.8246C126.512 85.8246 134.902 77.4346 134.902 67.0766L106.902 67.0766ZM116.154 57.8246L107.798 57.8246L107.798 85.8246L116.154 85.8246L116.154 57.8246ZM107.798 57.8246C112.904 57.8246 117.05 61.9706 117.05 67.0766L89.0504 67.0766C89.0504 77.4346 97.4404 85.8246 107.798 85.8246L107.798 57.8246ZM117.05 67.0766L117.05 19.4108L89.0504 19.4108L89.0504 67.0766L117.05 67.0766ZM23.0833 68.9056L30.1921 24.2371L2.54005 19.8364L-4.56871 64.5049L23.0833 68.9056ZM30.3661 22.0368C30.3661 22.6117 30.3302 23.1184 30.2842 23.5391C30.2384 23.958 30.1802 24.3113 30.1304 24.5772C30.1052 24.7116 30.0809 24.8297 30.0598 24.9279C30.0388 25.0258 30.0198 25.1089 30.005 25.1719C29.9904 25.2344 29.9782 25.2842 29.9712 25.3128C29.9648 25.3387 29.9594 25.3604 29.9613 25.3529C29.9614 25.3522 29.9634 25.3443 29.9656 25.3354C29.968 25.3258 29.9717 25.3109 29.9762 25.2929C29.9848 25.2577 29.9986 25.2013 30.0148 25.1321C30.0311 25.0625 30.0516 24.9728 30.0741 24.8682C30.0966 24.7634 30.1222 24.6386 30.1486 24.4976C30.201 24.2185 30.2612 23.8519 30.3084 23.4198C30.3559 22.9858 30.3926 22.4658 30.3926 21.8776L2.39258 21.8776C2.39258 21.3027 2.42843 20.796 2.47445 20.3753C2.52027 19.9564 2.5784 19.6031 2.62825 19.3373C2.65346 19.2028 2.6777 19.0847 2.69879 18.9865C2.71984 18.8886 2.73882 18.8055 2.7536 18.7425C2.76825 18.68 2.78039 18.6302 2.78743 18.6016C2.7938 18.5757 2.79924 18.5541 2.79736 18.5616C2.79721 18.5622 2.79523 18.5701 2.793 18.579C2.7906 18.5887 2.78691 18.6035 2.78248 18.6215C2.77381 18.6568 2.76006 18.7131 2.74385 18.7823C2.72753 18.852 2.70704 18.9416 2.68457 19.0462C2.66205 19.151 2.63646 19.2758 2.61001 19.4168C2.55768 19.6959 2.49747 20.0625 2.4502 20.4946C2.40273 20.9286 2.36606 21.4486 2.36606 22.0368L30.3661 22.0368ZM30.2888 23.5792C30.3643 22.9624 30.3787 22.9735 30.3555 23.0533C30.3219 23.1685 30.1682 23.644 29.7217 24.2195C29.4949 24.5118 29.2259 24.7857 28.9285 25.0185C28.6302 25.2519 28.3745 25.3883 28.2178 25.4567C27.9031 25.5941 28.2529 25.3471 29.7613 25.3471L29.7613 -2.65287C20.3358 -2.65287 12.5734 0.644581 7.5993 7.05562C3.23746 12.6775 2.66165 18.8263 2.49637 20.1761L30.2888 23.5792ZM29.7613 25.3471L83.9788 25.3471L83.9788 -2.65286L29.7613 -2.65287L29.7613 25.3471ZM83.9788 25.3471C81.7375 25.3471 79.9523 23.5619 79.9523 21.3206L107.952 21.3206C107.952 8.09789 97.2015 -2.65286 83.9788 -2.65286L83.9788 25.3471ZM79.9523 21.3206L79.9523 67.0766L107.952 67.0766L107.952 21.3206L79.9523 21.3206ZM79.9523 67.0766C79.9523 68.4819 80.0737 69.7303 80.2025 70.7176L107.967 67.0961C107.96 67.0421 107.956 67.002 107.953 66.9738C107.95 66.9457 107.949 66.9315 107.948 66.9295C107.948 66.9276 107.949 66.9396 107.95 66.964C107.951 66.9884 107.952 67.0264 107.952 67.0766L79.9523 67.0766ZM89.818 55.5729L89.1549 55.7851L97.6886 82.4529L98.3518 82.2407L89.818 55.5729ZM89.5513 55.6647C87.8723 56.1477 79.3413 58.7649 70.951 65.076C62.3396 71.5535 52.7639 82.8906 52.7639 100.18L80.7639 100.18C80.7639 94.5517 83.549 90.6368 87.7824 87.4524C89.9277 85.8388 92.2122 84.6257 94.1113 83.7842C95.0421 83.3717 95.8322 83.0697 96.4006 82.8681C96.9692 82.6664 97.2954 82.5724 97.2922 82.5734L89.5513 55.6647ZM52.7639 100.18L52.7639 118.562L80.7639 118.562L80.7639 100.18L52.7639 100.18ZM65.3569 104.633C65.1591 104.653 64.9771 104.661 64.8282 104.659C64.6756 104.657 64.6185 104.646 64.6522 104.652C64.6825 104.656 64.8866 104.69 65.2159 104.815C65.5514 104.943 66.0695 105.185 66.6561 105.623L49.8956 128.053C56.6508 133.1 64.6029 132.852 68.1709 132.491L65.3569 104.633ZM66.6406 105.611C67.264 106.076 67.7164 106.584 68.018 107.021C68.3087 107.442 68.4143 107.73 68.4265 107.765C68.4368 107.794 68.3725 107.618 68.3085 107.169C68.2447 106.722 68.191 106.075 68.191 105.193L40.191 105.193C40.191 112.36 41.8047 122.024 49.9111 128.064L66.6406 105.611ZM68.191 105.193L68.191 82.2755L40.191 82.2755L40.191 105.193L68.191 105.193ZM68.191 82.2755C68.191 72.0236 59.8805 63.7132 49.6287 63.7132L49.6286 91.7132C44.4166 91.7132 40.191 87.4876 40.191 82.2755L68.191 82.2755ZM49.6287 63.7132L18.3289 63.7132L18.3289 91.7132L49.6286 91.7132L49.6287 63.7132ZM18.3289 63.7132C20.9943 63.7132 23.1247 65.8695 23.1247 68.5089L-4.87533 68.5089C-4.87533 81.281 5.47784 91.7132 18.3289 91.7132L18.3289 63.7132ZM23.1247 68.5089C23.1247 68.5744 23.1232 68.6224 23.122 68.6512C23.1208 68.68 23.1197 68.6937 23.1199 68.6908C23.1201 68.6879 23.1214 68.672 23.1246 68.6418C23.1278 68.6115 23.1326 68.5701 23.1397 68.516L-4.62511 64.8945C-4.75151 65.8635 -4.87533 67.1174 -4.87533 68.5089L23.1247 68.5089Z" fill="white" mask="url(#path-7-inside-1)"/>
<path d="M45.5928 86.8378L45.5928 86.3378L45.0928 86.3378L18.3289 86.3378C8.52574 86.3378 0.525792 78.3389 0.500005 68.5341C0.500097 67.4799 0.602895 66.4198 0.759207 65.3769C0.759374 65.3758 0.759542 65.3747 0.75971 65.3735L1.1301 63.0986L1.13038 63.0969L7.86779 20.7892L7.86906 20.7812L7.87007 20.7732C8.5856 15.1141 10.9855 10.6274 14.7178 7.55198C18.4535 4.47381 23.5658 2.77551 29.7613 2.77551L83.9788 2.77552C89.6852 2.77552 94.7998 5.38299 98.2115 9.44079L98.5447 9.83709L98.9291 9.49026C101.28 7.36914 104.398 6.09117 107.798 6.09117L116.154 6.09117C123.517 6.09117 129.5 12.0742 129.5 19.4373L129.5 67.0766C129.5 74.44 123.517 80.4218 116.156 80.3962L116.154 80.3962L107.798 80.3962C104.271 80.3962 101.051 79.0166 98.6462 76.74L98.433 76.5382L98.1529 76.626L95.9513 77.3156L95.8341 77.3523L95.8208 77.3657C95.8153 77.3677 95.8096 77.3699 95.8037 77.3722C95.1549 77.5493 90.1886 79.0603 85.317 82.5245C80.3234 86.0755 75.3621 91.7318 75.3621 100.154L75.3621 122.302C75.3621 124.075 74.2022 125.657 72.5311 126.175L72.531 126.174L72.5209 126.178C72.3151 126.246 69.4666 127.116 65.6684 127.227C61.8681 127.338 57.174 126.688 53.2136 123.782L53.2125 123.781C48.1869 120.115 45.5928 113.904 45.5928 105.193L45.5928 86.8378ZM8.7635 66.6266L8.76331 66.6266L8.76149 66.6405C8.68024 67.2634 8.62467 67.8965 8.62467 68.5089C8.62467 73.8504 12.959 78.2132 18.3289 78.2132L49.6287 78.2132C51.8724 78.2132 53.691 80.0318 53.691 82.2755L53.691 105.193C53.691 110.974 55.0785 115.079 57.9766 117.238C60.5454 119.158 64.1545 119.328 66.8142 119.059L67.2639 119.014L67.2639 118.562L67.2639 100.18C67.2639 88.9294 73.323 81.4359 79.6673 76.6638C86.0194 71.8858 92.6172 69.8707 93.56 69.5995L93.5671 69.5975L93.5741 69.5952L94.2373 69.383L94.6346 69.2559L94.5807 68.8421C94.5029 68.2455 94.4523 67.6583 94.4523 67.0766L94.4523 21.3206C94.4523 15.5537 89.7456 10.8471 83.9788 10.8471L29.7613 10.8471C23.5929 10.8471 20.1696 12.8768 18.2654 15.3311C16.3951 17.7418 16.0599 20.4804 15.8993 21.792L15.8963 21.8169L15.8937 21.8383C15.8906 21.8503 15.8841 21.8764 15.8788 21.9049C15.8748 21.9259 15.8706 21.9528 15.8681 21.9842L8.7635 66.6266ZM107.798 14.1628C104.896 14.1628 102.55 16.5087 102.55 19.4108L102.55 67.0766C102.55 69.9787 104.896 72.3246 107.798 72.3246L116.154 72.3246C119.056 72.3246 121.402 69.9787 121.402 67.0766L121.402 19.4108C121.402 16.5087 119.056 14.1628 116.154 14.1628L107.798 14.1628Z" stroke="black"/>
</svg>
