<svg width="130" height="130" viewBox="0 0 130 130" fill="none" xmlns="http://www.w3.org/2000/svg">
<path d="M111.671 43.1621H84.9072V24.8067C84.9072 16.0003 82.2812 9.60777 77.0822 5.81467C68.9125 -0.180029 57.7984 3.18867 57.321 3.34782C55.4377 3.93138 54.1379 5.70857 54.1379 7.69796V29.8465C54.1379 46.2391 34.8541 51.942 34.0318 52.1542C33.9788 52.1807 33.9257 52.1807 33.8992 52.2072L31.6976 52.8969C29.2042 50.5362 25.8621 49.1038 22.2016 49.1038H13.8462C6.2069 49.0773 0 55.2842 0 62.9234V110.563C0 118.202 6.2069 124.409 13.8462 124.409H22.2016C25.7294 124.409 28.9655 123.083 31.4058 120.881C34.9072 125.045 40.1592 127.724 46.0212 127.724H100.239C112.812 127.724 121.167 120.828 122.626 109.289L129.363 66.9818L129.735 64.7006C129.894 63.6396 130 62.5521 130 61.4645C129.973 51.385 121.751 43.1621 111.671 43.1621ZM26.9496 110.589C26.9496 113.215 24.8276 115.337 22.2016 115.337H13.8462C11.2202 115.337 9.09814 113.215 9.09814 110.589V62.9234C9.09814 60.2974 11.2202 58.1754 13.8462 58.1754H22.2016C24.8276 58.1754 26.9496 60.2974 26.9496 62.9234V110.589ZM120.743 63.2948L113.634 107.963C113.634 108.016 113.607 108.069 113.607 108.122C113.289 110.722 112.334 118.653 100.239 118.653H46.0212C40.5305 118.653 36.0477 114.17 36.0477 108.679V62.9234C36.0477 62.3133 35.9947 61.7033 35.9151 61.0932L36.5782 60.881C38.5146 60.324 63.2361 52.7377 63.2361 29.82V11.438C65.8621 11.1728 69.3103 11.3584 71.7241 13.1621C74.4297 15.1781 75.809 19.0773 75.809 24.8067V47.7245C75.809 50.2444 77.8515 52.2868 80.3714 52.2868H111.671C116.764 52.2868 120.875 56.4247 120.875 61.4911C120.875 62.0746 120.822 62.6847 120.743 63.2948Z" fill="#02810E"/>
</svg>
