<svg width="130" height="130" viewBox="0 0 130 130" fill="none" xmlns="http://www.w3.org/2000/svg">
<rect x="55" y="9" width="24" height="115" fill="#02810E"/>
<rect x="6" y="56" width="56" height="61" fill="#02810E"/>
<rect x="39" y="53" width="56" height="67" fill="#02810E"/>
<rect x="49" y="49" width="18" height="11" fill="#02810E"/>
<rect x="73" y="49" width="38" height="75" fill="#02810E"/>
<rect x="79" y="48" width="42" height="67" fill="#02810E"/>
<mask id="path-7-inside-1" fill="white">
<path d="M111.671 43.1621H84.9072V24.8067C84.9072 16.0003 82.2812 9.60777 77.0822 5.81467C68.9125 -0.180029 57.7984 3.18867 57.321 3.34782C55.4377 3.93138 54.1379 5.70857 54.1379 7.69796V29.8465C54.1379 46.2391 34.8541 51.942 34.0318 52.1542C33.9788 52.1807 33.9257 52.1807 33.8992 52.2072L31.6976 52.8969C29.2042 50.5362 25.8621 49.1038 22.2016 49.1038H13.8462C6.2069 49.0773 0 55.2842 0 62.9234V110.563C0 118.202 6.2069 124.409 13.8462 124.409H22.2016C25.7294 124.409 28.9655 123.083 31.4058 120.881C34.9072 125.045 40.1592 127.724 46.0212 127.724H100.239C112.812 127.724 121.167 120.828 122.626 109.289L129.363 66.9818L129.735 64.7006C129.894 63.6396 130 62.5521 130 61.4645C129.973 51.385 121.751 43.1621 111.671 43.1621ZM26.9496 110.589C26.9496 113.215 24.8276 115.337 22.2016 115.337H13.8462C11.2202 115.337 9.09814 113.215 9.09814 110.589V62.9234C9.09814 60.2974 11.2202 58.1754 13.8462 58.1754H22.2016C24.8276 58.1754 26.9496 60.2974 26.9496 62.9234V110.589ZM120.743 63.2948L113.634 107.963C113.634 108.016 113.607 108.069 113.607 108.122C113.289 110.722 112.334 118.653 100.239 118.653H46.0212C40.5305 118.653 36.0477 114.17 36.0477 108.679V62.9234C36.0477 62.3133 35.9947 61.7033 35.9151 61.0932L36.5782 60.881C38.5146 60.324 63.2361 52.7377 63.2361 29.82V11.438C65.8621 11.1728 69.3103 11.3584 71.7241 13.1621C74.4297 15.1781 75.809 19.0773 75.809 24.8067V47.7245C75.809 50.2444 77.8515 52.2868 80.3714 52.2868H111.671C116.764 52.2868 120.875 56.4247 120.875 61.4911C120.875 62.0746 120.822 62.6847 120.743 63.2948Z"/>
</mask>
<path d="M111.671 43.1621H84.9072V24.8067C84.9072 16.0003 82.2812 9.60777 77.0822 5.81467C68.9125 -0.180029 57.7984 3.18867 57.321 3.34782C55.4377 3.93138 54.1379 5.70857 54.1379 7.69796V29.8465C54.1379 46.2391 34.8541 51.942 34.0318 52.1542C33.9788 52.1807 33.9257 52.1807 33.8992 52.2072L31.6976 52.8969C29.2042 50.5362 25.8621 49.1038 22.2016 49.1038H13.8462C6.2069 49.0773 0 55.2842 0 62.9234V110.563C0 118.202 6.2069 124.409 13.8462 124.409H22.2016C25.7294 124.409 28.9655 123.083 31.4058 120.881C34.9072 125.045 40.1592 127.724 46.0212 127.724H100.239C112.812 127.724 121.167 120.828 122.626 109.289L129.363 66.9818L129.735 64.7006C129.894 63.6396 130 62.5521 130 61.4645C129.973 51.385 121.751 43.1621 111.671 43.1621ZM26.9496 110.589C26.9496 113.215 24.8276 115.337 22.2016 115.337H13.8462C11.2202 115.337 9.09814 113.215 9.09814 110.589V62.9234C9.09814 60.2974 11.2202 58.1754 13.8462 58.1754H22.2016C24.8276 58.1754 26.9496 60.2974 26.9496 62.9234V110.589ZM120.743 63.2948L113.634 107.963C113.634 108.016 113.607 108.069 113.607 108.122C113.289 110.722 112.334 118.653 100.239 118.653H46.0212C40.5305 118.653 36.0477 114.17 36.0477 108.679V62.9234C36.0477 62.3133 35.9947 61.7033 35.9151 61.0932L36.5782 60.881C38.5146 60.324 63.2361 52.7377 63.2361 29.82V11.438C65.8621 11.1728 69.3103 11.3584 71.7241 13.1621C74.4297 15.1781 75.809 19.0773 75.809 24.8067V47.7245C75.809 50.2444 77.8515 52.2868 80.3714 52.2868H111.671C116.764 52.2868 120.875 56.4247 120.875 61.4911C120.875 62.0746 120.822 62.6847 120.743 63.2948Z" fill="#02810E"/>
<path d="M84.9072 43.1621H64.9072V63.1621H84.9072V43.1621ZM77.0822 5.81467L65.2504 21.9394L65.2723 21.9555L65.2943 21.9715L77.0822 5.81467ZM57.321 3.34782L63.2405 22.4517L63.4437 22.3888L63.6455 22.3215L57.321 3.34782ZM34.0318 52.1542L29.0343 32.7886L26.9827 33.3181L25.0876 34.2656L34.0318 52.1542ZM33.8992 52.2072L39.8778 71.2927L44.5668 69.8239L48.0413 66.3494L33.8992 52.2072ZM31.6976 52.8969L17.947 67.42L26.4725 75.492L37.6762 71.9824L31.6976 52.8969ZM13.8462 49.1038L13.7767 69.1037L13.8114 69.1038H13.8462V49.1038ZM31.4058 120.881L46.7142 108.01L33.3862 92.158L18.0087 106.031L31.4058 120.881ZM122.626 109.289L102.875 106.144L102.824 106.462L102.784 106.781L122.626 109.289ZM129.363 66.9818L109.623 63.7683L109.618 63.8024L109.612 63.8365L129.363 66.9818ZM129.735 64.7006L149.475 67.9141L149.495 67.7909L149.513 67.6674L129.735 64.7006ZM130 61.4645H150V61.4382L150 61.4119L130 61.4645ZM120.743 63.2948L140.494 66.4381L140.538 66.1604L140.575 65.8816L120.743 63.2948ZM113.634 107.963L93.8825 104.82L93.634 106.382V107.963H113.634ZM113.607 108.122L133.459 110.553L133.607 109.342V108.122H113.607ZM35.9151 61.0932L29.8196 42.0447L13.9246 47.1311L16.0831 63.68L35.9151 61.0932ZM36.5782 60.881L31.0491 41.6605L30.7646 41.7423L30.4827 41.8325L36.5782 60.881ZM63.2361 11.438L61.2261 -8.46074L43.2361 -6.64356V11.438H63.2361ZM71.7241 13.1621L59.7523 29.1832L59.7634 29.1915L59.7745 29.1998L71.7241 13.1621ZM120.875 61.4911L100.875 61.4911L120.875 61.4911ZM111.671 23.1621H84.9072V63.1621H111.671V23.1621ZM104.907 43.1621V24.8067H64.9072V43.1621H104.907ZM104.907 24.8067C104.907 12.1803 101.002 -1.49061 88.8702 -10.3422L65.2943 21.9715C65.0589 21.7998 64.8292 21.5767 64.6465 21.3392C64.4691 21.1087 64.4228 20.9778 64.4503 21.0447C64.5258 21.228 64.9072 22.3127 64.9072 24.8067H104.907ZM88.914 -10.3101C79.852 -16.9595 69.9546 -17.8997 63.733 -17.7179C57.4247 -17.5337 52.5505 -16.1439 50.9964 -15.6258L63.6455 22.3215C63.4597 22.3834 63.325 22.4251 63.2796 22.439C63.2125 22.4597 63.1619 22.4747 63.1283 22.4845C63.0606 22.5042 63.0303 22.512 63.0341 22.511C63.0428 22.5088 63.1526 22.4804 63.3405 22.4433C63.7446 22.3634 64.3095 22.2823 64.9009 22.265C65.5091 22.2473 65.8632 22.3055 65.9717 22.3314C66.0373 22.347 65.7103 22.2769 65.2504 21.9394L88.914 -10.3101ZM51.4014 -15.7561C41.0337 -12.5436 34.1379 -2.93944 34.1379 7.69796H74.1379C74.1379 14.3566 69.8416 20.4063 63.2405 22.4517L51.4014 -15.7561ZM34.1379 7.69796V29.8465H74.1379V7.69796H34.1379ZM34.1379 29.8465C34.1379 29.902 34.1347 29.8085 34.1862 29.6406C34.2339 29.485 34.2846 29.4086 34.2695 29.4322C34.1973 29.5449 33.8146 30.0493 32.8028 30.7689C31.8148 31.4714 30.6727 32.0616 29.6721 32.4885C29.1999 32.69 28.8327 32.8238 28.6315 32.8929C28.3262 32.9979 28.4644 32.9357 29.0343 32.7886L39.0294 71.5197C40.8913 71.0393 48.4205 68.7454 55.9837 63.3671C63.7002 57.8798 74.1379 47.0582 74.1379 29.8465H34.1379ZM25.0876 34.2656C26.2588 33.6801 27.2556 33.3283 27.8525 33.1357C28.2679 33.0017 28.9055 32.8233 28.4613 32.9502C28.3818 32.9729 27.2674 33.2769 25.9493 33.85C24.5457 34.4603 22.124 35.6981 19.7571 38.0651L48.0413 66.3494C45.6876 68.7031 43.2825 69.931 41.8981 70.5329C40.5989 71.0978 39.5061 71.3952 39.4498 71.4112C39.0288 71.5315 39.6913 71.3464 40.1324 71.2041C40.755 71.0033 41.7784 70.6416 42.9761 70.0427L25.0876 34.2656ZM27.9206 33.1217L25.719 33.8114L37.6762 71.9824L39.8778 71.2927L27.9206 33.1217ZM45.4482 38.3738C39.3983 32.6457 31.1908 29.1038 22.2016 29.1038V69.1038C20.5334 69.1038 19.0102 68.4266 17.947 67.42L45.4482 38.3738ZM22.2016 29.1038H13.8462V69.1038H22.2016V29.1038ZM13.9156 29.1039C-4.83697 29.0388 -20 44.2519 -20 62.9234H20C20 66.3164 17.2508 69.1157 13.7767 69.1037L13.9156 29.1039ZM-20 62.9234V110.563H20V62.9234H-20ZM-20 110.563C-20 129.248 -4.8388 144.409 13.8462 144.409V104.409C17.2526 104.409 20 107.156 20 110.563H-20ZM13.8462 144.409H22.2016V104.409H13.8462V144.409ZM22.2016 144.409C30.8209 144.409 38.795 141.151 44.803 135.731L18.0087 106.031C19.136 105.014 20.638 104.409 22.2016 104.409V144.409ZM16.0975 133.752C23.1861 142.183 33.9312 147.724 46.0212 147.724V107.724C46.1677 107.724 46.336 107.764 46.4727 107.829C46.5893 107.885 46.6623 107.949 46.7142 108.01L16.0975 133.752ZM46.0212 147.724H100.239V107.724H46.0212V147.724ZM100.239 147.724C110.163 147.724 120.19 144.967 128.318 138.269C136.58 131.462 141.182 121.97 142.468 111.798L102.784 106.781C102.687 107.546 102.531 107.82 102.552 107.78C102.584 107.718 102.699 107.549 102.882 107.399C103.325 107.034 102.887 107.724 100.239 107.724V147.724ZM142.377 112.435L149.115 70.1271L109.612 63.8365L102.875 106.144L142.377 112.435ZM149.104 70.1953L149.475 67.9141L109.995 61.4871L109.623 63.7683L149.104 70.1953ZM149.513 67.6674C149.772 65.9438 150 63.8229 150 61.4645H110C110 61.3615 110.005 61.3292 110 61.381C109.996 61.4331 109.984 61.546 109.956 61.7338L149.513 67.6674ZM150 61.4119C149.944 40.338 132.807 23.1621 111.671 23.1621V63.1621C111.161 63.1621 110.722 62.9339 110.47 62.6827C110.221 62.4331 110.001 62.007 110 61.5172L150 61.4119ZM6.9496 110.589C6.9496 102.169 13.7819 95.3372 22.2016 95.3372V135.337C35.8733 135.337 46.9496 124.261 46.9496 110.589H6.9496ZM22.2016 95.3372H13.8462V135.337H22.2016V95.3372ZM13.8462 95.3372C22.2658 95.3372 29.0981 102.169 29.0981 110.589H-10.9019C-10.9019 124.261 0.174476 135.337 13.8462 135.337V95.3372ZM29.0981 110.589V62.9234H-10.9019V110.589H29.0981ZM29.0981 62.9234C29.0981 71.3431 22.2658 78.1754 13.8462 78.1754V38.1754C0.174476 38.1754 -10.9019 49.2517 -10.9019 62.9234H29.0981ZM13.8462 78.1754H22.2016V38.1754H13.8462V78.1754ZM22.2016 78.1754C13.7819 78.1754 6.9496 71.3431 6.9496 62.9234H46.9496C46.9496 49.2517 35.8733 38.1754 22.2016 38.1754V78.1754ZM6.9496 62.9234V110.589H46.9496V62.9234H6.9496ZM100.991 60.1514L93.8825 104.82L133.385 111.107L140.494 66.4381L100.991 60.1514ZM93.634 107.963C93.634 107.139 93.6853 106.412 93.7514 105.808C93.8172 105.207 93.9007 104.7 93.9724 104.317C94.0087 104.124 94.0436 103.953 94.074 103.812C94.1044 103.67 94.1318 103.55 94.1533 103.459C94.1745 103.368 94.1922 103.296 94.2026 103.253C94.2121 103.215 94.2202 103.183 94.2179 103.192C94.2178 103.192 94.2152 103.203 94.2122 103.215C94.2089 103.228 94.2039 103.248 94.1977 103.273C94.1857 103.322 94.1664 103.401 94.1435 103.499C94.1205 103.597 94.0916 103.723 94.0598 103.871C94.0279 104.02 93.9917 104.197 93.9542 104.397C93.8799 104.793 93.7944 105.313 93.7271 105.928C93.6596 106.545 93.6074 107.285 93.6074 108.122H133.607C133.607 108.947 133.556 109.673 133.49 110.277C133.424 110.878 133.341 111.386 133.269 111.769C133.233 111.962 133.198 112.132 133.167 112.274C133.137 112.415 133.11 112.535 133.088 112.627C133.067 112.717 133.049 112.79 133.039 112.832C133.029 112.871 133.021 112.903 133.023 112.894C133.024 112.894 133.026 112.883 133.029 112.871C133.032 112.858 133.038 112.837 133.044 112.812C133.056 112.763 133.075 112.684 133.098 112.587C133.121 112.489 133.15 112.362 133.182 112.214C133.213 112.066 133.25 111.889 133.287 111.689C133.361 111.293 133.447 110.772 133.514 110.158C133.582 109.541 133.634 108.801 133.634 107.963H93.634ZM93.7557 105.692C93.6053 106.92 93.6549 104.529 95.5378 102.102C96.6473 100.673 98.0427 99.6292 99.3808 99.0448C100.6 98.5124 101.098 98.6529 100.239 98.6529V138.653C111.112 138.653 120.803 134.792 127.141 126.622C132.605 119.58 133.291 111.924 133.459 110.553L93.7557 105.692ZM100.239 98.6529H46.0212V138.653H100.239V98.6529ZM46.0212 98.6529C51.5762 98.6529 56.0477 103.124 56.0477 108.679H16.0477C16.0477 125.216 29.4848 138.653 46.0212 138.653V98.6529ZM56.0477 108.679V62.9234H16.0477V108.679H56.0477ZM56.0477 62.9234C56.0477 61.1773 55.897 59.6553 55.7471 58.5064L16.0831 63.68C16.0924 63.7513 16.0477 63.4494 16.0477 62.9234H56.0477ZM42.0107 80.1417L42.6738 79.9295L30.4827 41.8325L29.8196 42.0447L42.0107 80.1417ZM42.1074 80.1015C44.0912 79.5308 53.422 76.6645 62.6557 69.7189C72.2052 62.5358 83.2361 49.6082 83.2361 29.82H43.2361C43.2361 32.9495 41.9062 35.2739 38.6109 37.7526C34.9997 40.4689 31.0017 41.6741 31.0491 41.6605L42.1074 80.1015ZM83.2361 29.82V11.438H43.2361V29.82H83.2361ZM65.246 31.3368C65.242 31.3372 65.2316 31.3381 65.2129 31.339C65.1944 31.3399 65.1583 31.3412 65.1037 31.3406C65.0087 31.3395 64.7677 31.3319 64.3999 31.273C63.7963 31.1765 61.9034 30.7907 59.7523 29.1832L83.6959 -2.85896C75.0802 -9.29711 65.1978 -8.86192 61.2261 -8.46074L65.246 31.3368ZM59.7745 29.1998C57.2974 27.3541 56.2575 25.2044 55.9131 24.2247C55.6215 23.3952 55.809 23.4029 55.809 24.8067H95.809C95.809 17.0245 94.0948 4.88919 83.6738 -2.87551L59.7745 29.1998ZM55.809 24.8067V47.7245H95.809V24.8067H55.809ZM55.809 47.7245C55.809 61.2901 66.8058 72.2868 80.3714 72.2868V32.2868C88.8971 32.2868 95.809 39.1987 95.809 47.7245H55.809ZM80.3714 72.2868H111.671V32.2868H80.3714V72.2868ZM111.671 72.2868C105.681 72.2868 100.875 67.4329 100.875 61.4911H140.875C140.875 45.4166 127.847 32.2868 111.671 32.2868V72.2868ZM100.875 61.4911C100.875 61.1849 100.889 60.964 100.898 60.849C100.907 60.7324 100.914 60.6798 100.911 60.708L140.575 65.8816C140.721 64.7586 140.875 63.2289 140.875 61.4911L100.875 61.4911Z" fill="white" mask="url(#path-7-inside-1)"/>
<path d="M84.4072 43.1621V43.6621H84.9072H111.671C121.474 43.6621 129.474 51.6611 129.5 61.4659C129.5 62.5201 129.397 63.5802 129.241 64.6231C129.241 64.6242 129.24 64.6253 129.24 64.6264L128.87 66.9014L128.87 66.9031L122.132 109.211L122.131 109.219L122.13 109.227C121.414 114.886 119.015 119.373 115.282 122.448C111.546 125.526 106.434 127.224 100.239 127.224H46.0212C40.3148 127.224 35.2002 124.617 31.7885 120.559L31.4553 120.163L31.0709 120.51C28.7198 122.631 25.6022 123.909 22.2016 123.909H13.8462C6.48304 123.909 0.5 117.926 0.5 110.563V62.9234C0.5 55.56 6.48299 49.5782 13.8444 49.6038H13.8462H22.2016C25.7289 49.6038 28.9494 50.9834 31.3538 53.26L31.567 53.4618L31.8471 53.374L34.0487 52.6844L34.1659 52.6477L34.1792 52.6343C34.1847 52.6323 34.1904 52.6301 34.1963 52.6278C34.8452 52.4507 39.8114 50.9397 44.683 47.4755C49.6766 43.9245 54.6379 38.2682 54.6379 29.8465V7.69796C54.6379 5.92477 55.7978 4.34325 57.4689 3.82542L57.469 3.82553L57.4791 3.82216C57.6849 3.75355 60.5334 2.88428 64.3316 2.77334C68.1319 2.66233 72.826 3.31174 76.7864 6.21779L76.7875 6.21859C81.8131 9.88523 84.4072 16.0958 84.4072 24.8067V43.1621ZM121.236 63.3734L121.237 63.3734L121.239 63.3594C121.32 62.7365 121.375 62.1035 121.375 61.4911C121.375 56.1495 117.041 51.7868 111.671 51.7868H80.3714C78.1276 51.7868 76.309 49.9682 76.309 47.7245V24.8067C76.309 19.0259 74.9213 14.9208 72.0229 12.7612C69.4541 10.842 65.8453 10.6719 63.1858 10.9405L62.7361 10.986V11.438V29.82C62.7361 41.0706 56.677 48.5641 50.3327 53.3362C43.9806 58.1142 37.3828 60.1293 36.44 60.4005L36.4329 60.4025L36.4259 60.4048L35.7627 60.617L35.3654 60.7441L35.4193 61.1579C35.4971 61.7545 35.5477 62.3417 35.5477 62.9234V108.679C35.5477 114.446 40.2544 119.153 46.0212 119.153H100.239C106.407 119.153 109.83 117.123 111.735 114.669C113.605 112.258 113.94 109.52 114.101 108.208L114.104 108.183L114.106 108.162C114.109 108.15 114.116 108.124 114.121 108.095C114.125 108.074 114.129 108.047 114.132 108.016L121.236 63.3734ZM22.2016 115.837C25.1037 115.837 27.4496 113.491 27.4496 110.589V62.9234C27.4496 60.0213 25.1037 57.6754 22.2016 57.6754H13.8462C10.944 57.6754 8.59814 60.0213 8.59814 62.9234V110.589C8.59814 113.491 10.944 115.837 13.8462 115.837H22.2016Z" stroke="black"/>
</svg>
