<svg width="70" height="70" viewBox="0 0 70 70" fill="none" xmlns="http://www.w3.org/2000/svg">
<path d="M35 70C54.3346 70 70 54.3346 70 35C70 15.6654 54.3346 0 35 0C15.6654 0 0 15.6654 0 35C0 54.3346 15.6654 70 35 70ZM16.0154 34.2417L49.7613 21.2304C51.3275 20.6646 52.6954 21.6125 52.1879 23.9808L52.1908 23.9779L46.445 51.0475C46.0192 52.9667 44.8787 53.4333 43.2833 52.5292L34.5333 46.0804L30.3129 50.1463C29.8463 50.6129 29.4525 51.0067 28.5483 51.0067L29.1696 42.1021L45.3862 27.4517C46.0921 26.8304 45.2288 26.4804 44.2983 27.0988L24.2579 39.7163L15.6188 37.0213C13.7433 36.4263 13.7025 35.1458 16.0154 34.2417Z" fill="#373540"/>
</svg>
