<svg width="70" height="70" viewBox="0 0 70 70" fill="none" xmlns="http://www.w3.org/2000/svg">
<path d="M35 0C15.673 0 0 15.673 0 35C0 54.327 15.673 70 35 70C54.327 70 70 54.327 70 35C70 15.673 54.327 0 35 0ZM50.9806 27.2893C50.9961 27.6337 51.0036 27.9798 51.0036 28.3275C51.0036 38.9429 42.9233 51.1841 28.1464 51.1846H28.147H28.1464C23.6096 51.1846 19.3879 49.8548 15.8327 47.576C16.4613 47.6502 17.1011 47.6871 17.7489 47.6871C21.5129 47.6871 24.9768 46.4032 27.7267 44.2483C24.2099 44.1831 21.2448 41.8605 20.2216 38.6684C20.7113 38.7624 21.2149 38.8137 21.7313 38.8137C22.4646 38.8137 23.1749 38.7149 23.8499 38.5307C20.174 37.7947 17.4049 34.5461 17.4049 30.656C17.4049 30.6197 17.4049 30.5871 17.406 30.5534C18.4885 31.1553 19.7265 31.5174 21.0445 31.558C18.8875 30.1187 17.4696 27.6583 17.4696 24.8711C17.4696 23.3992 17.8674 22.0203 18.5574 20.8331C22.5191 25.694 28.4396 28.8909 35.1164 29.2268C34.9786 28.6383 34.9076 28.0252 34.9076 27.395C34.9076 22.9602 38.5056 19.3623 42.942 19.3623C45.2528 19.3623 47.3399 20.3391 48.8059 21.9006C50.6361 21.5396 52.3547 20.871 53.9072 19.9508C53.3064 21.8259 52.0332 23.3992 50.3745 24.3941C51.9996 24.1998 53.5484 23.7688 54.9876 23.129C53.9126 24.7402 52.5491 26.1555 50.9806 27.2893Z" fill="#373540"/>
</svg>
